G04 #@! TF.GenerationSoftware,KiCad,Pcbnew,(6.0.0)*
G04 #@! TF.CreationDate,2022-01-14T23:04:14+01:00*
G04 #@! TF.ProjectId,pos,706f732e-6b69-4636-9164-5f7063625858,rev?*
G04 #@! TF.SameCoordinates,Original*
G04 #@! TF.FileFunction,Legend,Bot*
G04 #@! TF.FilePolarity,Positive*
%FSLAX46Y46*%
G04 Gerber Fmt 4.6, Leading zero omitted, Abs format (unit mm)*
G04 Created by KiCad (PCBNEW (6.0.0)) date 2022-01-14 23:04:14*
%MOMM*%
%LPD*%
G01*
G04 APERTURE LIST*
G04 Aperture macros list*
%AMRoundRect*
0 Rectangle with rounded corners*
0 $1 Rounding radius*
0 $2 $3 $4 $5 $6 $7 $8 $9 X,Y pos of 4 corners*
0 Add a 4 corners polygon primitive as box body*
4,1,4,$2,$3,$4,$5,$6,$7,$8,$9,$2,$3,0*
0 Add four circle primitives for the rounded corners*
1,1,$1+$1,$2,$3*
1,1,$1+$1,$4,$5*
1,1,$1+$1,$6,$7*
1,1,$1+$1,$8,$9*
0 Add four rect primitives between the rounded corners*
20,1,$1+$1,$2,$3,$4,$5,0*
20,1,$1+$1,$4,$5,$6,$7,0*
20,1,$1+$1,$6,$7,$8,$9,0*
20,1,$1+$1,$8,$9,$2,$3,0*%
G04 Aperture macros list end*
%ADD10C,0.200000*%
%ADD11C,0.150000*%
%ADD12C,0.120000*%
%ADD13R,1.350000X1.350000*%
%ADD14O,1.350000X1.350000*%
%ADD15C,1.750000*%
%ADD16C,3.987800*%
%ADD17C,2.250000*%
%ADD18C,1.905000*%
%ADD19R,1.905000X1.905000*%
%ADD20RoundRect,0.225000X0.225000X0.250000X-0.225000X0.250000X-0.225000X-0.250000X0.225000X-0.250000X0*%
%ADD21RoundRect,0.225000X-0.225000X-0.250000X0.225000X-0.250000X0.225000X0.250000X-0.225000X0.250000X0*%
%ADD22RoundRect,0.250000X0.375000X0.625000X-0.375000X0.625000X-0.375000X-0.625000X0.375000X-0.625000X0*%
%ADD23RoundRect,0.200000X0.275000X-0.200000X0.275000X0.200000X-0.275000X0.200000X-0.275000X-0.200000X0*%
%ADD24RoundRect,0.200000X0.200000X0.275000X-0.200000X0.275000X-0.200000X-0.275000X0.200000X-0.275000X0*%
%ADD25RoundRect,0.200000X-0.200000X-0.275000X0.200000X-0.275000X0.200000X0.275000X-0.200000X0.275000X0*%
%ADD26R,0.550000X1.600000*%
%ADD27R,1.600000X0.550000*%
%ADD28RoundRect,0.150000X-0.256326X-0.468458X0.468458X0.256326X0.256326X0.468458X-0.468458X-0.256326X0*%
%ADD29C,0.650000*%
%ADD30R,0.600000X1.450000*%
%ADD31R,0.300000X1.450000*%
%ADD32O,1.000000X1.600000*%
%ADD33O,1.000000X2.100000*%
%ADD34RoundRect,0.150000X0.587500X0.150000X-0.587500X0.150000X-0.587500X-0.150000X0.587500X-0.150000X0*%
%ADD35RoundRect,0.225000X-0.250000X0.225000X-0.250000X-0.225000X0.250000X-0.225000X0.250000X0.225000X0*%
%ADD36RoundRect,0.225000X0.250000X-0.225000X0.250000X0.225000X-0.250000X0.225000X-0.250000X-0.225000X0*%
%ADD37R,1.400000X1.200000*%
G04 APERTURE END LIST*
D10*
X136588452Y-91447928D02*
X135826547Y-91447928D01*
X133984952Y-91447928D02*
X133223047Y-91447928D01*
X133604000Y-91828880D02*
X133604000Y-91066976D01*
D11*
X128495619Y-106632047D02*
X129495619Y-106632047D01*
X129495619Y-106251095D01*
X129448000Y-106155857D01*
X129400380Y-106108238D01*
X129305142Y-106060619D01*
X129162285Y-106060619D01*
X129067047Y-106108238D01*
X129019428Y-106155857D01*
X128971809Y-106251095D01*
X128971809Y-106632047D01*
X129495619Y-105441571D02*
X129495619Y-105251095D01*
X129448000Y-105155857D01*
X129352761Y-105060619D01*
X129162285Y-105013000D01*
X128828952Y-105013000D01*
X128638476Y-105060619D01*
X128543238Y-105155857D01*
X128495619Y-105251095D01*
X128495619Y-105441571D01*
X128543238Y-105536809D01*
X128638476Y-105632047D01*
X128828952Y-105679666D01*
X129162285Y-105679666D01*
X129352761Y-105632047D01*
X129448000Y-105536809D01*
X129495619Y-105441571D01*
X128543238Y-104632047D02*
X128495619Y-104489190D01*
X128495619Y-104251095D01*
X128543238Y-104155857D01*
X128590857Y-104108238D01*
X128686095Y-104060619D01*
X128781333Y-104060619D01*
X128876571Y-104108238D01*
X128924190Y-104155857D01*
X128971809Y-104251095D01*
X129019428Y-104441571D01*
X129067047Y-104536809D01*
X129114666Y-104584428D01*
X129209904Y-104632047D01*
X129305142Y-104632047D01*
X129400380Y-104584428D01*
X129448000Y-104536809D01*
X129495619Y-104441571D01*
X129495619Y-104203476D01*
X129448000Y-104060619D01*
X129162285Y-103632047D02*
X128162285Y-103632047D01*
X129114666Y-103632047D02*
X129162285Y-103536809D01*
X129162285Y-103346333D01*
X129114666Y-103251095D01*
X129067047Y-103203476D01*
X128971809Y-103155857D01*
X128686095Y-103155857D01*
X128590857Y-103203476D01*
X128543238Y-103251095D01*
X128495619Y-103346333D01*
X128495619Y-103536809D01*
X128543238Y-103632047D01*
X128495619Y-102298714D02*
X129019428Y-102298714D01*
X129114666Y-102346333D01*
X129162285Y-102441571D01*
X129162285Y-102632047D01*
X129114666Y-102727285D01*
X128543238Y-102298714D02*
X128495619Y-102393952D01*
X128495619Y-102632047D01*
X128543238Y-102727285D01*
X128638476Y-102774904D01*
X128733714Y-102774904D01*
X128828952Y-102727285D01*
X128876571Y-102632047D01*
X128876571Y-102393952D01*
X128924190Y-102298714D01*
X128495619Y-101393952D02*
X129495619Y-101393952D01*
X128543238Y-101393952D02*
X128495619Y-101489190D01*
X128495619Y-101679666D01*
X128543238Y-101774904D01*
X128590857Y-101822523D01*
X128686095Y-101870142D01*
X128971809Y-101870142D01*
X129067047Y-101822523D01*
X129114666Y-101774904D01*
X129162285Y-101679666D01*
X129162285Y-101489190D01*
X129114666Y-101393952D01*
X126885619Y-111965380D02*
X127885619Y-111965380D01*
X127266571Y-111870142D02*
X126885619Y-111584428D01*
X127552285Y-111584428D02*
X127171333Y-111965380D01*
X126933238Y-110774904D02*
X126885619Y-110870142D01*
X126885619Y-111060619D01*
X126933238Y-111155857D01*
X127028476Y-111203476D01*
X127409428Y-111203476D01*
X127504666Y-111155857D01*
X127552285Y-111060619D01*
X127552285Y-110870142D01*
X127504666Y-110774904D01*
X127409428Y-110727285D01*
X127314190Y-110727285D01*
X127218952Y-111203476D01*
X127552285Y-110393952D02*
X126885619Y-110155857D01*
X127552285Y-109917761D02*
X126885619Y-110155857D01*
X126647523Y-110251095D01*
X126599904Y-110298714D01*
X126552285Y-110393952D01*
X126885619Y-109536809D02*
X127885619Y-109536809D01*
X127504666Y-109536809D02*
X127552285Y-109441571D01*
X127552285Y-109251095D01*
X127504666Y-109155857D01*
X127457047Y-109108238D01*
X127361809Y-109060619D01*
X127076095Y-109060619D01*
X126980857Y-109108238D01*
X126933238Y-109155857D01*
X126885619Y-109251095D01*
X126885619Y-109441571D01*
X126933238Y-109536809D01*
X126885619Y-108489190D02*
X126933238Y-108584428D01*
X126980857Y-108632047D01*
X127076095Y-108679666D01*
X127361809Y-108679666D01*
X127457047Y-108632047D01*
X127504666Y-108584428D01*
X127552285Y-108489190D01*
X127552285Y-108346333D01*
X127504666Y-108251095D01*
X127457047Y-108203476D01*
X127361809Y-108155857D01*
X127076095Y-108155857D01*
X126980857Y-108203476D01*
X126933238Y-108251095D01*
X126885619Y-108346333D01*
X126885619Y-108489190D01*
X126885619Y-107298714D02*
X127409428Y-107298714D01*
X127504666Y-107346333D01*
X127552285Y-107441571D01*
X127552285Y-107632047D01*
X127504666Y-107727285D01*
X126933238Y-107298714D02*
X126885619Y-107393952D01*
X126885619Y-107632047D01*
X126933238Y-107727285D01*
X127028476Y-107774904D01*
X127123714Y-107774904D01*
X127218952Y-107727285D01*
X127266571Y-107632047D01*
X127266571Y-107393952D01*
X127314190Y-107298714D01*
X126885619Y-106822523D02*
X127552285Y-106822523D01*
X127361809Y-106822523D02*
X127457047Y-106774904D01*
X127504666Y-106727285D01*
X127552285Y-106632047D01*
X127552285Y-106536809D01*
X126885619Y-105774904D02*
X127885619Y-105774904D01*
X126933238Y-105774904D02*
X126885619Y-105870142D01*
X126885619Y-106060619D01*
X126933238Y-106155857D01*
X126980857Y-106203476D01*
X127076095Y-106251095D01*
X127361809Y-106251095D01*
X127457047Y-106203476D01*
X127504666Y-106155857D01*
X127552285Y-106060619D01*
X127552285Y-105870142D01*
X127504666Y-105774904D01*
X126933238Y-105346333D02*
X126885619Y-105251095D01*
X126885619Y-105060619D01*
X126933238Y-104965380D01*
X127028476Y-104917761D01*
X127076095Y-104917761D01*
X127171333Y-104965380D01*
X127218952Y-105060619D01*
X127218952Y-105203476D01*
X127266571Y-105298714D01*
X127361809Y-105346333D01*
X127409428Y-105346333D01*
X127504666Y-105298714D01*
X127552285Y-105203476D01*
X127552285Y-105060619D01*
X127504666Y-104965380D01*
X126980857Y-104489190D02*
X126933238Y-104441571D01*
X126885619Y-104489190D01*
X126933238Y-104536809D01*
X126980857Y-104489190D01*
X126885619Y-104489190D01*
X126933238Y-103632047D02*
X126885619Y-103727285D01*
X126885619Y-103917761D01*
X126933238Y-104013000D01*
X127028476Y-104060619D01*
X127409428Y-104060619D01*
X127504666Y-104013000D01*
X127552285Y-103917761D01*
X127552285Y-103727285D01*
X127504666Y-103632047D01*
X127409428Y-103584428D01*
X127314190Y-103584428D01*
X127218952Y-104060619D01*
X126885619Y-103013000D02*
X126933238Y-103108238D01*
X127028476Y-103155857D01*
X127885619Y-103155857D01*
X126885619Y-102632047D02*
X127552285Y-102632047D01*
X127457047Y-102632047D02*
X127504666Y-102584428D01*
X127552285Y-102489190D01*
X127552285Y-102346333D01*
X127504666Y-102251095D01*
X127409428Y-102203476D01*
X126885619Y-102203476D01*
X127409428Y-102203476D02*
X127504666Y-102155857D01*
X127552285Y-102060619D01*
X127552285Y-101917761D01*
X127504666Y-101822523D01*
X127409428Y-101774904D01*
X126885619Y-101774904D01*
X126885619Y-101155857D02*
X126933238Y-101251095D01*
X126980857Y-101298714D01*
X127076095Y-101346333D01*
X127361809Y-101346333D01*
X127457047Y-101298714D01*
X127504666Y-101251095D01*
X127552285Y-101155857D01*
X127552285Y-101013000D01*
X127504666Y-100917761D01*
X127457047Y-100870142D01*
X127361809Y-100822523D01*
X127076095Y-100822523D01*
X126980857Y-100870142D01*
X126933238Y-100917761D01*
X126885619Y-101013000D01*
X126885619Y-101155857D01*
X126980857Y-100393952D02*
X126933238Y-100346333D01*
X126885619Y-100393952D01*
X126933238Y-100441571D01*
X126980857Y-100393952D01*
X126885619Y-100393952D01*
X126933238Y-99965380D02*
X126885619Y-99870142D01*
X126885619Y-99679666D01*
X126933238Y-99584428D01*
X127028476Y-99536809D01*
X127076095Y-99536809D01*
X127171333Y-99584428D01*
X127218952Y-99679666D01*
X127218952Y-99822523D01*
X127266571Y-99917761D01*
X127361809Y-99965380D01*
X127409428Y-99965380D01*
X127504666Y-99917761D01*
X127552285Y-99822523D01*
X127552285Y-99679666D01*
X127504666Y-99584428D01*
X127552285Y-99108238D02*
X126552285Y-99108238D01*
X127504666Y-99108238D02*
X127552285Y-99013000D01*
X127552285Y-98822523D01*
X127504666Y-98727285D01*
X127457047Y-98679666D01*
X127361809Y-98632047D01*
X127076095Y-98632047D01*
X126980857Y-98679666D01*
X126933238Y-98727285D01*
X126885619Y-98822523D01*
X126885619Y-99013000D01*
X126933238Y-99108238D01*
X126885619Y-97774904D02*
X127409428Y-97774904D01*
X127504666Y-97822523D01*
X127552285Y-97917761D01*
X127552285Y-98108238D01*
X127504666Y-98203476D01*
X126933238Y-97774904D02*
X126885619Y-97870142D01*
X126885619Y-98108238D01*
X126933238Y-98203476D01*
X127028476Y-98251095D01*
X127123714Y-98251095D01*
X127218952Y-98203476D01*
X127266571Y-98108238D01*
X127266571Y-97870142D01*
X127314190Y-97774904D01*
X126933238Y-96870142D02*
X126885619Y-96965380D01*
X126885619Y-97155857D01*
X126933238Y-97251095D01*
X126980857Y-97298714D01*
X127076095Y-97346333D01*
X127361809Y-97346333D01*
X127457047Y-97298714D01*
X127504666Y-97251095D01*
X127552285Y-97155857D01*
X127552285Y-96965380D01*
X127504666Y-96870142D01*
X126933238Y-96060619D02*
X126885619Y-96155857D01*
X126885619Y-96346333D01*
X126933238Y-96441571D01*
X127028476Y-96489190D01*
X127409428Y-96489190D01*
X127504666Y-96441571D01*
X127552285Y-96346333D01*
X127552285Y-96155857D01*
X127504666Y-96060619D01*
X127409428Y-96013000D01*
X127314190Y-96013000D01*
X127218952Y-96489190D01*
X145978380Y-119197380D02*
X146311714Y-118721190D01*
X146549809Y-119197380D02*
X146549809Y-118197380D01*
X146168857Y-118197380D01*
X146073619Y-118245000D01*
X146026000Y-118292619D01*
X145978380Y-118387857D01*
X145978380Y-118530714D01*
X146026000Y-118625952D01*
X146073619Y-118673571D01*
X146168857Y-118721190D01*
X146549809Y-118721190D01*
X145549809Y-118673571D02*
X145216476Y-118673571D01*
X145073619Y-119197380D02*
X145549809Y-119197380D01*
X145549809Y-118197380D01*
X145073619Y-118197380D01*
X144692666Y-119149761D02*
X144549809Y-119197380D01*
X144311714Y-119197380D01*
X144216476Y-119149761D01*
X144168857Y-119102142D01*
X144121238Y-119006904D01*
X144121238Y-118911666D01*
X144168857Y-118816428D01*
X144216476Y-118768809D01*
X144311714Y-118721190D01*
X144502190Y-118673571D01*
X144597428Y-118625952D01*
X144645047Y-118578333D01*
X144692666Y-118483095D01*
X144692666Y-118387857D01*
X144645047Y-118292619D01*
X144597428Y-118245000D01*
X144502190Y-118197380D01*
X144264095Y-118197380D01*
X144121238Y-118245000D01*
X143692666Y-118673571D02*
X143359333Y-118673571D01*
X143216476Y-119197380D02*
X143692666Y-119197380D01*
X143692666Y-118197380D01*
X143216476Y-118197380D01*
X142930761Y-118197380D02*
X142359333Y-118197380D01*
X142645047Y-119197380D02*
X142645047Y-118197380D01*
X142152666Y-95353142D02*
X142200285Y-95400761D01*
X142343142Y-95448380D01*
X142438380Y-95448380D01*
X142581238Y-95400761D01*
X142676476Y-95305523D01*
X142724095Y-95210285D01*
X142771714Y-95019809D01*
X142771714Y-94876952D01*
X142724095Y-94686476D01*
X142676476Y-94591238D01*
X142581238Y-94496000D01*
X142438380Y-94448380D01*
X142343142Y-94448380D01*
X142200285Y-94496000D01*
X142152666Y-94543619D01*
X141200285Y-95448380D02*
X141771714Y-95448380D01*
X141486000Y-95448380D02*
X141486000Y-94448380D01*
X141581238Y-94591238D01*
X141676476Y-94686476D01*
X141771714Y-94734095D01*
X158103866Y-101601542D02*
X158151485Y-101649161D01*
X158294342Y-101696780D01*
X158389580Y-101696780D01*
X158532438Y-101649161D01*
X158627676Y-101553923D01*
X158675295Y-101458685D01*
X158722914Y-101268209D01*
X158722914Y-101125352D01*
X158675295Y-100934876D01*
X158627676Y-100839638D01*
X158532438Y-100744400D01*
X158389580Y-100696780D01*
X158294342Y-100696780D01*
X158151485Y-100744400D01*
X158103866Y-100792019D01*
X157246723Y-100696780D02*
X157437200Y-100696780D01*
X157532438Y-100744400D01*
X157580057Y-100792019D01*
X157675295Y-100934876D01*
X157722914Y-101125352D01*
X157722914Y-101506304D01*
X157675295Y-101601542D01*
X157627676Y-101649161D01*
X157532438Y-101696780D01*
X157341961Y-101696780D01*
X157246723Y-101649161D01*
X157199104Y-101601542D01*
X157151485Y-101506304D01*
X157151485Y-101268209D01*
X157199104Y-101172971D01*
X157246723Y-101125352D01*
X157341961Y-101077733D01*
X157532438Y-101077733D01*
X157627676Y-101125352D01*
X157675295Y-101172971D01*
X157722914Y-101268209D01*
X147970833Y-92575071D02*
X148304166Y-92575071D01*
X148304166Y-93098880D02*
X148304166Y-92098880D01*
X147827976Y-92098880D01*
X146923214Y-93098880D02*
X147494642Y-93098880D01*
X147208928Y-93098880D02*
X147208928Y-92098880D01*
X147304166Y-92241738D01*
X147399404Y-92336976D01*
X147494642Y-92384595D01*
X130373380Y-91908333D02*
X129897190Y-91575000D01*
X130373380Y-91336904D02*
X129373380Y-91336904D01*
X129373380Y-91717857D01*
X129421000Y-91813095D01*
X129468619Y-91860714D01*
X129563857Y-91908333D01*
X129706714Y-91908333D01*
X129801952Y-91860714D01*
X129849571Y-91813095D01*
X129897190Y-91717857D01*
X129897190Y-91336904D01*
X130373380Y-92860714D02*
X130373380Y-92289285D01*
X130373380Y-92575000D02*
X129373380Y-92575000D01*
X129516238Y-92479761D01*
X129611476Y-92384523D01*
X129659095Y-92289285D01*
X128722380Y-91908333D02*
X128246190Y-91575000D01*
X128722380Y-91336904D02*
X127722380Y-91336904D01*
X127722380Y-91717857D01*
X127770000Y-91813095D01*
X127817619Y-91860714D01*
X127912857Y-91908333D01*
X128055714Y-91908333D01*
X128150952Y-91860714D01*
X128198571Y-91813095D01*
X128246190Y-91717857D01*
X128246190Y-91336904D01*
X127817619Y-92289285D02*
X127770000Y-92336904D01*
X127722380Y-92432142D01*
X127722380Y-92670238D01*
X127770000Y-92765476D01*
X127817619Y-92813095D01*
X127912857Y-92860714D01*
X128008095Y-92860714D01*
X128150952Y-92813095D01*
X128722380Y-92241666D01*
X128722380Y-92860714D01*
X158154666Y-103195380D02*
X158488000Y-102719190D01*
X158726095Y-103195380D02*
X158726095Y-102195380D01*
X158345142Y-102195380D01*
X158249904Y-102243000D01*
X158202285Y-102290619D01*
X158154666Y-102385857D01*
X158154666Y-102528714D01*
X158202285Y-102623952D01*
X158249904Y-102671571D01*
X158345142Y-102719190D01*
X158726095Y-102719190D01*
X157821333Y-102195380D02*
X157202285Y-102195380D01*
X157535619Y-102576333D01*
X157392761Y-102576333D01*
X157297523Y-102623952D01*
X157249904Y-102671571D01*
X157202285Y-102766809D01*
X157202285Y-103004904D01*
X157249904Y-103100142D01*
X157297523Y-103147761D01*
X157392761Y-103195380D01*
X157678476Y-103195380D01*
X157773714Y-103147761D01*
X157821333Y-103100142D01*
X158154666Y-104846380D02*
X158488000Y-104370190D01*
X158726095Y-104846380D02*
X158726095Y-103846380D01*
X158345142Y-103846380D01*
X158249904Y-103894000D01*
X158202285Y-103941619D01*
X158154666Y-104036857D01*
X158154666Y-104179714D01*
X158202285Y-104274952D01*
X158249904Y-104322571D01*
X158345142Y-104370190D01*
X158726095Y-104370190D01*
X157297523Y-104179714D02*
X157297523Y-104846380D01*
X157535619Y-103798761D02*
X157773714Y-104513047D01*
X157154666Y-104513047D01*
X136437666Y-99893380D02*
X136771000Y-99417190D01*
X137009095Y-99893380D02*
X137009095Y-98893380D01*
X136628142Y-98893380D01*
X136532904Y-98941000D01*
X136485285Y-98988619D01*
X136437666Y-99083857D01*
X136437666Y-99226714D01*
X136485285Y-99321952D01*
X136532904Y-99369571D01*
X136628142Y-99417190D01*
X137009095Y-99417190D01*
X135532904Y-98893380D02*
X136009095Y-98893380D01*
X136056714Y-99369571D01*
X136009095Y-99321952D01*
X135913857Y-99274333D01*
X135675761Y-99274333D01*
X135580523Y-99321952D01*
X135532904Y-99369571D01*
X135485285Y-99464809D01*
X135485285Y-99702904D01*
X135532904Y-99798142D01*
X135580523Y-99845761D01*
X135675761Y-99893380D01*
X135913857Y-99893380D01*
X136009095Y-99845761D01*
X136056714Y-99798142D01*
X146502380Y-115911333D02*
X146026190Y-115578000D01*
X146502380Y-115339904D02*
X145502380Y-115339904D01*
X145502380Y-115720857D01*
X145550000Y-115816095D01*
X145597619Y-115863714D01*
X145692857Y-115911333D01*
X145835714Y-115911333D01*
X145930952Y-115863714D01*
X145978571Y-115816095D01*
X146026190Y-115720857D01*
X146026190Y-115339904D01*
X145502380Y-116768476D02*
X145502380Y-116578000D01*
X145550000Y-116482761D01*
X145597619Y-116435142D01*
X145740476Y-116339904D01*
X145930952Y-116292285D01*
X146311904Y-116292285D01*
X146407142Y-116339904D01*
X146454761Y-116387523D01*
X146502380Y-116482761D01*
X146502380Y-116673238D01*
X146454761Y-116768476D01*
X146407142Y-116816095D01*
X146311904Y-116863714D01*
X146073809Y-116863714D01*
X145978571Y-116816095D01*
X145930952Y-116768476D01*
X145883333Y-116673238D01*
X145883333Y-116482761D01*
X145930952Y-116387523D01*
X145978571Y-116339904D01*
X146073809Y-116292285D01*
X141422380Y-91781333D02*
X140946190Y-91448000D01*
X141422380Y-91209904D02*
X140422380Y-91209904D01*
X140422380Y-91590857D01*
X140470000Y-91686095D01*
X140517619Y-91733714D01*
X140612857Y-91781333D01*
X140755714Y-91781333D01*
X140850952Y-91733714D01*
X140898571Y-91686095D01*
X140946190Y-91590857D01*
X140946190Y-91209904D01*
X141422380Y-92257523D02*
X141422380Y-92448000D01*
X141374761Y-92543238D01*
X141327142Y-92590857D01*
X141184285Y-92686095D01*
X140993809Y-92733714D01*
X140612857Y-92733714D01*
X140517619Y-92686095D01*
X140470000Y-92638476D01*
X140422380Y-92543238D01*
X140422380Y-92352761D01*
X140470000Y-92257523D01*
X140517619Y-92209904D01*
X140612857Y-92162285D01*
X140850952Y-92162285D01*
X140946190Y-92209904D01*
X140993809Y-92257523D01*
X141041428Y-92352761D01*
X141041428Y-92543238D01*
X140993809Y-92638476D01*
X140946190Y-92686095D01*
X140850952Y-92733714D01*
X143509904Y-102004880D02*
X143509904Y-102814404D01*
X143462285Y-102909642D01*
X143414666Y-102957261D01*
X143319428Y-103004880D01*
X143128952Y-103004880D01*
X143033714Y-102957261D01*
X142986095Y-102909642D01*
X142938476Y-102814404D01*
X142938476Y-102004880D01*
X141938476Y-103004880D02*
X142509904Y-103004880D01*
X142224190Y-103004880D02*
X142224190Y-102004880D01*
X142319428Y-102147738D01*
X142414666Y-102242976D01*
X142509904Y-102290595D01*
X157631522Y-86323026D02*
X158203942Y-86895446D01*
X158237614Y-86996461D01*
X158237614Y-87063805D01*
X158203942Y-87164820D01*
X158069255Y-87299507D01*
X157968240Y-87333179D01*
X157900896Y-87333179D01*
X157799881Y-87299507D01*
X157227461Y-86727087D01*
X156991759Y-87097477D02*
X156924416Y-87097477D01*
X156823400Y-87131148D01*
X156655042Y-87299507D01*
X156621370Y-87400522D01*
X156621370Y-87467866D01*
X156655042Y-87568881D01*
X156722385Y-87636225D01*
X156857072Y-87703568D01*
X157665194Y-87703568D01*
X157227461Y-88141301D01*
X146200595Y-83272380D02*
X146200595Y-84081904D01*
X146152976Y-84177142D01*
X146105357Y-84224761D01*
X146010119Y-84272380D01*
X145819642Y-84272380D01*
X145724404Y-84224761D01*
X145676785Y-84177142D01*
X145629166Y-84081904D01*
X145629166Y-83272380D01*
X145200595Y-84224761D02*
X145057738Y-84272380D01*
X144819642Y-84272380D01*
X144724404Y-84224761D01*
X144676785Y-84177142D01*
X144629166Y-84081904D01*
X144629166Y-83986666D01*
X144676785Y-83891428D01*
X144724404Y-83843809D01*
X144819642Y-83796190D01*
X145010119Y-83748571D01*
X145105357Y-83700952D01*
X145152976Y-83653333D01*
X145200595Y-83558095D01*
X145200595Y-83462857D01*
X145152976Y-83367619D01*
X145105357Y-83320000D01*
X145010119Y-83272380D01*
X144772023Y-83272380D01*
X144629166Y-83320000D01*
X143867261Y-83748571D02*
X143724404Y-83796190D01*
X143676785Y-83843809D01*
X143629166Y-83939047D01*
X143629166Y-84081904D01*
X143676785Y-84177142D01*
X143724404Y-84224761D01*
X143819642Y-84272380D01*
X144200595Y-84272380D01*
X144200595Y-83272380D01*
X143867261Y-83272380D01*
X143772023Y-83320000D01*
X143724404Y-83367619D01*
X143676785Y-83462857D01*
X143676785Y-83558095D01*
X143724404Y-83653333D01*
X143772023Y-83700952D01*
X143867261Y-83748571D01*
X144200595Y-83748571D01*
X142676785Y-84272380D02*
X143248214Y-84272380D01*
X142962500Y-84272380D02*
X142962500Y-83272380D01*
X143057738Y-83415238D01*
X143152976Y-83510476D01*
X143248214Y-83558095D01*
X132175238Y-106973619D02*
X132270476Y-106926000D01*
X132365714Y-106830761D01*
X132508571Y-106687904D01*
X132603809Y-106640285D01*
X132699047Y-106640285D01*
X132651428Y-106878380D02*
X132746666Y-106830761D01*
X132841904Y-106735523D01*
X132889523Y-106545047D01*
X132889523Y-106211714D01*
X132841904Y-106021238D01*
X132746666Y-105926000D01*
X132651428Y-105878380D01*
X132460952Y-105878380D01*
X132365714Y-105926000D01*
X132270476Y-106021238D01*
X132222857Y-106211714D01*
X132222857Y-106545047D01*
X132270476Y-106735523D01*
X132365714Y-106830761D01*
X132460952Y-106878380D01*
X132651428Y-106878380D01*
X131270476Y-106878380D02*
X131841904Y-106878380D01*
X131556190Y-106878380D02*
X131556190Y-105878380D01*
X131651428Y-106021238D01*
X131746666Y-106116476D01*
X131841904Y-106164095D01*
X133897666Y-103068380D02*
X134231000Y-102592190D01*
X134469095Y-103068380D02*
X134469095Y-102068380D01*
X134088142Y-102068380D01*
X133992904Y-102116000D01*
X133945285Y-102163619D01*
X133897666Y-102258857D01*
X133897666Y-102401714D01*
X133945285Y-102496952D01*
X133992904Y-102544571D01*
X134088142Y-102592190D01*
X134469095Y-102592190D01*
X133564333Y-102068380D02*
X132897666Y-102068380D01*
X133326238Y-103068380D01*
X136437666Y-106149380D02*
X136771000Y-105673190D01*
X137009095Y-106149380D02*
X137009095Y-105149380D01*
X136628142Y-105149380D01*
X136532904Y-105197000D01*
X136485285Y-105244619D01*
X136437666Y-105339857D01*
X136437666Y-105482714D01*
X136485285Y-105577952D01*
X136532904Y-105625571D01*
X136628142Y-105673190D01*
X137009095Y-105673190D01*
X135866238Y-105577952D02*
X135961476Y-105530333D01*
X136009095Y-105482714D01*
X136056714Y-105387476D01*
X136056714Y-105339857D01*
X136009095Y-105244619D01*
X135961476Y-105197000D01*
X135866238Y-105149380D01*
X135675761Y-105149380D01*
X135580523Y-105197000D01*
X135532904Y-105244619D01*
X135485285Y-105339857D01*
X135485285Y-105387476D01*
X135532904Y-105482714D01*
X135580523Y-105530333D01*
X135675761Y-105577952D01*
X135866238Y-105577952D01*
X135961476Y-105625571D01*
X136009095Y-105673190D01*
X136056714Y-105768428D01*
X136056714Y-105958904D01*
X136009095Y-106054142D01*
X135961476Y-106101761D01*
X135866238Y-106149380D01*
X135675761Y-106149380D01*
X135580523Y-106101761D01*
X135532904Y-106054142D01*
X135485285Y-105958904D01*
X135485285Y-105768428D01*
X135532904Y-105673190D01*
X135580523Y-105625571D01*
X135675761Y-105577952D01*
X159202380Y-91368642D02*
X158726190Y-91035309D01*
X159202380Y-90797214D02*
X158202380Y-90797214D01*
X158202380Y-91178166D01*
X158250000Y-91273404D01*
X158297619Y-91321023D01*
X158392857Y-91368642D01*
X158535714Y-91368642D01*
X158630952Y-91321023D01*
X158678571Y-91273404D01*
X158726190Y-91178166D01*
X158726190Y-90797214D01*
X159202380Y-92321023D02*
X159202380Y-91749595D01*
X159202380Y-92035309D02*
X158202380Y-92035309D01*
X158345238Y-91940071D01*
X158440476Y-91844833D01*
X158488095Y-91749595D01*
X158202380Y-92940071D02*
X158202380Y-93035309D01*
X158250000Y-93130547D01*
X158297619Y-93178166D01*
X158392857Y-93225785D01*
X158583333Y-93273404D01*
X158821428Y-93273404D01*
X159011904Y-93225785D01*
X159107142Y-93178166D01*
X159154761Y-93130547D01*
X159202380Y-93035309D01*
X159202380Y-92940071D01*
X159154761Y-92844833D01*
X159107142Y-92797214D01*
X159011904Y-92749595D01*
X158821428Y-92701976D01*
X158583333Y-92701976D01*
X158392857Y-92749595D01*
X158297619Y-92797214D01*
X158250000Y-92844833D01*
X158202380Y-92940071D01*
X137866380Y-110355142D02*
X137390190Y-110021809D01*
X137866380Y-109783714D02*
X136866380Y-109783714D01*
X136866380Y-110164666D01*
X136914000Y-110259904D01*
X136961619Y-110307523D01*
X137056857Y-110355142D01*
X137199714Y-110355142D01*
X137294952Y-110307523D01*
X137342571Y-110259904D01*
X137390190Y-110164666D01*
X137390190Y-109783714D01*
X137866380Y-111307523D02*
X137866380Y-110736095D01*
X137866380Y-111021809D02*
X136866380Y-111021809D01*
X137009238Y-110926571D01*
X137104476Y-110831333D01*
X137152095Y-110736095D01*
X137866380Y-112259904D02*
X137866380Y-111688476D01*
X137866380Y-111974190D02*
X136866380Y-111974190D01*
X137009238Y-111878952D01*
X137104476Y-111783714D01*
X137152095Y-111688476D01*
X160218380Y-109720142D02*
X159742190Y-109386809D01*
X160218380Y-109148714D02*
X159218380Y-109148714D01*
X159218380Y-109529666D01*
X159266000Y-109624904D01*
X159313619Y-109672523D01*
X159408857Y-109720142D01*
X159551714Y-109720142D01*
X159646952Y-109672523D01*
X159694571Y-109624904D01*
X159742190Y-109529666D01*
X159742190Y-109148714D01*
X160218380Y-110672523D02*
X160218380Y-110101095D01*
X160218380Y-110386809D02*
X159218380Y-110386809D01*
X159361238Y-110291571D01*
X159456476Y-110196333D01*
X159504095Y-110101095D01*
X159313619Y-111053476D02*
X159266000Y-111101095D01*
X159218380Y-111196333D01*
X159218380Y-111434428D01*
X159266000Y-111529666D01*
X159313619Y-111577285D01*
X159408857Y-111624904D01*
X159504095Y-111624904D01*
X159646952Y-111577285D01*
X160218380Y-111005857D01*
X160218380Y-111624904D01*
X141962142Y-112863333D02*
X142009761Y-112815714D01*
X142057380Y-112672857D01*
X142057380Y-112577619D01*
X142009761Y-112434761D01*
X141914523Y-112339523D01*
X141819285Y-112291904D01*
X141628809Y-112244285D01*
X141485952Y-112244285D01*
X141295476Y-112291904D01*
X141200238Y-112339523D01*
X141105000Y-112434761D01*
X141057380Y-112577619D01*
X141057380Y-112672857D01*
X141105000Y-112815714D01*
X141152619Y-112863333D01*
X141057380Y-113768095D02*
X141057380Y-113291904D01*
X141533571Y-113244285D01*
X141485952Y-113291904D01*
X141438333Y-113387142D01*
X141438333Y-113625238D01*
X141485952Y-113720476D01*
X141533571Y-113768095D01*
X141628809Y-113815714D01*
X141866904Y-113815714D01*
X141962142Y-113768095D01*
X142009761Y-113720476D01*
X142057380Y-113625238D01*
X142057380Y-113387142D01*
X142009761Y-113291904D01*
X141962142Y-113244285D01*
X147677142Y-112863333D02*
X147724761Y-112815714D01*
X147772380Y-112672857D01*
X147772380Y-112577619D01*
X147724761Y-112434761D01*
X147629523Y-112339523D01*
X147534285Y-112291904D01*
X147343809Y-112244285D01*
X147200952Y-112244285D01*
X147010476Y-112291904D01*
X146915238Y-112339523D01*
X146820000Y-112434761D01*
X146772380Y-112577619D01*
X146772380Y-112672857D01*
X146820000Y-112815714D01*
X146867619Y-112863333D01*
X147105714Y-113720476D02*
X147772380Y-113720476D01*
X146724761Y-113482380D02*
X147439047Y-113244285D01*
X147439047Y-113863333D01*
X145208523Y-112609380D02*
X144541857Y-113609380D01*
X144541857Y-112609380D02*
X145208523Y-113609380D01*
X143637095Y-113609380D02*
X144208523Y-113609380D01*
X143922809Y-113609380D02*
X143922809Y-112609380D01*
X144018047Y-112752238D01*
X144113285Y-112847476D01*
X144208523Y-112895095D01*
D12*
X146633500Y-119653500D02*
X146633500Y-121773500D01*
X144573500Y-119653500D02*
X146633500Y-119653500D01*
X144573500Y-121773500D02*
X146633500Y-121773500D01*
X144573500Y-119653500D02*
X144573500Y-121773500D01*
X143573500Y-119653500D02*
X142513500Y-119653500D01*
X142513500Y-119653500D02*
X142513500Y-120713500D01*
X144603080Y-94422500D02*
X144321920Y-94422500D01*
X144603080Y-95442500D02*
X144321920Y-95442500D01*
X155180420Y-101729000D02*
X155461580Y-101729000D01*
X155180420Y-100709000D02*
X155461580Y-100709000D01*
X145064564Y-91736500D02*
X143860436Y-91736500D01*
X145064564Y-93556500D02*
X143860436Y-93556500D01*
X130380000Y-89772258D02*
X130380000Y-89297742D01*
X129335000Y-89772258D02*
X129335000Y-89297742D01*
X127620500Y-89772258D02*
X127620500Y-89297742D01*
X128665500Y-89772258D02*
X128665500Y-89297742D01*
X155558258Y-103329000D02*
X155083742Y-103329000D01*
X155558258Y-102284000D02*
X155083742Y-102284000D01*
X155558258Y-103871500D02*
X155083742Y-103871500D01*
X155558258Y-104916500D02*
X155083742Y-104916500D01*
X136033742Y-101487500D02*
X136508258Y-101487500D01*
X136033742Y-100442500D02*
X136508258Y-100442500D01*
X143940000Y-115807258D02*
X143940000Y-115332742D01*
X144985000Y-115807258D02*
X144985000Y-115332742D01*
X139778000Y-91613758D02*
X139778000Y-91139242D01*
X138733000Y-91613758D02*
X138733000Y-91139242D01*
D11*
X140837500Y-106177500D02*
X141162500Y-106177500D01*
X148087500Y-98927500D02*
X147762500Y-98927500D01*
X140837500Y-98927500D02*
X141162500Y-98927500D01*
X140837500Y-106177500D02*
X140837500Y-105852500D01*
X140837500Y-98927500D02*
X140837500Y-99252500D01*
X148087500Y-106177500D02*
X147862500Y-106177500D01*
X148087500Y-106177500D02*
X148087500Y-105852500D01*
X148087500Y-98927500D02*
X148087500Y-99252500D01*
X147862500Y-106177500D02*
X147862500Y-107602500D01*
D12*
X158673844Y-87521979D02*
X158108159Y-88087665D01*
X160880018Y-89728153D02*
X159607225Y-91000945D01*
X158673844Y-87521979D02*
X159239530Y-86956294D01*
X160880018Y-89728153D02*
X161445703Y-89162467D01*
X149226000Y-85720000D02*
X149226000Y-83720000D01*
X139826000Y-81820000D02*
X139826000Y-79920000D01*
X139826000Y-79920000D02*
X149226000Y-79920000D01*
X139826000Y-85720000D02*
X139826000Y-83720000D01*
X149226000Y-81820000D02*
X149226000Y-79920000D01*
X132080000Y-102389500D02*
X133755000Y-102389500D01*
X132080000Y-105509500D02*
X131430000Y-105509500D01*
X132080000Y-105509500D02*
X132730000Y-105509500D01*
X132080000Y-102389500D02*
X131430000Y-102389500D01*
X136508258Y-102093500D02*
X136033742Y-102093500D01*
X136508258Y-103138500D02*
X136033742Y-103138500D01*
X136033742Y-104789500D02*
X136508258Y-104789500D01*
X136033742Y-103744500D02*
X136508258Y-103744500D01*
X156640000Y-92248758D02*
X156640000Y-91774242D01*
X157685000Y-92248758D02*
X157685000Y-91774242D01*
X138479000Y-110727258D02*
X138479000Y-110252742D01*
X139524000Y-110727258D02*
X139524000Y-110252742D01*
X157592500Y-110600258D02*
X157592500Y-110125742D01*
X158637500Y-110600258D02*
X158637500Y-110125742D01*
X141861000Y-110361411D02*
X141861000Y-110642571D01*
X140841000Y-110361411D02*
X140841000Y-110642571D01*
X147127500Y-110630580D02*
X147127500Y-110349420D01*
X148147500Y-110630580D02*
X148147500Y-110349420D01*
X146489702Y-112176490D02*
X142489702Y-112176490D01*
X146489702Y-108876490D02*
X146489702Y-112176490D01*
%LPC*%
D13*
X143573500Y-120713500D03*
D14*
X145573500Y-120713500D03*
D15*
X129857500Y-94456250D03*
D16*
X134937500Y-94456250D03*
D15*
X140017500Y-94456250D03*
D17*
X138747500Y-96996250D03*
X132397500Y-99536250D03*
D18*
X136207500Y-89376250D03*
D19*
X133667500Y-89376250D03*
D16*
X153987500Y-94456250D03*
D15*
X159067500Y-94456250D03*
X148907500Y-94456250D03*
D17*
X157797500Y-96996250D03*
X151447500Y-99536250D03*
D18*
X155257500Y-89376250D03*
D19*
X152717500Y-89376250D03*
D16*
X134937500Y-113506250D03*
D15*
X140017500Y-113506250D03*
X129857500Y-113506250D03*
D17*
X138747500Y-116046250D03*
X132397500Y-118586250D03*
D18*
X136207500Y-108426250D03*
D19*
X133667500Y-108426250D03*
D15*
X148907500Y-113506250D03*
D16*
X153987500Y-113506250D03*
D15*
X159067500Y-113506250D03*
D17*
X157797500Y-116046250D03*
X151447500Y-118586250D03*
D18*
X155257500Y-108426250D03*
D19*
X152717500Y-108426250D03*
D20*
X145237500Y-94932500D03*
X143687500Y-94932500D03*
D21*
X154546000Y-101219000D03*
X156096000Y-101219000D03*
D22*
X145862500Y-92646500D03*
X143062500Y-92646500D03*
D23*
X129857500Y-90360000D03*
X129857500Y-88710000D03*
X128143000Y-90360000D03*
X128143000Y-88710000D03*
D24*
X156146000Y-102806500D03*
X154496000Y-102806500D03*
X156146000Y-104394000D03*
X154496000Y-104394000D03*
D25*
X135446000Y-100965000D03*
X137096000Y-100965000D03*
D23*
X144462500Y-116395000D03*
X144462500Y-114745000D03*
X139255500Y-92201500D03*
X139255500Y-90551500D03*
D26*
X147262500Y-106802500D03*
X146462500Y-106802500D03*
X145662500Y-106802500D03*
X144862500Y-106802500D03*
X144062500Y-106802500D03*
X143262500Y-106802500D03*
X142462500Y-106802500D03*
X141662500Y-106802500D03*
D27*
X140212500Y-105352500D03*
X140212500Y-104552500D03*
X140212500Y-103752500D03*
X140212500Y-102952500D03*
X140212500Y-102152500D03*
X140212500Y-101352500D03*
X140212500Y-100552500D03*
X140212500Y-99752500D03*
D26*
X141662500Y-98302500D03*
X142462500Y-98302500D03*
X143262500Y-98302500D03*
X144062500Y-98302500D03*
X144862500Y-98302500D03*
X145662500Y-98302500D03*
X146462500Y-98302500D03*
X147262500Y-98302500D03*
D27*
X148712500Y-99752500D03*
X148712500Y-100552500D03*
X148712500Y-101352500D03*
X148712500Y-102152500D03*
X148712500Y-102952500D03*
X148712500Y-103752500D03*
X148712500Y-104552500D03*
X148712500Y-105352500D03*
D28*
X159644348Y-90101151D03*
X158972597Y-89429400D03*
X158300846Y-88757649D03*
X159909514Y-87148981D03*
X160581265Y-87820732D03*
X161253016Y-88492483D03*
D29*
X141636000Y-86420000D03*
X147416000Y-86420000D03*
D30*
X141276000Y-87865000D03*
X142076000Y-87865000D03*
D31*
X143276000Y-87865000D03*
X144276000Y-87865000D03*
X144776000Y-87865000D03*
X145776000Y-87865000D03*
D30*
X146976000Y-87865000D03*
X147776000Y-87865000D03*
X147776000Y-87865000D03*
X146976000Y-87865000D03*
D31*
X146276000Y-87865000D03*
X145276000Y-87865000D03*
X143776000Y-87865000D03*
X142776000Y-87865000D03*
D30*
X142076000Y-87865000D03*
X141276000Y-87865000D03*
D32*
X140206000Y-82770000D03*
D33*
X148846000Y-86950000D03*
D32*
X148846000Y-82770000D03*
D33*
X140206000Y-86950000D03*
D34*
X133017500Y-102999500D03*
X133017500Y-104899500D03*
X131142500Y-103949500D03*
D24*
X137096000Y-102616000D03*
X135446000Y-102616000D03*
D25*
X135446000Y-104267000D03*
X137096000Y-104267000D03*
D23*
X157162500Y-92836500D03*
X157162500Y-91186500D03*
X139001500Y-111315000D03*
X139001500Y-109665000D03*
X158115000Y-111188000D03*
X158115000Y-109538000D03*
D35*
X141351000Y-109726991D03*
X141351000Y-111276991D03*
D36*
X147637500Y-111265000D03*
X147637500Y-109715000D03*
D37*
X145589702Y-111376490D03*
X143389702Y-111376490D03*
X143389702Y-109676490D03*
X145589702Y-109676490D03*
M02*
