M48
; DRILL file {KiCad (6.0.0)} date Fri Jan 14 23:04:15 2022
; FORMAT={-:-/ absolute / metric / decimal}
; #@! TF.CreationDate,2022-01-14T23:04:15+01:00
; #@! TF.GenerationSoftware,Kicad,Pcbnew,(6.0.0)
; #@! TF.FileFunction,Plated,1,2,PTH
FMAT,2
METRIC
; #@! TA.AperFunction,Plated,PTH,ViaDrill
T1C0.400
; #@! TA.AperFunction,Plated,PTH,ComponentDrill
T2C0.600
; #@! TA.AperFunction,Plated,PTH,ComponentDrill
T3C0.800
; #@! TA.AperFunction,Plated,PTH,ComponentDrill
T4C1.040
; #@! TA.AperFunction,Plated,PTH,ComponentDrill
T5C1.470
%
G90
G05
T1
X135.445Y-105.6
X138.367Y-102.616
X140.208Y-106.934
X142.049Y-90.106
X142.621Y-116.522
X143.827Y-85.534
X144.844Y-100.203
X144.844Y-102.933
X144.844Y-104.838
X145.844Y-100.203
X145.923Y-114.744
X146.24Y-86.296
X146.685Y-94.932
X147.002Y-90.17
X148.717Y-106.997
X148.78Y-98.234
X150.876Y-92.456
X152.337Y-105.156
X161.607Y-86.804
T3
X143.573Y-120.713
X145.573Y-120.713
T4
X133.667Y-89.376
X133.667Y-108.426
X136.207Y-89.376
X136.207Y-108.426
X152.718Y-89.376
X152.718Y-108.426
X155.257Y-89.376
X155.257Y-108.426
T5
X132.398Y-99.536
X132.398Y-118.586
X138.748Y-96.996
X138.748Y-116.046
X151.447Y-99.536
X151.447Y-118.586
X157.797Y-96.996
X157.797Y-116.046
T2
X140.206Y-82.47G85X140.206Y-83.07
G05
X140.206Y-86.4G85X140.206Y-87.5
G05
X148.846Y-82.47G85X148.846Y-83.07
G05
X148.846Y-86.4G85X148.846Y-87.5
G05
T0
M30
