G04 #@! TF.GenerationSoftware,KiCad,Pcbnew,(6.0.0)*
G04 #@! TF.CreationDate,2022-01-14T23:04:14+01:00*
G04 #@! TF.ProjectId,pos,706f732e-6b69-4636-9164-5f7063625858,rev?*
G04 #@! TF.SameCoordinates,Original*
G04 #@! TF.FileFunction,Copper,L1,Top*
G04 #@! TF.FilePolarity,Positive*
%FSLAX46Y46*%
G04 Gerber Fmt 4.6, Leading zero omitted, Abs format (unit mm)*
G04 Created by KiCad (PCBNEW (6.0.0)) date 2022-01-14 23:04:14*
%MOMM*%
%LPD*%
G01*
G04 APERTURE LIST*
G04 #@! TA.AperFunction,ComponentPad*
%ADD10R,1.350000X1.350000*%
G04 #@! TD*
G04 #@! TA.AperFunction,ComponentPad*
%ADD11O,1.350000X1.350000*%
G04 #@! TD*
G04 #@! TA.AperFunction,ComponentPad*
%ADD12C,2.250000*%
G04 #@! TD*
G04 #@! TA.AperFunction,ComponentPad*
%ADD13C,1.905000*%
G04 #@! TD*
G04 #@! TA.AperFunction,ComponentPad*
%ADD14R,1.905000X1.905000*%
G04 #@! TD*
G04 #@! TA.AperFunction,ComponentPad*
%ADD15O,1.000000X1.600000*%
G04 #@! TD*
G04 #@! TA.AperFunction,ComponentPad*
%ADD16O,1.000000X2.100000*%
G04 #@! TD*
G04 #@! TA.AperFunction,ViaPad*
%ADD17C,0.800000*%
G04 #@! TD*
G04 #@! TA.AperFunction,Conductor*
%ADD18C,0.500000*%
G04 #@! TD*
G04 #@! TA.AperFunction,Conductor*
%ADD19C,0.250000*%
G04 #@! TD*
G04 APERTURE END LIST*
D10*
X143573500Y-120713500D03*
D11*
X145573500Y-120713500D03*
D12*
X138747500Y-96996250D03*
X132397500Y-99536250D03*
D13*
X136207500Y-89376250D03*
D14*
X133667500Y-89376250D03*
D12*
X157797500Y-96996250D03*
X151447500Y-99536250D03*
D13*
X155257500Y-89376250D03*
D14*
X152717500Y-89376250D03*
D12*
X138747500Y-116046250D03*
X132397500Y-118586250D03*
D13*
X136207500Y-108426250D03*
D14*
X133667500Y-108426250D03*
D12*
X157797500Y-116046250D03*
X151447500Y-118586250D03*
D13*
X155257500Y-108426250D03*
D14*
X152717500Y-108426250D03*
D15*
X140206000Y-82770000D03*
D16*
X148846000Y-86950000D03*
D15*
X148846000Y-82770000D03*
D16*
X140206000Y-86950000D03*
D17*
X144843500Y-102933500D03*
X152336500Y-105156000D03*
X148717000Y-106997500D03*
X135445500Y-105600500D03*
X144843500Y-104838500D03*
X145923000Y-114744500D03*
X146685000Y-94932500D03*
X147002500Y-90170000D03*
X142049500Y-90106500D03*
X161607500Y-86804500D03*
X150876000Y-92456000D03*
X143827500Y-85534500D03*
X146240500Y-86296500D03*
X142621000Y-116522500D03*
X145843503Y-100203000D03*
X138366500Y-102616000D03*
X144843500Y-100203000D03*
X140208000Y-106934000D03*
X148780500Y-98234500D03*
D18*
X146693504Y-98814504D02*
X146693504Y-94941004D01*
X146693504Y-107052496D02*
X146508786Y-107237214D01*
X146748500Y-106997500D02*
X146693504Y-107052496D01*
X137241551Y-101264449D02*
X137287000Y-101219000D01*
X146693504Y-94941004D02*
X146685000Y-94932500D01*
X146693504Y-104847004D02*
X146693504Y-107052496D01*
X146685000Y-104838500D02*
X146693504Y-104847004D01*
X148717000Y-106997500D02*
X146748500Y-106997500D01*
X141791924Y-99352999D02*
X146646001Y-99352999D01*
X146693504Y-99305496D02*
X146693504Y-98814504D01*
X144843500Y-104838500D02*
X146685000Y-104838500D01*
X146646001Y-99352999D02*
X146693504Y-99305496D01*
X145923000Y-108651427D02*
X145923000Y-114744500D01*
X146693504Y-104847004D02*
X146693504Y-99305496D01*
X145923001Y-108651427D02*
G75*
G02*
X146508787Y-107237215I1999999J0D01*
G01*
X141791924Y-99353000D02*
G75*
G03*
X137287001Y-101219001I-1J-6370921D01*
G01*
X137241551Y-101264449D02*
G75*
G03*
X135445500Y-105600500I4336046J-4336049D01*
G01*
X152282025Y-91440000D02*
X155315146Y-91440000D01*
X147002500Y-90170000D02*
X142113000Y-90170000D01*
X161607500Y-86804500D02*
X158143573Y-90268427D01*
X147002500Y-90170000D02*
X149215975Y-90170000D01*
X142113000Y-90170000D02*
X142049500Y-90106500D01*
X150749000Y-90805000D02*
G75*
G03*
X149215975Y-90170000I-1533025J-1533024D01*
G01*
X152282025Y-91440000D02*
G75*
G02*
X150749000Y-90805000I-2J2168019D01*
G01*
X155315146Y-91440000D02*
G75*
G03*
X158143573Y-90268427I0J3999999D01*
G01*
D19*
X140529891Y-89376250D02*
X152717500Y-89376250D01*
X153846213Y-98791713D02*
X151461786Y-96407286D01*
X132997573Y-90046177D02*
X133667500Y-89376250D01*
X133667500Y-108426250D02*
X131384804Y-106143554D01*
X153010393Y-106831607D02*
X153846214Y-105995786D01*
X150876000Y-94993073D02*
X150876000Y-92456000D01*
X133667500Y-89376250D02*
X133667500Y-89281000D01*
X152717500Y-108426250D02*
X152717500Y-107538714D01*
X138273233Y-88362233D02*
X138408571Y-88497571D01*
X154432000Y-104581573D02*
X154432000Y-100205927D01*
X131826000Y-94418646D02*
X131826000Y-92874604D01*
X136354034Y-87630000D02*
X136505466Y-87630000D01*
X129476500Y-101536500D02*
X129476500Y-100090840D01*
X133667500Y-89281000D02*
X134586267Y-88362233D01*
X129476501Y-101536500D02*
G75*
G03*
X131384805Y-106143553I6515356J-1D01*
G01*
X130654427Y-97247073D02*
G75*
G03*
X129476500Y-100090840I2843767J-2843767D01*
G01*
X153010393Y-106831607D02*
G75*
G03*
X152717500Y-107538714I707106J-707106D01*
G01*
X132997573Y-90046177D02*
G75*
G03*
X131826000Y-92874604I2828426J-2828427D01*
G01*
X154431999Y-100205927D02*
G75*
G03*
X153846212Y-98791714I-1999999J0D01*
G01*
X140529891Y-89376250D02*
G75*
G02*
X138408571Y-88497571I-1J2999998D01*
G01*
X154431999Y-104581573D02*
G75*
G02*
X153846213Y-105995785I-1999999J0D01*
G01*
X131826000Y-94418646D02*
G75*
G02*
X130654427Y-97247073I-3999999J0D01*
G01*
X151461786Y-96407286D02*
G75*
G02*
X150876000Y-94993073I1414214J1414213D01*
G01*
X136505466Y-87630001D02*
G75*
G02*
X138273233Y-88362233I2J-2499996D01*
G01*
X136354034Y-87630001D02*
G75*
G03*
X134586267Y-88362233I-2J-2499996D01*
G01*
X146240500Y-86296500D02*
X145667130Y-86296500D01*
X143827500Y-85534500D02*
G75*
G03*
X145667130Y-86296500I1839630J1839628D01*
G01*
X142621000Y-116522500D02*
X142621000Y-103317427D01*
X145843503Y-100203000D02*
X145843503Y-100520157D01*
X145667767Y-100944421D02*
X145584921Y-101027267D01*
X145160657Y-101203003D02*
X144735424Y-101203003D01*
X143321210Y-101788790D02*
X143206786Y-101903214D01*
X144735424Y-101203004D02*
G75*
G03*
X143321211Y-101788791I0J-1999999D01*
G01*
X145160657Y-101203003D02*
G75*
G03*
X145584921Y-101027267I1J599996D01*
G01*
X145667767Y-100944421D02*
G75*
G03*
X145843503Y-100520157I-424260J424263D01*
G01*
X142621001Y-103317427D02*
G75*
G02*
X143206787Y-101903215I1999999J0D01*
G01*
X139065000Y-100965000D02*
X139040019Y-100989981D01*
X142113000Y-100203000D02*
X144843500Y-100203000D01*
X138366502Y-102616000D02*
X138366502Y-102458714D01*
X141864854Y-100203000D02*
X142113000Y-100203000D01*
X142113000Y-100203000D02*
X140904630Y-100203000D01*
X139065000Y-100965000D02*
G75*
G02*
X140904630Y-100203000I1839630J-1839628D01*
G01*
X138366500Y-102616000D02*
G75*
G02*
X139040019Y-100989981I2299536J1D01*
G01*
X142170990Y-108896990D02*
X142170990Y-112622760D01*
X142170990Y-108896990D02*
G75*
G03*
X140208000Y-106934000I-1962988J2D01*
G01*
X138747500Y-116046250D02*
G75*
G03*
X142170990Y-112622760I0J3423490D01*
G01*
X151447500Y-118586250D02*
X151025796Y-115397111D01*
X150939500Y-114086208D02*
X150939500Y-105782748D01*
X148780500Y-100570462D02*
X148780500Y-98234500D01*
X150939500Y-114086208D02*
G75*
G03*
X151025796Y-115397111I10000281J21D01*
G01*
X149733000Y-102870000D02*
G75*
G02*
X150939500Y-105782748I-2912739J-2912744D01*
G01*
X148780500Y-100570462D02*
G75*
G03*
X149733000Y-102870000I3252041J2D01*
G01*
G04 #@! TA.AperFunction,Conductor*
G36*
X152308503Y-88524951D02*
G01*
X152613407Y-88818162D01*
X153063766Y-89251250D01*
X153184981Y-89367817D01*
X153188569Y-89376021D01*
X153184981Y-89384683D01*
X152891671Y-89666745D01*
X152308503Y-90227549D01*
X152300164Y-90230814D01*
X152294782Y-90229383D01*
X152123117Y-90135568D01*
X152122173Y-90134992D01*
X151974065Y-90034810D01*
X151973376Y-90034306D01*
X151846764Y-89934470D01*
X151846450Y-89934214D01*
X151732322Y-89837628D01*
X151621942Y-89747480D01*
X151506499Y-89666922D01*
X151506171Y-89666750D01*
X151506163Y-89666745D01*
X151438910Y-89631455D01*
X151377038Y-89598988D01*
X151376621Y-89598845D01*
X151376614Y-89598842D01*
X151225021Y-89546853D01*
X151224604Y-89546710D01*
X151040243Y-89513120D01*
X150878918Y-89504618D01*
X150826084Y-89501834D01*
X150818003Y-89497976D01*
X150815000Y-89490150D01*
X150815000Y-89262350D01*
X150818427Y-89254077D01*
X150826084Y-89250666D01*
X150894495Y-89247060D01*
X151040243Y-89239379D01*
X151224604Y-89205789D01*
X151225021Y-89205646D01*
X151376614Y-89153657D01*
X151376621Y-89153654D01*
X151377038Y-89153511D01*
X151438910Y-89121044D01*
X151506163Y-89085754D01*
X151506171Y-89085749D01*
X151506499Y-89085577D01*
X151621942Y-89005019D01*
X151732322Y-88914871D01*
X151846450Y-88818285D01*
X151846764Y-88818029D01*
X151973376Y-88718193D01*
X151974065Y-88717689D01*
X152122173Y-88617507D01*
X152123117Y-88616931D01*
X152294782Y-88523117D01*
X152303685Y-88522157D01*
X152308503Y-88524951D01*
G37*
G04 #@! TD.AperFunction*
G04 #@! TA.AperFunction,Conductor*
G36*
X146689352Y-94741133D02*
G01*
X147042964Y-95093482D01*
X147046406Y-95101749D01*
X147045421Y-95106468D01*
X147021917Y-95160064D01*
X147021882Y-95160155D01*
X147000184Y-95215955D01*
X147000177Y-95215974D01*
X147000131Y-95216093D01*
X146982779Y-95269248D01*
X146969361Y-95321553D01*
X146959378Y-95375034D01*
X146952331Y-95431719D01*
X146947720Y-95493632D01*
X146947717Y-95493715D01*
X146947716Y-95493729D01*
X146947541Y-95498263D01*
X146945044Y-95562800D01*
X146945043Y-95562867D01*
X146943805Y-95641249D01*
X146943805Y-95641290D01*
X146943543Y-95719343D01*
X146940088Y-95727605D01*
X146931843Y-95731004D01*
X146455153Y-95731004D01*
X146446880Y-95727577D01*
X146443453Y-95719356D01*
X146443116Y-95643078D01*
X146441619Y-95566208D01*
X146441618Y-95566142D01*
X146438500Y-95498263D01*
X146433258Y-95437511D01*
X146432418Y-95431579D01*
X146425413Y-95382157D01*
X146425413Y-95382154D01*
X146425384Y-95381953D01*
X146423888Y-95374846D01*
X146414414Y-95329863D01*
X146414414Y-95329862D01*
X146414371Y-95329659D01*
X146399713Y-95278698D01*
X146399642Y-95278503D01*
X146399637Y-95278488D01*
X146380970Y-95227320D01*
X146380967Y-95227313D01*
X146380903Y-95227137D01*
X146357435Y-95173047D01*
X146357381Y-95172936D01*
X146332316Y-95121681D01*
X146331760Y-95112743D01*
X146334223Y-95108613D01*
X146672490Y-94741493D01*
X146680616Y-94737731D01*
X146689352Y-94741133D01*
G37*
G04 #@! TD.AperFunction*
G04 #@! TA.AperFunction,Conductor*
G36*
X148548418Y-106643052D02*
G01*
X148908231Y-106989067D01*
X148911819Y-106997271D01*
X148908231Y-107005933D01*
X148548418Y-107351948D01*
X148540079Y-107355213D01*
X148535381Y-107354127D01*
X148515962Y-107345111D01*
X148483699Y-107330131D01*
X148429386Y-107307677D01*
X148377751Y-107289660D01*
X148377596Y-107289617D01*
X148377589Y-107289615D01*
X148360058Y-107284774D01*
X148326838Y-107275599D01*
X148319859Y-107274183D01*
X148274874Y-107265054D01*
X148274870Y-107265053D01*
X148274691Y-107265017D01*
X148219354Y-107257433D01*
X148219192Y-107257419D01*
X148219188Y-107257419D01*
X148158992Y-107252378D01*
X148158994Y-107252378D01*
X148158873Y-107252368D01*
X148091290Y-107249344D01*
X148014651Y-107247881D01*
X147938648Y-107247551D01*
X147930391Y-107244088D01*
X147927000Y-107235851D01*
X147927000Y-106759149D01*
X147930427Y-106750876D01*
X147938648Y-106747449D01*
X148014651Y-106747118D01*
X148091290Y-106745655D01*
X148158873Y-106742631D01*
X148174568Y-106741317D01*
X148219188Y-106737580D01*
X148219192Y-106737580D01*
X148219354Y-106737566D01*
X148274691Y-106729982D01*
X148274870Y-106729946D01*
X148274874Y-106729945D01*
X148326626Y-106719443D01*
X148326625Y-106719443D01*
X148326838Y-106719400D01*
X148360058Y-106710225D01*
X148377589Y-106705384D01*
X148377596Y-106705382D01*
X148377751Y-106705339D01*
X148429386Y-106687322D01*
X148483699Y-106664868D01*
X148483839Y-106664803D01*
X148535381Y-106640873D01*
X148544328Y-106640497D01*
X148548418Y-106643052D01*
G37*
G04 #@! TD.AperFunction*
G04 #@! TA.AperFunction,Conductor*
G36*
X145025119Y-104481873D02*
G01*
X145047133Y-104492094D01*
X145076800Y-104505868D01*
X145131113Y-104528322D01*
X145182748Y-104546339D01*
X145182903Y-104546382D01*
X145182910Y-104546384D01*
X145200441Y-104551225D01*
X145233661Y-104560400D01*
X145233874Y-104560443D01*
X145233873Y-104560443D01*
X145285625Y-104570945D01*
X145285629Y-104570946D01*
X145285808Y-104570982D01*
X145341145Y-104578566D01*
X145341307Y-104578580D01*
X145341311Y-104578580D01*
X145385931Y-104582317D01*
X145401626Y-104583631D01*
X145469209Y-104586655D01*
X145545848Y-104588118D01*
X145621852Y-104588449D01*
X145630109Y-104591912D01*
X145633500Y-104600149D01*
X145633500Y-105076851D01*
X145630073Y-105085124D01*
X145621852Y-105088551D01*
X145545848Y-105088881D01*
X145469209Y-105090344D01*
X145401626Y-105093368D01*
X145401505Y-105093378D01*
X145401507Y-105093378D01*
X145341311Y-105098419D01*
X145341307Y-105098419D01*
X145341145Y-105098433D01*
X145285808Y-105106017D01*
X145285629Y-105106053D01*
X145285625Y-105106054D01*
X145240640Y-105115183D01*
X145233661Y-105116599D01*
X145200441Y-105125774D01*
X145182910Y-105130615D01*
X145182903Y-105130617D01*
X145182748Y-105130660D01*
X145131113Y-105148677D01*
X145076800Y-105171131D01*
X145041874Y-105187348D01*
X145025119Y-105195127D01*
X145016172Y-105195503D01*
X145012082Y-105192948D01*
X144652269Y-104846933D01*
X144648681Y-104838729D01*
X144652269Y-104830067D01*
X145012082Y-104484052D01*
X145020421Y-104480787D01*
X145025119Y-104481873D01*
G37*
G04 #@! TD.AperFunction*
G04 #@! TA.AperFunction,Conductor*
G36*
X146169624Y-113957927D02*
G01*
X146173051Y-113966148D01*
X146173381Y-114042151D01*
X146174844Y-114118790D01*
X146177868Y-114186373D01*
X146182933Y-114246854D01*
X146190517Y-114302191D01*
X146201099Y-114354338D01*
X146215160Y-114405251D01*
X146233177Y-114456886D01*
X146255631Y-114511199D01*
X146255696Y-114511338D01*
X146279627Y-114562881D01*
X146280003Y-114571828D01*
X146277448Y-114575918D01*
X145931433Y-114935731D01*
X145923229Y-114939319D01*
X145914567Y-114935731D01*
X145568552Y-114575918D01*
X145565287Y-114567579D01*
X145566373Y-114562881D01*
X145590303Y-114511339D01*
X145590303Y-114511338D01*
X145590368Y-114511199D01*
X145612822Y-114456886D01*
X145630839Y-114405251D01*
X145644900Y-114354338D01*
X145655482Y-114302191D01*
X145663066Y-114246854D01*
X145668131Y-114186373D01*
X145671155Y-114118790D01*
X145672618Y-114042151D01*
X145672949Y-113966148D01*
X145676412Y-113957891D01*
X145684649Y-113954500D01*
X146161351Y-113954500D01*
X146169624Y-113957927D01*
G37*
G04 #@! TD.AperFunction*
G04 #@! TA.AperFunction,Conductor*
G36*
X146833918Y-89815552D02*
G01*
X146954645Y-89931649D01*
X147202500Y-90170000D01*
X147002500Y-90362331D01*
X147000908Y-90363862D01*
X146833918Y-90524448D01*
X146825579Y-90527713D01*
X146820881Y-90526627D01*
X146801462Y-90517611D01*
X146769199Y-90502631D01*
X146714886Y-90480177D01*
X146663251Y-90462160D01*
X146663096Y-90462117D01*
X146663089Y-90462115D01*
X146645558Y-90457274D01*
X146612338Y-90448099D01*
X146605359Y-90446683D01*
X146560374Y-90437554D01*
X146560370Y-90437553D01*
X146560191Y-90437517D01*
X146504854Y-90429933D01*
X146504692Y-90429919D01*
X146504688Y-90429919D01*
X146444492Y-90424878D01*
X146444494Y-90424878D01*
X146444373Y-90424868D01*
X146376790Y-90421844D01*
X146300151Y-90420381D01*
X146224148Y-90420051D01*
X146215891Y-90416588D01*
X146212500Y-90408351D01*
X146212500Y-89931649D01*
X146215927Y-89923376D01*
X146224148Y-89919949D01*
X146300151Y-89919618D01*
X146376790Y-89918155D01*
X146444373Y-89915131D01*
X146460068Y-89913817D01*
X146504688Y-89910080D01*
X146504692Y-89910080D01*
X146504854Y-89910066D01*
X146560191Y-89902482D01*
X146560370Y-89902446D01*
X146560374Y-89902445D01*
X146612126Y-89891943D01*
X146612125Y-89891943D01*
X146612338Y-89891900D01*
X146645558Y-89882725D01*
X146663089Y-89877884D01*
X146663096Y-89877882D01*
X146663251Y-89877839D01*
X146714886Y-89859822D01*
X146769199Y-89837368D01*
X146769339Y-89837303D01*
X146820881Y-89813373D01*
X146829828Y-89812997D01*
X146833918Y-89815552D01*
G37*
G04 #@! TD.AperFunction*
G04 #@! TA.AperFunction,Conductor*
G36*
X142284336Y-89782379D02*
G01*
X142314113Y-89802104D01*
X142329172Y-89812080D01*
X142329317Y-89812165D01*
X142329324Y-89812169D01*
X142377433Y-89840247D01*
X142377442Y-89840252D01*
X142377612Y-89840351D01*
X142424662Y-89863323D01*
X142424885Y-89863409D01*
X142424890Y-89863411D01*
X142471710Y-89881424D01*
X142471965Y-89881522D01*
X142472227Y-89881596D01*
X142472232Y-89881598D01*
X142520920Y-89895407D01*
X142520928Y-89895409D01*
X142521161Y-89895475D01*
X142521397Y-89895521D01*
X142521402Y-89895522D01*
X142573684Y-89905669D01*
X142573694Y-89905671D01*
X142573892Y-89905709D01*
X142574105Y-89905735D01*
X142574112Y-89905736D01*
X142617280Y-89910986D01*
X142631800Y-89912752D01*
X142631959Y-89912763D01*
X142631972Y-89912764D01*
X142696402Y-89917122D01*
X142696422Y-89917123D01*
X142696526Y-89917130D01*
X142769712Y-89919370D01*
X142841388Y-89919912D01*
X142849635Y-89923402D01*
X142853000Y-89931612D01*
X142853000Y-90408294D01*
X142849573Y-90416567D01*
X142841294Y-90419994D01*
X142756379Y-90419950D01*
X142672175Y-90420132D01*
X142598056Y-90421039D01*
X142598026Y-90421040D01*
X142598023Y-90421040D01*
X142531774Y-90423163D01*
X142531755Y-90423164D01*
X142531691Y-90423166D01*
X142518694Y-90423985D01*
X142470870Y-90426999D01*
X142470855Y-90427000D01*
X142470748Y-90427007D01*
X142470634Y-90427019D01*
X142470633Y-90427019D01*
X142413018Y-90433044D01*
X142413009Y-90433045D01*
X142412896Y-90433057D01*
X142355804Y-90441809D01*
X142297140Y-90453759D01*
X142297013Y-90453791D01*
X142297003Y-90453793D01*
X142234668Y-90469376D01*
X142234572Y-90469400D01*
X142234460Y-90469432D01*
X142234461Y-90469432D01*
X142173482Y-90487005D01*
X142164583Y-90486004D01*
X142160920Y-90482833D01*
X142150733Y-90469400D01*
X141859284Y-90085103D01*
X141857015Y-90076440D01*
X141861906Y-90068442D01*
X142271175Y-89782542D01*
X142279919Y-89780613D01*
X142284336Y-89782379D01*
G37*
G04 #@! TD.AperFunction*
G04 #@! TA.AperFunction,Conductor*
G36*
X161745095Y-86666582D02*
G01*
X161748683Y-86675244D01*
X161745890Y-86818139D01*
X161739909Y-87124120D01*
X161738927Y-87174339D01*
X161735339Y-87182543D01*
X161731251Y-87185097D01*
X161677736Y-87204674D01*
X161623455Y-87227201D01*
X161623324Y-87227264D01*
X161623311Y-87227270D01*
X161599585Y-87238722D01*
X161574203Y-87250972D01*
X161574042Y-87251063D01*
X161574033Y-87251068D01*
X161528431Y-87276934D01*
X161528260Y-87277031D01*
X161528105Y-87277134D01*
X161528098Y-87277138D01*
X161484058Y-87306319D01*
X161483903Y-87306422D01*
X161439412Y-87340188D01*
X161439324Y-87340263D01*
X161439312Y-87340272D01*
X161416765Y-87359335D01*
X161393064Y-87379374D01*
X161343137Y-87425023D01*
X161287911Y-87478180D01*
X161233935Y-87531689D01*
X161225648Y-87535080D01*
X161217426Y-87531653D01*
X160880347Y-87194574D01*
X160876920Y-87186301D01*
X160880311Y-87178064D01*
X160933787Y-87124120D01*
X160933819Y-87124088D01*
X160986976Y-87068862D01*
X161032625Y-87018935D01*
X161052664Y-86995234D01*
X161071727Y-86972687D01*
X161071736Y-86972675D01*
X161071811Y-86972587D01*
X161105577Y-86928096D01*
X161134968Y-86883739D01*
X161161027Y-86837796D01*
X161173277Y-86812414D01*
X161184729Y-86788688D01*
X161184735Y-86788675D01*
X161184798Y-86788544D01*
X161207325Y-86734263D01*
X161226903Y-86680750D01*
X161232963Y-86674159D01*
X161237659Y-86673074D01*
X161593861Y-86666110D01*
X161736756Y-86663317D01*
X161745095Y-86666582D01*
G37*
G04 #@! TD.AperFunction*
G04 #@! TA.AperFunction,Conductor*
G36*
X147184119Y-89813373D02*
G01*
X147206133Y-89823594D01*
X147235800Y-89837368D01*
X147290113Y-89859822D01*
X147341748Y-89877839D01*
X147341903Y-89877882D01*
X147341910Y-89877884D01*
X147359441Y-89882725D01*
X147392661Y-89891900D01*
X147392874Y-89891943D01*
X147392873Y-89891943D01*
X147444625Y-89902445D01*
X147444629Y-89902446D01*
X147444808Y-89902482D01*
X147500145Y-89910066D01*
X147500307Y-89910080D01*
X147500311Y-89910080D01*
X147544931Y-89913817D01*
X147560626Y-89915131D01*
X147628209Y-89918155D01*
X147704848Y-89919618D01*
X147780852Y-89919949D01*
X147789109Y-89923412D01*
X147792500Y-89931649D01*
X147792500Y-90408351D01*
X147789073Y-90416624D01*
X147780852Y-90420051D01*
X147704848Y-90420381D01*
X147628209Y-90421844D01*
X147560626Y-90424868D01*
X147560505Y-90424878D01*
X147560507Y-90424878D01*
X147500311Y-90429919D01*
X147500307Y-90429919D01*
X147500145Y-90429933D01*
X147444808Y-90437517D01*
X147444629Y-90437553D01*
X147444625Y-90437554D01*
X147399640Y-90446683D01*
X147392661Y-90448099D01*
X147359441Y-90457274D01*
X147341910Y-90462115D01*
X147341903Y-90462117D01*
X147341748Y-90462160D01*
X147290113Y-90480177D01*
X147235800Y-90502631D01*
X147200874Y-90518848D01*
X147184119Y-90526627D01*
X147175172Y-90527003D01*
X147171082Y-90524448D01*
X147004179Y-90363945D01*
X147004178Y-90363945D01*
X146802500Y-90170000D01*
X147002500Y-89977669D01*
X147064387Y-89918155D01*
X147171082Y-89815552D01*
X147179421Y-89812287D01*
X147184119Y-89813373D01*
G37*
G04 #@! TD.AperFunction*
G04 #@! TA.AperFunction,Conductor*
G36*
X132418868Y-107000015D02*
G01*
X132578283Y-107143469D01*
X132732398Y-107250080D01*
X132877151Y-107320900D01*
X133016730Y-107364407D01*
X133017080Y-107364469D01*
X133017087Y-107364471D01*
X133155109Y-107389037D01*
X133155111Y-107389037D01*
X133155323Y-107389075D01*
X133155534Y-107389096D01*
X133155539Y-107389097D01*
X133256626Y-107399296D01*
X133297119Y-107403381D01*
X133446125Y-107415785D01*
X133446507Y-107415824D01*
X133538867Y-107426745D01*
X133606645Y-107434760D01*
X133607488Y-107434891D01*
X133783060Y-107468781D01*
X133784135Y-107469042D01*
X133859521Y-107491148D01*
X133971850Y-107524087D01*
X133978824Y-107529703D01*
X133980255Y-107535084D01*
X133987668Y-107914289D01*
X134004021Y-108750844D01*
X134000756Y-108759183D01*
X133992094Y-108762771D01*
X133445420Y-108752084D01*
X132776334Y-108739005D01*
X132768131Y-108735417D01*
X132765337Y-108730599D01*
X132710292Y-108542885D01*
X132710031Y-108541810D01*
X132676141Y-108366238D01*
X132676010Y-108365395D01*
X132657075Y-108205268D01*
X132657034Y-108204865D01*
X132644631Y-108055869D01*
X132630347Y-107914289D01*
X132630346Y-107914284D01*
X132630325Y-107914073D01*
X132605657Y-107775480D01*
X132562150Y-107635901D01*
X132508628Y-107526503D01*
X132491520Y-107491536D01*
X132491519Y-107491534D01*
X132491330Y-107491148D01*
X132475930Y-107468885D01*
X132420693Y-107389037D01*
X132384719Y-107337033D01*
X132241265Y-107177618D01*
X132238279Y-107169178D01*
X132241690Y-107161521D01*
X132402771Y-107000440D01*
X132411044Y-106997013D01*
X132418868Y-107000015D01*
G37*
G04 #@! TD.AperFunction*
G04 #@! TA.AperFunction,Conductor*
G36*
X150884433Y-92264769D02*
G01*
X151230174Y-92624297D01*
X151233439Y-92632635D01*
X151232119Y-92637809D01*
X151199736Y-92700005D01*
X151199443Y-92700534D01*
X151164513Y-92759921D01*
X151164320Y-92760236D01*
X151131118Y-92812809D01*
X151131115Y-92812811D01*
X151131116Y-92812812D01*
X151100261Y-92861640D01*
X151072476Y-92909647D01*
X151048374Y-92959935D01*
X151028564Y-93015610D01*
X151013658Y-93079777D01*
X151004266Y-93155538D01*
X151004257Y-93155799D01*
X151001407Y-93234722D01*
X150997684Y-93242866D01*
X150989715Y-93246000D01*
X150762285Y-93246000D01*
X150754012Y-93242573D01*
X150750593Y-93234722D01*
X150747742Y-93155799D01*
X150747733Y-93155538D01*
X150738341Y-93079777D01*
X150723435Y-93015610D01*
X150703625Y-92959935D01*
X150679523Y-92909647D01*
X150651738Y-92861640D01*
X150620883Y-92812812D01*
X150587666Y-92760214D01*
X150587486Y-92759921D01*
X150552556Y-92700534D01*
X150552263Y-92700005D01*
X150519881Y-92637810D01*
X150519100Y-92628889D01*
X150521826Y-92624297D01*
X150867567Y-92264769D01*
X150875771Y-92261181D01*
X150884433Y-92264769D01*
G37*
G04 #@! TD.AperFunction*
G04 #@! TA.AperFunction,Conductor*
G36*
X134505641Y-88281608D02*
G01*
X134666972Y-88442939D01*
X134670399Y-88451212D01*
X134667561Y-88458851D01*
X134662589Y-88464619D01*
X134619583Y-88514509D01*
X134578199Y-88580447D01*
X134548949Y-88647141D01*
X134530281Y-88713300D01*
X134520641Y-88777632D01*
X134518477Y-88838843D01*
X134522235Y-88895642D01*
X134530364Y-88946736D01*
X134530426Y-88946985D01*
X134530428Y-88946996D01*
X134537363Y-88974937D01*
X134541309Y-88990834D01*
X134541389Y-88991069D01*
X134541390Y-88991072D01*
X134550450Y-89017641D01*
X134549877Y-89026577D01*
X134545336Y-89031485D01*
X133751956Y-89501012D01*
X133385461Y-89717906D01*
X133376596Y-89719170D01*
X133369433Y-89713796D01*
X133368169Y-89704931D01*
X133368698Y-89703347D01*
X133885922Y-88458885D01*
X133892262Y-88452560D01*
X133899034Y-88451905D01*
X133902290Y-88452560D01*
X133929050Y-88457944D01*
X133929249Y-88457969D01*
X133929259Y-88457971D01*
X133976095Y-88463932D01*
X133976339Y-88463963D01*
X134011713Y-88465727D01*
X134030053Y-88466642D01*
X134030057Y-88466642D01*
X134030317Y-88466655D01*
X134037205Y-88466418D01*
X134089545Y-88464619D01*
X134089555Y-88464618D01*
X134089822Y-88464609D01*
X134153693Y-88456415D01*
X134211073Y-88442939D01*
X134220437Y-88440740D01*
X134220441Y-88440739D01*
X134220768Y-88440662D01*
X134289885Y-88415939D01*
X134290205Y-88415779D01*
X134359557Y-88381000D01*
X134359884Y-88380836D01*
X134429602Y-88333941D01*
X134471696Y-88296891D01*
X134489638Y-88281098D01*
X134498112Y-88278205D01*
X134505641Y-88281608D01*
G37*
G04 #@! TD.AperFunction*
G04 #@! TA.AperFunction,Conductor*
G36*
X145919331Y-86073194D02*
G01*
X146174768Y-86182641D01*
X146415402Y-86285746D01*
X146421657Y-86292154D01*
X146421548Y-86301108D01*
X146415402Y-86307254D01*
X145919332Y-86519806D01*
X145910378Y-86519915D01*
X145905505Y-86516256D01*
X145901434Y-86511045D01*
X145888679Y-86497817D01*
X145872817Y-86484192D01*
X145872616Y-86484049D01*
X145872610Y-86484044D01*
X145854091Y-86470844D01*
X145854081Y-86470838D01*
X145853874Y-86470690D01*
X145853649Y-86470559D01*
X145853639Y-86470552D01*
X145832121Y-86457974D01*
X145832113Y-86457970D01*
X145831879Y-86457833D01*
X145831630Y-86457717D01*
X145831623Y-86457713D01*
X145807106Y-86446259D01*
X145807098Y-86446256D01*
X145806861Y-86446145D01*
X145778849Y-86436145D01*
X145778579Y-86436077D01*
X145748150Y-86428426D01*
X145748147Y-86428425D01*
X145747871Y-86428356D01*
X145747584Y-86428313D01*
X145747583Y-86428313D01*
X145714239Y-86423343D01*
X145714233Y-86423342D01*
X145713955Y-86423301D01*
X145713671Y-86423287D01*
X145713670Y-86423287D01*
X145688258Y-86422044D01*
X145680163Y-86418217D01*
X145677130Y-86410358D01*
X145677130Y-86182641D01*
X145680557Y-86174368D01*
X145688257Y-86170956D01*
X145711015Y-86169842D01*
X145713670Y-86169712D01*
X145713671Y-86169712D01*
X145713955Y-86169698D01*
X145714233Y-86169657D01*
X145714239Y-86169656D01*
X145747583Y-86164686D01*
X145747584Y-86164686D01*
X145747871Y-86164643D01*
X145748147Y-86164574D01*
X145748150Y-86164573D01*
X145778579Y-86156922D01*
X145778581Y-86156921D01*
X145778849Y-86156854D01*
X145806861Y-86146854D01*
X145807098Y-86146743D01*
X145807106Y-86146740D01*
X145831623Y-86135286D01*
X145831630Y-86135282D01*
X145831879Y-86135166D01*
X145832113Y-86135029D01*
X145832121Y-86135025D01*
X145853639Y-86122447D01*
X145853649Y-86122440D01*
X145853874Y-86122309D01*
X145854081Y-86122161D01*
X145854091Y-86122155D01*
X145872610Y-86108955D01*
X145872616Y-86108950D01*
X145872817Y-86108807D01*
X145888679Y-86095182D01*
X145901434Y-86081954D01*
X145905505Y-86076744D01*
X145913299Y-86072335D01*
X145919331Y-86073194D01*
G37*
G04 #@! TD.AperFunction*
G04 #@! TA.AperFunction,Conductor*
G36*
X142742988Y-115735927D02*
G01*
X142746407Y-115743778D01*
X142749266Y-115822961D01*
X142758658Y-115898722D01*
X142773564Y-115962889D01*
X142793374Y-116018564D01*
X142817476Y-116068852D01*
X142845261Y-116116859D01*
X142845304Y-116116927D01*
X142845310Y-116116937D01*
X142876116Y-116165687D01*
X142876118Y-116165690D01*
X142909320Y-116218263D01*
X142909513Y-116218578D01*
X142944443Y-116277965D01*
X142944736Y-116278494D01*
X142977119Y-116340691D01*
X142977900Y-116349612D01*
X142975175Y-116354202D01*
X142629433Y-116713731D01*
X142621229Y-116717319D01*
X142612567Y-116713731D01*
X142266826Y-116354203D01*
X142263561Y-116345864D01*
X142264881Y-116340690D01*
X142297263Y-116278494D01*
X142297556Y-116277965D01*
X142332486Y-116218578D01*
X142332679Y-116218263D01*
X142365881Y-116165690D01*
X142365884Y-116165688D01*
X142365883Y-116165687D01*
X142396689Y-116116937D01*
X142396695Y-116116927D01*
X142396738Y-116116859D01*
X142424523Y-116068852D01*
X142448625Y-116018564D01*
X142468435Y-115962889D01*
X142483341Y-115898722D01*
X142492733Y-115822961D01*
X142495593Y-115743778D01*
X142499316Y-115735634D01*
X142507285Y-115732500D01*
X142734715Y-115732500D01*
X142742988Y-115735927D01*
G37*
G04 #@! TD.AperFunction*
G04 #@! TA.AperFunction,Conductor*
G36*
X144675203Y-99848826D02*
G01*
X145034731Y-100194567D01*
X145038319Y-100202771D01*
X145034731Y-100211433D01*
X144675203Y-100557174D01*
X144666865Y-100560439D01*
X144661691Y-100559119D01*
X144599494Y-100526736D01*
X144598965Y-100526443D01*
X144590239Y-100521311D01*
X144539561Y-100491503D01*
X144539285Y-100491333D01*
X144486690Y-100458118D01*
X144486688Y-100458115D01*
X144486687Y-100458116D01*
X144437937Y-100427310D01*
X144437927Y-100427304D01*
X144437859Y-100427261D01*
X144389852Y-100399476D01*
X144389650Y-100399379D01*
X144389644Y-100399376D01*
X144339839Y-100375506D01*
X144339564Y-100375374D01*
X144283889Y-100355564D01*
X144258057Y-100349563D01*
X144220024Y-100340728D01*
X144220021Y-100340728D01*
X144219722Y-100340658D01*
X144219413Y-100340620D01*
X144219409Y-100340619D01*
X144175386Y-100335162D01*
X144143961Y-100331266D01*
X144088370Y-100329259D01*
X144064778Y-100328407D01*
X144056634Y-100324684D01*
X144053500Y-100316715D01*
X144053500Y-100089285D01*
X144056927Y-100081012D01*
X144064778Y-100077593D01*
X144097712Y-100076403D01*
X144143961Y-100074733D01*
X144175386Y-100070837D01*
X144219409Y-100065380D01*
X144219413Y-100065379D01*
X144219722Y-100065341D01*
X144220021Y-100065271D01*
X144220024Y-100065271D01*
X144283570Y-100050509D01*
X144283568Y-100050509D01*
X144283889Y-100050435D01*
X144339564Y-100030625D01*
X144359266Y-100021182D01*
X144389644Y-100006623D01*
X144389650Y-100006620D01*
X144389852Y-100006523D01*
X144437859Y-99978738D01*
X144486687Y-99947883D01*
X144539285Y-99914666D01*
X144539561Y-99914496D01*
X144598965Y-99879556D01*
X144599494Y-99879263D01*
X144607379Y-99875158D01*
X144661691Y-99846881D01*
X144670611Y-99846100D01*
X144675203Y-99848826D01*
G37*
G04 #@! TD.AperFunction*
G04 #@! TA.AperFunction,Conductor*
G36*
X151274792Y-116348003D02*
G01*
X151279173Y-116355125D01*
X151283293Y-116377011D01*
X151326558Y-116606856D01*
X151326676Y-116607213D01*
X151326677Y-116607218D01*
X151358659Y-116704225D01*
X151395959Y-116817366D01*
X151482970Y-116986948D01*
X151585230Y-117126786D01*
X151585487Y-117127057D01*
X151585489Y-117127059D01*
X151700234Y-117247905D01*
X151700245Y-117247916D01*
X151700383Y-117248061D01*
X151826069Y-117361956D01*
X151826104Y-117361987D01*
X151826112Y-117361994D01*
X151959769Y-117479512D01*
X151960101Y-117479816D01*
X151983909Y-117502431D01*
X152099284Y-117612026D01*
X152099906Y-117612665D01*
X152242353Y-117770748D01*
X152243086Y-117771647D01*
X152332198Y-117892862D01*
X152381882Y-117960444D01*
X152384021Y-117969139D01*
X152381879Y-117974307D01*
X152187693Y-118238202D01*
X151528449Y-119134096D01*
X151520785Y-119138729D01*
X151511728Y-119136307D01*
X150386181Y-118238202D01*
X150381851Y-118230364D01*
X150382574Y-118224815D01*
X150467525Y-118006437D01*
X150468000Y-118005375D01*
X150564461Y-117815705D01*
X150564904Y-117814912D01*
X150664938Y-117651071D01*
X150665180Y-117650691D01*
X150763726Y-117502431D01*
X150778469Y-117479512D01*
X150855489Y-117359783D01*
X150855591Y-117359595D01*
X150934986Y-117213072D01*
X150934990Y-117213064D01*
X150935162Y-117212746D01*
X150997562Y-117051135D01*
X151037504Y-116864765D01*
X151049805Y-116643452D01*
X151030133Y-116388057D01*
X151032914Y-116379545D01*
X151040264Y-116375559D01*
X151123775Y-116364516D01*
X151266142Y-116345690D01*
X151274792Y-116348003D01*
G37*
G04 #@! TD.AperFunction*
G04 #@! TA.AperFunction,Conductor*
G36*
X148788933Y-98043269D02*
G01*
X149134674Y-98402797D01*
X149137939Y-98411135D01*
X149136619Y-98416309D01*
X149104236Y-98478505D01*
X149103943Y-98479034D01*
X149069013Y-98538421D01*
X149068820Y-98538736D01*
X149035618Y-98591309D01*
X149035615Y-98591311D01*
X149035616Y-98591312D01*
X149004761Y-98640140D01*
X148976976Y-98688147D01*
X148952874Y-98738435D01*
X148933064Y-98794110D01*
X148918158Y-98858277D01*
X148908766Y-98934038D01*
X148908757Y-98934299D01*
X148905907Y-99013222D01*
X148902184Y-99021366D01*
X148894215Y-99024500D01*
X148666785Y-99024500D01*
X148658512Y-99021073D01*
X148655093Y-99013222D01*
X148652242Y-98934299D01*
X148652233Y-98934038D01*
X148642841Y-98858277D01*
X148627935Y-98794110D01*
X148608125Y-98738435D01*
X148584023Y-98688147D01*
X148556238Y-98640140D01*
X148525383Y-98591312D01*
X148492166Y-98538714D01*
X148491986Y-98538421D01*
X148457056Y-98479034D01*
X148456763Y-98478505D01*
X148424381Y-98416310D01*
X148423600Y-98407389D01*
X148426326Y-98402797D01*
X148772067Y-98043269D01*
X148780271Y-98039681D01*
X148788933Y-98043269D01*
G37*
G04 #@! TD.AperFunction*
G04 #@! TA.AperFunction,Conductor*
G36*
X147797531Y-82154985D02*
G01*
X147843286Y-82207789D01*
X147853719Y-82273122D01*
X147838387Y-82409808D01*
X147838000Y-82416734D01*
X147838000Y-82625170D01*
X147842404Y-82640169D01*
X147843774Y-82641356D01*
X147851332Y-82643000D01*
X148849000Y-82643000D01*
X148916039Y-82662685D01*
X148961794Y-82715489D01*
X148973000Y-82767000D01*
X148973000Y-84052821D01*
X148977209Y-84067154D01*
X148989118Y-84069184D01*
X149029760Y-84065485D01*
X149041608Y-84063225D01*
X149219610Y-84010836D01*
X149230806Y-84006312D01*
X149395242Y-83920347D01*
X149405338Y-83913741D01*
X149549947Y-83797473D01*
X149558572Y-83789026D01*
X149677842Y-83646885D01*
X149684660Y-83636928D01*
X149706738Y-83596768D01*
X149756284Y-83547504D01*
X149824599Y-83532847D01*
X149889993Y-83557450D01*
X149931705Y-83613503D01*
X149939400Y-83656505D01*
X149939400Y-83874260D01*
X149937682Y-83894831D01*
X149934329Y-83914762D01*
X149934271Y-83919544D01*
X149934253Y-83921031D01*
X149934176Y-83927301D01*
X149934862Y-83932089D01*
X149935189Y-83934374D01*
X149936175Y-83943842D01*
X149946382Y-84099560D01*
X149952307Y-84189960D01*
X149953098Y-84193939D01*
X149953099Y-84193943D01*
X149994316Y-84401154D01*
X150003659Y-84448125D01*
X150088269Y-84697378D01*
X150204690Y-84933455D01*
X150350928Y-85152317D01*
X150524483Y-85350218D01*
X150722384Y-85523773D01*
X150941246Y-85670011D01*
X151177323Y-85786432D01*
X151426576Y-85871042D01*
X151684741Y-85922394D01*
X151688784Y-85922659D01*
X151688799Y-85922661D01*
X151913176Y-85937368D01*
X151925634Y-85938820D01*
X151928733Y-85939341D01*
X151934861Y-85940372D01*
X151941218Y-85940450D01*
X151942614Y-85940467D01*
X151942619Y-85940467D01*
X151947400Y-85940525D01*
X151952132Y-85939847D01*
X151952137Y-85939847D01*
X151975135Y-85936553D01*
X151992714Y-85935301D01*
X160889115Y-85935301D01*
X160956154Y-85954986D01*
X161001909Y-86007790D01*
X161011853Y-86076948D01*
X160981265Y-86142273D01*
X160954364Y-86172150D01*
X160868460Y-86267556D01*
X160772973Y-86432944D01*
X160770966Y-86439121D01*
X160770965Y-86439123D01*
X160744614Y-86520223D01*
X160743134Y-86524508D01*
X160734883Y-86547061D01*
X160732961Y-86551988D01*
X160722416Y-86577397D01*
X160719564Y-86583756D01*
X160715782Y-86591592D01*
X160715773Y-86591611D01*
X160712635Y-86598114D01*
X160708829Y-86605374D01*
X160703885Y-86614092D01*
X160699400Y-86621397D01*
X160696688Y-86625489D01*
X160693279Y-86630633D01*
X160688697Y-86637089D01*
X160677204Y-86652234D01*
X160673113Y-86657339D01*
X160664737Y-86667245D01*
X160652615Y-86681582D01*
X160649440Y-86685192D01*
X160617546Y-86720076D01*
X160615368Y-86722398D01*
X160576255Y-86763032D01*
X160574599Y-86764720D01*
X157646734Y-89692585D01*
X157635054Y-89702883D01*
X157611427Y-89721210D01*
X157594469Y-89741855D01*
X157581933Y-89755017D01*
X157376030Y-89941636D01*
X157366643Y-89949339D01*
X157120914Y-90131583D01*
X157110797Y-90138343D01*
X156848408Y-90295613D01*
X156837676Y-90301350D01*
X156596063Y-90415624D01*
X156527043Y-90426492D01*
X156463105Y-90398320D01*
X156424547Y-90340053D01*
X156423612Y-90270190D01*
X156442348Y-90231170D01*
X156511141Y-90135435D01*
X156514113Y-90131299D01*
X156606568Y-89944231D01*
X156618302Y-89920490D01*
X156618303Y-89920488D01*
X156620559Y-89915923D01*
X156690399Y-89686054D01*
X156721757Y-89447864D01*
X156723507Y-89376250D01*
X156703822Y-89136813D01*
X156655870Y-88945909D01*
X156646532Y-88908733D01*
X156646530Y-88908728D01*
X156645294Y-88903806D01*
X156549497Y-88683487D01*
X156419002Y-88481773D01*
X156322407Y-88375616D01*
X156260746Y-88307851D01*
X156260742Y-88307847D01*
X156257314Y-88304080D01*
X156068776Y-88155182D01*
X156020555Y-88128563D01*
X155862905Y-88041535D01*
X155862902Y-88041534D01*
X155858450Y-88039076D01*
X155631985Y-87958880D01*
X155521087Y-87939126D01*
X155400473Y-87917641D01*
X155400468Y-87917641D01*
X155395463Y-87916749D01*
X155302483Y-87915613D01*
X155160327Y-87913876D01*
X155160325Y-87913876D01*
X155155237Y-87913814D01*
X155150208Y-87914584D01*
X155150202Y-87914584D01*
X155036497Y-87931984D01*
X154917756Y-87950154D01*
X154689399Y-88024792D01*
X154684885Y-88027142D01*
X154480815Y-88133374D01*
X154480809Y-88133378D01*
X154476300Y-88135725D01*
X154354104Y-88227473D01*
X154319082Y-88253768D01*
X154253653Y-88278278D01*
X154185359Y-88263524D01*
X154135883Y-88214189D01*
X154128521Y-88198135D01*
X154123715Y-88185315D01*
X154120615Y-88177045D01*
X154033261Y-88060489D01*
X154014472Y-88046407D01*
X153923770Y-87978430D01*
X153916705Y-87973135D01*
X153855403Y-87950154D01*
X153787597Y-87924734D01*
X153787593Y-87924733D01*
X153780316Y-87922005D01*
X153718134Y-87915250D01*
X151716866Y-87915250D01*
X151654684Y-87922005D01*
X151647407Y-87924733D01*
X151647403Y-87924734D01*
X151579597Y-87950154D01*
X151518295Y-87973135D01*
X151511230Y-87978430D01*
X151420529Y-88046407D01*
X151401739Y-88060489D01*
X151314385Y-88177045D01*
X151295862Y-88226455D01*
X151265984Y-88306153D01*
X151265983Y-88306157D01*
X151263255Y-88313434D01*
X151256500Y-88375616D01*
X151256500Y-88568102D01*
X151236815Y-88635141D01*
X151190115Y-88677904D01*
X151183845Y-88681194D01*
X151166457Y-88688685D01*
X151104780Y-88709838D01*
X151086783Y-88714536D01*
X151039972Y-88723065D01*
X150988890Y-88732372D01*
X150973190Y-88734208D01*
X150867760Y-88739764D01*
X150867755Y-88739764D01*
X150815055Y-88742542D01*
X150814369Y-88742578D01*
X150807842Y-88742750D01*
X149043472Y-88742750D01*
X148976433Y-88723065D01*
X148930678Y-88670261D01*
X148920734Y-88601103D01*
X148949759Y-88537547D01*
X149008537Y-88499773D01*
X149023840Y-88496858D01*
X149023795Y-88496623D01*
X149041608Y-88493225D01*
X149219610Y-88440836D01*
X149230806Y-88436312D01*
X149395242Y-88350347D01*
X149405338Y-88343741D01*
X149549947Y-88227473D01*
X149558572Y-88219026D01*
X149677842Y-88076885D01*
X149684657Y-88066932D01*
X149774052Y-87904325D01*
X149778803Y-87893240D01*
X149834910Y-87716368D01*
X149837419Y-87704561D01*
X149853613Y-87560192D01*
X149854000Y-87553266D01*
X149854000Y-87094830D01*
X149849596Y-87079831D01*
X149848226Y-87078644D01*
X149840668Y-87077000D01*
X148843000Y-87077000D01*
X148775961Y-87057315D01*
X148730206Y-87004511D01*
X148719000Y-86953000D01*
X148719000Y-86805170D01*
X148973000Y-86805170D01*
X148977404Y-86820169D01*
X148978774Y-86821356D01*
X148986332Y-86823000D01*
X149836170Y-86823000D01*
X149851169Y-86818596D01*
X149852356Y-86817226D01*
X149854000Y-86809668D01*
X149854000Y-86353295D01*
X149853704Y-86347237D01*
X149840179Y-86209302D01*
X149837833Y-86197454D01*
X149784204Y-86019830D01*
X149779605Y-86008671D01*
X149692494Y-85844836D01*
X149685814Y-85834783D01*
X149568537Y-85690987D01*
X149560041Y-85682431D01*
X149417065Y-85564151D01*
X149407056Y-85557401D01*
X149243844Y-85469152D01*
X149232714Y-85464473D01*
X149055459Y-85409604D01*
X149043635Y-85407177D01*
X148990729Y-85401616D01*
X148976311Y-85404253D01*
X148973000Y-85416380D01*
X148973000Y-86805170D01*
X148719000Y-86805170D01*
X148719000Y-85417179D01*
X148714791Y-85402846D01*
X148702882Y-85400816D01*
X148662240Y-85404515D01*
X148650392Y-85406775D01*
X148472390Y-85459164D01*
X148461194Y-85463688D01*
X148296758Y-85549653D01*
X148286662Y-85556259D01*
X148142053Y-85672527D01*
X148133427Y-85680975D01*
X148087771Y-85735385D01*
X148029600Y-85774087D01*
X147959739Y-85775195D01*
X147917468Y-85754187D01*
X147892876Y-85735385D01*
X147850322Y-85702850D01*
X147686192Y-85626315D01*
X147679641Y-85624851D01*
X147679639Y-85624850D01*
X147573579Y-85601143D01*
X147509457Y-85586810D01*
X147503912Y-85586500D01*
X147370756Y-85586500D01*
X147235963Y-85601143D01*
X147229596Y-85603286D01*
X147229595Y-85603286D01*
X147198303Y-85613817D01*
X147064325Y-85658906D01*
X147044841Y-85670613D01*
X147038114Y-85674655D01*
X146970512Y-85692310D01*
X146904096Y-85670613D01*
X146882100Y-85651338D01*
X146880408Y-85649458D01*
X146862126Y-85629154D01*
X146856100Y-85622461D01*
X146856096Y-85622457D01*
X146851753Y-85617634D01*
X146697252Y-85505382D01*
X146522788Y-85427706D01*
X146469504Y-85416380D01*
X146342350Y-85389352D01*
X146342345Y-85389352D01*
X146335987Y-85388000D01*
X146145013Y-85388000D01*
X146138655Y-85389352D01*
X146138650Y-85389352D01*
X146011496Y-85416380D01*
X145958212Y-85427706D01*
X145783748Y-85505382D01*
X145629247Y-85617634D01*
X145624901Y-85622461D01*
X145623374Y-85623836D01*
X145560383Y-85654067D01*
X145533447Y-85655493D01*
X145517737Y-85654611D01*
X145453720Y-85651015D01*
X145439903Y-85649458D01*
X145267373Y-85620144D01*
X145236047Y-85614822D01*
X145222491Y-85611728D01*
X145193189Y-85603286D01*
X145123139Y-85583105D01*
X145023787Y-85554482D01*
X145010662Y-85549889D01*
X144819625Y-85470759D01*
X144807096Y-85464725D01*
X144785724Y-85452913D01*
X144736572Y-85403257D01*
X144722386Y-85357350D01*
X144721723Y-85351041D01*
X144721721Y-85351031D01*
X144721042Y-85344572D01*
X144701098Y-85283192D01*
X144664035Y-85169122D01*
X144664033Y-85169117D01*
X144662027Y-85162944D01*
X144655892Y-85152317D01*
X144569788Y-85003182D01*
X144566540Y-84997556D01*
X144438753Y-84855634D01*
X144284252Y-84743382D01*
X144109788Y-84665706D01*
X144079661Y-84659302D01*
X143929350Y-84627352D01*
X143929345Y-84627352D01*
X143922987Y-84626000D01*
X143732013Y-84626000D01*
X143725655Y-84627352D01*
X143725650Y-84627352D01*
X143575339Y-84659302D01*
X143545212Y-84665706D01*
X143370748Y-84743382D01*
X143216247Y-84855634D01*
X143088460Y-84997556D01*
X143085212Y-85003182D01*
X142999109Y-85152317D01*
X142992973Y-85162944D01*
X142990967Y-85169117D01*
X142990965Y-85169122D01*
X142953902Y-85283192D01*
X142933958Y-85344572D01*
X142913996Y-85534500D01*
X142933958Y-85724428D01*
X142945979Y-85761425D01*
X142990965Y-85899878D01*
X142990967Y-85899883D01*
X142992973Y-85906056D01*
X142996220Y-85911681D01*
X142996221Y-85911682D01*
X143012482Y-85939846D01*
X143088460Y-86071444D01*
X143216247Y-86213366D01*
X143370748Y-86325618D01*
X143545212Y-86403294D01*
X143551574Y-86404646D01*
X143551573Y-86404646D01*
X143725650Y-86441648D01*
X143725655Y-86441648D01*
X143732013Y-86443000D01*
X143922987Y-86443000D01*
X143922987Y-86445549D01*
X143980497Y-86456071D01*
X143988469Y-86460460D01*
X144137644Y-86549873D01*
X144137653Y-86549878D01*
X144140261Y-86551441D01*
X144427606Y-86687345D01*
X144430480Y-86688373D01*
X144430484Y-86688375D01*
X144724021Y-86793404D01*
X144724024Y-86793405D01*
X144726889Y-86794430D01*
X145035226Y-86871665D01*
X145093266Y-86880274D01*
X145346633Y-86917858D01*
X145346641Y-86917859D01*
X145349649Y-86918305D01*
X145454504Y-86923456D01*
X145536894Y-86927504D01*
X145602886Y-86950455D01*
X145622955Y-86968379D01*
X145624892Y-86970530D01*
X145624895Y-86970533D01*
X145629247Y-86975366D01*
X145634505Y-86979186D01*
X145634506Y-86979187D01*
X145684660Y-87015626D01*
X145783748Y-87087618D01*
X145958212Y-87165294D01*
X145964574Y-87166646D01*
X145964573Y-87166646D01*
X146138650Y-87203648D01*
X146138655Y-87203648D01*
X146145013Y-87205000D01*
X146335987Y-87205000D01*
X146342345Y-87203648D01*
X146342350Y-87203648D01*
X146516427Y-87166646D01*
X146516426Y-87166646D01*
X146522788Y-87165294D01*
X146697252Y-87087618D01*
X146702508Y-87083799D01*
X146702512Y-87083797D01*
X146735098Y-87060122D01*
X146800904Y-87036642D01*
X146868958Y-87052467D01*
X146883296Y-87061931D01*
X146981678Y-87137150D01*
X147145808Y-87213685D01*
X147152359Y-87215149D01*
X147152361Y-87215150D01*
X147191118Y-87223813D01*
X147322543Y-87253190D01*
X147328088Y-87253500D01*
X147461244Y-87253500D01*
X147596037Y-87238857D01*
X147674450Y-87212468D01*
X147744265Y-87209741D01*
X147804472Y-87245193D01*
X147835956Y-87307567D01*
X147838000Y-87329991D01*
X147838000Y-87546705D01*
X147838296Y-87552763D01*
X147851821Y-87690698D01*
X147854167Y-87702546D01*
X147907796Y-87880170D01*
X147912395Y-87891329D01*
X147999506Y-88055164D01*
X148006186Y-88065217D01*
X148123463Y-88209013D01*
X148131959Y-88217569D01*
X148274935Y-88335849D01*
X148284944Y-88342599D01*
X148448156Y-88430848D01*
X148459286Y-88435527D01*
X148636541Y-88490396D01*
X148648365Y-88492823D01*
X148673160Y-88495429D01*
X148737775Y-88522013D01*
X148777760Y-88579311D01*
X148780420Y-88649130D01*
X148744911Y-88709303D01*
X148682506Y-88740727D01*
X148660199Y-88742750D01*
X140579777Y-88742750D01*
X140563592Y-88741689D01*
X140561716Y-88741442D01*
X140536574Y-88738132D01*
X140529147Y-88738952D01*
X140529141Y-88738952D01*
X140516851Y-88740309D01*
X140496292Y-88740863D01*
X140426421Y-88736939D01*
X140360591Y-88713526D01*
X140317869Y-88658240D01*
X140311819Y-88588633D01*
X140344362Y-88526804D01*
X140398364Y-88494179D01*
X140579610Y-88440836D01*
X140590806Y-88436312D01*
X140755242Y-88350347D01*
X140765338Y-88343741D01*
X140909947Y-88227473D01*
X140918572Y-88219026D01*
X141037842Y-88076885D01*
X141044657Y-88066932D01*
X141134052Y-87904325D01*
X141138803Y-87893240D01*
X141194910Y-87716368D01*
X141197419Y-87704561D01*
X141213613Y-87560192D01*
X141214000Y-87553266D01*
X141214000Y-87334441D01*
X141233685Y-87267402D01*
X141286489Y-87221647D01*
X141355647Y-87211703D01*
X141365711Y-87214117D01*
X141365808Y-87213685D01*
X141542543Y-87253190D01*
X141548088Y-87253500D01*
X141681244Y-87253500D01*
X141816037Y-87238857D01*
X141987675Y-87181094D01*
X142068841Y-87132325D01*
X142137147Y-87091283D01*
X142137149Y-87091282D01*
X142142905Y-87087823D01*
X142147782Y-87083211D01*
X142147786Y-87083208D01*
X142269606Y-86968007D01*
X142269607Y-86968006D01*
X142274485Y-86963393D01*
X142297204Y-86929963D01*
X142372505Y-86819163D01*
X142372507Y-86819160D01*
X142376277Y-86813612D01*
X142381836Y-86799715D01*
X142441036Y-86651701D01*
X142443530Y-86645466D01*
X142473108Y-86466802D01*
X142463630Y-86285953D01*
X142415539Y-86111359D01*
X142331078Y-85951164D01*
X142322088Y-85940525D01*
X142232728Y-85834783D01*
X142214187Y-85812843D01*
X142070322Y-85702850D01*
X141906192Y-85626315D01*
X141899641Y-85624851D01*
X141899639Y-85624850D01*
X141793579Y-85601143D01*
X141729457Y-85586810D01*
X141723912Y-85586500D01*
X141590756Y-85586500D01*
X141455963Y-85601143D01*
X141449596Y-85603286D01*
X141449595Y-85603286D01*
X141418303Y-85613817D01*
X141284325Y-85658906D01*
X141247596Y-85680975D01*
X141134854Y-85748716D01*
X141134850Y-85748719D01*
X141129095Y-85752177D01*
X141129024Y-85752059D01*
X141066583Y-85775823D01*
X140998213Y-85761425D01*
X140960822Y-85730572D01*
X140928537Y-85690987D01*
X140920041Y-85682431D01*
X140777065Y-85564151D01*
X140767056Y-85557401D01*
X140603844Y-85469152D01*
X140592714Y-85464473D01*
X140415459Y-85409604D01*
X140403635Y-85407177D01*
X140350729Y-85401616D01*
X140336311Y-85404253D01*
X140333000Y-85416380D01*
X140333000Y-86953000D01*
X140313315Y-87020039D01*
X140260511Y-87065794D01*
X140209000Y-87077000D01*
X139215830Y-87077000D01*
X139200831Y-87081404D01*
X139199644Y-87082774D01*
X139198000Y-87090332D01*
X139198000Y-87546705D01*
X139198296Y-87552763D01*
X139211821Y-87690698D01*
X139214167Y-87702546D01*
X139267796Y-87880170D01*
X139272395Y-87891329D01*
X139359506Y-88055164D01*
X139366186Y-88065217D01*
X139483463Y-88209013D01*
X139491962Y-88217572D01*
X139505640Y-88228887D01*
X139544748Y-88286786D01*
X139546346Y-88356638D01*
X139509925Y-88416264D01*
X139447049Y-88446734D01*
X139377682Y-88438374D01*
X139366621Y-88432960D01*
X139276933Y-88383392D01*
X139265158Y-88375993D01*
X139060083Y-88230484D01*
X139049211Y-88221815D01*
X138887056Y-88076905D01*
X138871306Y-88059930D01*
X138869065Y-88057009D01*
X138869062Y-88057006D01*
X138864514Y-88051079D01*
X138836996Y-88029033D01*
X138826845Y-88019941D01*
X138759259Y-87952354D01*
X138747781Y-87939126D01*
X138736263Y-87923786D01*
X138733826Y-87920540D01*
X138728646Y-87915250D01*
X138727319Y-87913895D01*
X138727317Y-87913893D01*
X138724475Y-87910991D01*
X138721281Y-87908486D01*
X138721269Y-87908476D01*
X138718316Y-87906161D01*
X138711556Y-87900460D01*
X138497993Y-87706897D01*
X138497987Y-87706892D01*
X138495735Y-87704851D01*
X138490749Y-87701153D01*
X138250881Y-87523254D01*
X138250872Y-87523248D01*
X138248445Y-87521448D01*
X138222360Y-87505813D01*
X137986986Y-87364735D01*
X137986977Y-87364730D01*
X137984369Y-87363167D01*
X137706050Y-87231533D01*
X137543706Y-87173445D01*
X137419041Y-87128839D01*
X137419036Y-87128838D01*
X137416170Y-87127812D01*
X137413223Y-87127074D01*
X137413217Y-87127072D01*
X137120469Y-87053743D01*
X137120465Y-87053742D01*
X137117518Y-87053004D01*
X136812973Y-87007829D01*
X136586236Y-86996690D01*
X136586311Y-86995165D01*
X136585496Y-86995268D01*
X136585496Y-86996500D01*
X136585419Y-86996500D01*
X136582364Y-86996425D01*
X136582360Y-86996499D01*
X136579453Y-86996356D01*
X136579418Y-86996353D01*
X136579335Y-86996351D01*
X136577632Y-86996267D01*
X136577630Y-86996267D01*
X136574728Y-86996125D01*
X136574723Y-86996124D01*
X136548161Y-86994819D01*
X136539474Y-86994393D01*
X136528093Y-86993306D01*
X136518829Y-86991987D01*
X136514775Y-86991945D01*
X136514768Y-86991944D01*
X136512055Y-86991916D01*
X136505465Y-86991847D01*
X136501433Y-86992335D01*
X136501432Y-86992335D01*
X136474436Y-86995602D01*
X136459539Y-86996500D01*
X136407889Y-86996500D01*
X136390417Y-86995263D01*
X136371418Y-86992559D01*
X136367399Y-86991987D01*
X136363345Y-86991945D01*
X136363338Y-86991944D01*
X136360625Y-86991916D01*
X136354035Y-86991847D01*
X136350003Y-86992335D01*
X136350002Y-86992335D01*
X136346259Y-86992788D01*
X136337446Y-86993537D01*
X136046527Y-87007829D01*
X135741982Y-87053004D01*
X135739035Y-87053742D01*
X135739031Y-87053743D01*
X135446283Y-87127072D01*
X135446277Y-87127074D01*
X135443330Y-87127812D01*
X135440464Y-87128838D01*
X135440459Y-87128839D01*
X135315794Y-87173445D01*
X135153450Y-87231533D01*
X134875131Y-87363167D01*
X134872523Y-87364730D01*
X134872514Y-87364735D01*
X134637140Y-87505813D01*
X134611055Y-87521448D01*
X134608628Y-87523248D01*
X134608619Y-87523254D01*
X134368751Y-87701153D01*
X134363765Y-87704851D01*
X134361513Y-87706892D01*
X134361507Y-87706897D01*
X134195558Y-87857305D01*
X134194532Y-87856173D01*
X134194033Y-87856819D01*
X134194905Y-87857691D01*
X134194865Y-87857731D01*
X134192672Y-87859819D01*
X134192722Y-87859874D01*
X134192710Y-87859886D01*
X134190516Y-87861874D01*
X134190506Y-87861883D01*
X134190488Y-87861900D01*
X134167064Y-87883130D01*
X134104173Y-87913564D01*
X134083793Y-87915250D01*
X132666866Y-87915250D01*
X132604684Y-87922005D01*
X132597407Y-87924733D01*
X132597403Y-87924734D01*
X132529597Y-87950154D01*
X132468295Y-87973135D01*
X132461230Y-87978430D01*
X132370529Y-88046407D01*
X132351739Y-88060489D01*
X132264385Y-88177045D01*
X132245862Y-88226455D01*
X132215984Y-88306153D01*
X132215983Y-88306157D01*
X132213255Y-88313434D01*
X132206500Y-88375616D01*
X132206500Y-89938180D01*
X132186815Y-90005219D01*
X132180878Y-90013664D01*
X132026843Y-90214406D01*
X132025396Y-90216677D01*
X132025392Y-90216683D01*
X131810900Y-90553369D01*
X131809449Y-90555647D01*
X131808200Y-90558046D01*
X131808199Y-90558048D01*
X131691375Y-90782465D01*
X131622623Y-90914537D01*
X131621585Y-90917042D01*
X131621584Y-90917045D01*
X131587478Y-90999384D01*
X131467787Y-91288344D01*
X131346119Y-91674224D01*
X131345536Y-91676854D01*
X131267761Y-92027675D01*
X131258546Y-92069239D01*
X131205735Y-92470383D01*
X131188624Y-92862287D01*
X131187882Y-92867921D01*
X131188237Y-92871139D01*
X131188086Y-92874604D01*
X131188620Y-92874604D01*
X131188702Y-92875345D01*
X131191751Y-92902965D01*
X131192500Y-92916572D01*
X131192500Y-93551635D01*
X131172815Y-93618674D01*
X131120011Y-93664429D01*
X131050853Y-93674373D01*
X130987297Y-93645348D01*
X130974845Y-93632905D01*
X130828958Y-93464785D01*
X130828954Y-93464781D01*
X130825515Y-93460818D01*
X130643956Y-93311949D01*
X130599094Y-93286412D01*
X130444468Y-93198393D01*
X130444463Y-93198391D01*
X130439910Y-93195799D01*
X130219211Y-93115689D01*
X129988170Y-93073910D01*
X129963571Y-93072750D01*
X129798550Y-93072750D01*
X129795934Y-93072972D01*
X129795933Y-93072972D01*
X129784879Y-93073910D01*
X129623552Y-93087599D01*
X129396294Y-93146583D01*
X129391502Y-93148742D01*
X129391501Y-93148742D01*
X129353855Y-93165700D01*
X129182222Y-93243016D01*
X128987459Y-93374138D01*
X128817573Y-93536201D01*
X128677422Y-93724571D01*
X128675043Y-93729249D01*
X128675043Y-93729250D01*
X128616824Y-93843759D01*
X128571013Y-93933862D01*
X128569459Y-93938867D01*
X128502945Y-94153077D01*
X128502944Y-94153083D01*
X128501389Y-94158090D01*
X128500699Y-94163294D01*
X128500699Y-94163295D01*
X128483250Y-94294946D01*
X128470539Y-94390843D01*
X128470736Y-94396085D01*
X128478760Y-94609793D01*
X128479348Y-94625466D01*
X128527562Y-94855251D01*
X128558069Y-94932500D01*
X128587268Y-95006437D01*
X128613802Y-95073627D01*
X128735604Y-95274350D01*
X128766066Y-95309454D01*
X128886042Y-95447715D01*
X128886046Y-95447719D01*
X128889485Y-95451682D01*
X129071044Y-95600551D01*
X129075605Y-95603147D01*
X129075606Y-95603148D01*
X129270532Y-95714107D01*
X129270537Y-95714109D01*
X129275090Y-95716701D01*
X129495789Y-95796811D01*
X129726830Y-95838590D01*
X129751429Y-95839750D01*
X129916450Y-95839750D01*
X129919066Y-95839528D01*
X129919067Y-95839528D01*
X130086215Y-95825345D01*
X130091448Y-95824901D01*
X130318706Y-95765917D01*
X130532778Y-95669484D01*
X130727541Y-95538362D01*
X130737054Y-95529287D01*
X130757342Y-95509934D01*
X130819438Y-95477904D01*
X130888992Y-95484530D01*
X130943923Y-95527708D01*
X130966790Y-95593730D01*
X130959684Y-95641430D01*
X130947957Y-95674204D01*
X130938294Y-95701210D01*
X130933638Y-95712451D01*
X130797590Y-96000101D01*
X130791853Y-96010833D01*
X130628273Y-96283749D01*
X130621519Y-96293859D01*
X130545479Y-96396387D01*
X130431969Y-96549438D01*
X130424249Y-96558844D01*
X130236961Y-96765485D01*
X130219532Y-96781375D01*
X130215984Y-96784038D01*
X130215973Y-96784047D01*
X130212733Y-96786480D01*
X130208166Y-96790953D01*
X130207935Y-96791130D01*
X130207753Y-96791358D01*
X130203185Y-96795831D01*
X130202010Y-96797330D01*
X130201190Y-96797838D01*
X130201435Y-96798063D01*
X129928711Y-97095688D01*
X129681249Y-97418187D01*
X129624612Y-97507090D01*
X129483458Y-97728658D01*
X129462837Y-97761026D01*
X129461588Y-97763425D01*
X129461587Y-97763427D01*
X129298721Y-98076290D01*
X129275136Y-98121596D01*
X129119575Y-98497153D01*
X128997338Y-98884839D01*
X128993273Y-98903174D01*
X128918999Y-99238205D01*
X128909355Y-99281704D01*
X128856296Y-99684727D01*
X128849318Y-99844556D01*
X128839759Y-100063492D01*
X128839092Y-100078761D01*
X128838382Y-100084157D01*
X128838722Y-100087239D01*
X128838565Y-100090840D01*
X128839120Y-100090840D01*
X128841039Y-100108223D01*
X128842251Y-100119201D01*
X128843000Y-100132808D01*
X128843000Y-101482646D01*
X128841763Y-101500118D01*
X128838487Y-101523136D01*
X128838347Y-101536500D01*
X128838248Y-101536499D01*
X128837979Y-101537643D01*
X128838483Y-101537625D01*
X128856669Y-102046819D01*
X128911254Y-102554537D01*
X128911642Y-102556686D01*
X128911643Y-102556695D01*
X128996238Y-103025571D01*
X129001921Y-103057068D01*
X129002471Y-103059222D01*
X129002471Y-103059223D01*
X129082119Y-103371281D01*
X129128206Y-103551850D01*
X129289468Y-104036362D01*
X129484883Y-104508136D01*
X129485876Y-104510119D01*
X129485877Y-104510122D01*
X129561703Y-104661603D01*
X129713456Y-104964767D01*
X129832302Y-105165071D01*
X129964748Y-105388297D01*
X129974022Y-105403928D01*
X129975277Y-105405735D01*
X129975285Y-105405748D01*
X130112925Y-105603987D01*
X130265254Y-105823382D01*
X130266646Y-105825110D01*
X130266648Y-105825112D01*
X130579941Y-106213885D01*
X130585667Y-106220991D01*
X130744526Y-106391618D01*
X130920011Y-106580103D01*
X130922114Y-106582455D01*
X130924211Y-106585248D01*
X130933562Y-106594796D01*
X130958165Y-106614087D01*
X130969326Y-106623980D01*
X131869213Y-107523867D01*
X131873689Y-107528584D01*
X131980107Y-107646842D01*
X131989903Y-107659235D01*
X132002820Y-107677909D01*
X132002958Y-107678107D01*
X132046503Y-107741054D01*
X132055910Y-107757106D01*
X132084565Y-107815677D01*
X132091563Y-107833270D01*
X132108805Y-107888585D01*
X132112504Y-107903755D01*
X132125998Y-107979565D01*
X132127291Y-107988848D01*
X132138640Y-108101342D01*
X132138839Y-108103502D01*
X132145363Y-108181878D01*
X132150785Y-108247007D01*
X132151643Y-108256282D01*
X132151684Y-108256685D01*
X132152590Y-108264923D01*
X132152616Y-108265143D01*
X132152627Y-108265239D01*
X132171277Y-108422951D01*
X132171525Y-108425050D01*
X132174035Y-108443401D01*
X132174166Y-108444244D01*
X132177348Y-108462518D01*
X132197378Y-108566287D01*
X132204253Y-108601903D01*
X132206500Y-108625404D01*
X132206500Y-109426884D01*
X132213255Y-109489066D01*
X132215983Y-109496343D01*
X132215984Y-109496347D01*
X132245308Y-109574568D01*
X132264385Y-109625455D01*
X132351739Y-109742011D01*
X132468295Y-109829365D01*
X132519182Y-109848442D01*
X132597403Y-109877766D01*
X132597407Y-109877767D01*
X132604684Y-109880495D01*
X132666866Y-109887250D01*
X134668134Y-109887250D01*
X134730316Y-109880495D01*
X134737593Y-109877767D01*
X134737597Y-109877766D01*
X134815818Y-109848442D01*
X134866705Y-109829365D01*
X134983261Y-109742011D01*
X135070615Y-109625455D01*
X135079206Y-109602537D01*
X135121171Y-109546674D01*
X135186676Y-109522367D01*
X135254924Y-109537334D01*
X135274517Y-109550657D01*
X135366633Y-109627133D01*
X135371028Y-109629701D01*
X135371032Y-109629704D01*
X135569662Y-109745774D01*
X135569666Y-109745776D01*
X135574059Y-109748343D01*
X135798497Y-109834047D01*
X135876285Y-109849873D01*
X136028934Y-109880930D01*
X136028936Y-109880930D01*
X136033919Y-109881944D01*
X136189069Y-109887633D01*
X136268923Y-109890562D01*
X136268926Y-109890562D01*
X136274002Y-109890748D01*
X136512300Y-109860221D01*
X136596163Y-109835061D01*
X136737543Y-109792645D01*
X136737545Y-109792644D01*
X136742412Y-109791184D01*
X136746975Y-109788948D01*
X136746979Y-109788947D01*
X136857208Y-109734946D01*
X136958158Y-109685491D01*
X137036369Y-109629704D01*
X137149602Y-109548935D01*
X137153745Y-109545980D01*
X137323920Y-109376398D01*
X137464113Y-109181299D01*
X137570559Y-108965923D01*
X137640399Y-108736054D01*
X137671757Y-108497864D01*
X137673507Y-108426250D01*
X137659567Y-108256685D01*
X137654239Y-108191885D01*
X137653822Y-108186813D01*
X137602926Y-107984190D01*
X137596532Y-107958733D01*
X137596530Y-107958728D01*
X137595294Y-107953806D01*
X137499497Y-107733487D01*
X137369002Y-107531773D01*
X137272407Y-107425616D01*
X137210746Y-107357851D01*
X137210742Y-107357847D01*
X137207314Y-107354080D01*
X137018776Y-107205182D01*
X136882778Y-107130107D01*
X136812905Y-107091535D01*
X136812902Y-107091534D01*
X136808450Y-107089076D01*
X136581985Y-107008880D01*
X136481832Y-106991040D01*
X136350473Y-106967641D01*
X136350468Y-106967641D01*
X136345463Y-106966749D01*
X136252483Y-106965613D01*
X136110327Y-106963876D01*
X136110325Y-106963876D01*
X136105237Y-106963814D01*
X136100208Y-106964584D01*
X136100202Y-106964584D01*
X135986497Y-106981984D01*
X135867756Y-107000154D01*
X135639399Y-107074792D01*
X135634885Y-107077142D01*
X135430815Y-107183374D01*
X135430809Y-107183378D01*
X135426300Y-107185725D01*
X135422230Y-107188781D01*
X135269082Y-107303768D01*
X135203653Y-107328278D01*
X135135359Y-107313524D01*
X135085883Y-107264189D01*
X135078521Y-107248135D01*
X135070615Y-107227045D01*
X134983261Y-107110489D01*
X134933523Y-107073212D01*
X134873770Y-107028430D01*
X134866705Y-107023135D01*
X134805403Y-107000154D01*
X134737597Y-106974734D01*
X134737593Y-106974733D01*
X134730316Y-106972005D01*
X134668134Y-106965250D01*
X133866654Y-106965250D01*
X133843153Y-106963003D01*
X133794548Y-106953621D01*
X133703768Y-106936098D01*
X133693137Y-106934247D01*
X133686098Y-106933021D01*
X133686080Y-106933018D01*
X133685494Y-106932916D01*
X133684651Y-106932785D01*
X133666302Y-106930275D01*
X133665785Y-106930214D01*
X133665747Y-106930209D01*
X133598524Y-106922260D01*
X133598514Y-106922259D01*
X133506434Y-106911371D01*
X133506342Y-106911361D01*
X133506159Y-106911339D01*
X133502662Y-106910954D01*
X133498424Y-106910486D01*
X133498321Y-106910475D01*
X133498103Y-106910451D01*
X133497721Y-106910412D01*
X133488268Y-106909536D01*
X133488133Y-106909525D01*
X133488102Y-106909522D01*
X133429308Y-106904628D01*
X133344744Y-106897588D01*
X133342655Y-106897396D01*
X133307615Y-106893861D01*
X133230094Y-106886040D01*
X133220811Y-106884747D01*
X133179127Y-106877328D01*
X133145005Y-106871255D01*
X133129841Y-106867558D01*
X133074526Y-106850316D01*
X133056935Y-106843318D01*
X132998356Y-106814659D01*
X132982304Y-106805253D01*
X132978961Y-106802940D01*
X132900480Y-106748650D01*
X132888080Y-106738846D01*
X132769859Y-106632462D01*
X132765123Y-106627969D01*
X131868030Y-105730875D01*
X131857335Y-105718680D01*
X131840747Y-105697062D01*
X131821715Y-105681814D01*
X131808494Y-105669541D01*
X131773785Y-105632260D01*
X131667080Y-105517651D01*
X131549666Y-105391539D01*
X131543870Y-105384849D01*
X131285965Y-105064810D01*
X131280660Y-105057724D01*
X131269119Y-105041101D01*
X131132936Y-104844960D01*
X131046256Y-104720117D01*
X131041470Y-104712671D01*
X130831734Y-104359181D01*
X130827492Y-104351412D01*
X130718016Y-104132708D01*
X130643511Y-103983865D01*
X130639836Y-103975818D01*
X130638400Y-103972350D01*
X130482541Y-103596073D01*
X130479464Y-103587827D01*
X130349652Y-103197802D01*
X130347163Y-103189323D01*
X130245517Y-102791077D01*
X130243635Y-102782428D01*
X130170657Y-102377937D01*
X130169397Y-102369175D01*
X130125460Y-101960504D01*
X130124829Y-101951675D01*
X130115616Y-101693728D01*
X130111543Y-101579682D01*
X130112524Y-101559086D01*
X130114618Y-101543183D01*
X130113742Y-101535243D01*
X130110749Y-101508138D01*
X130110000Y-101494531D01*
X130110000Y-100777974D01*
X131341428Y-100777974D01*
X131348109Y-100787523D01*
X131430974Y-100858296D01*
X131438833Y-100864006D01*
X131649682Y-100993214D01*
X131658346Y-100997629D01*
X131886815Y-101092264D01*
X131896051Y-101095265D01*
X132136520Y-101152997D01*
X132146105Y-101154515D01*
X132392646Y-101173918D01*
X132402354Y-101173918D01*
X132648895Y-101154515D01*
X132658480Y-101152997D01*
X132898949Y-101095265D01*
X132908185Y-101092264D01*
X133136654Y-100997629D01*
X133145318Y-100993214D01*
X133356167Y-100864006D01*
X133364026Y-100858296D01*
X133445351Y-100788839D01*
X133453644Y-100776133D01*
X133447732Y-100766087D01*
X132410107Y-99728462D01*
X132396387Y-99720970D01*
X132394581Y-99721099D01*
X132388074Y-99725281D01*
X131348701Y-100764654D01*
X131341428Y-100777974D01*
X130110000Y-100777974D01*
X130110000Y-100144694D01*
X130111237Y-100127222D01*
X130113941Y-100108223D01*
X130114513Y-100104204D01*
X130114653Y-100090840D01*
X130113711Y-100083058D01*
X130112610Y-100073951D01*
X130111861Y-100052974D01*
X130126016Y-99764822D01*
X130127209Y-99752711D01*
X130158598Y-99541104D01*
X130759832Y-99541104D01*
X130779235Y-99787645D01*
X130780753Y-99797230D01*
X130838485Y-100037699D01*
X130841486Y-100046935D01*
X130936121Y-100275404D01*
X130940536Y-100284068D01*
X131069744Y-100494917D01*
X131075454Y-100502776D01*
X131144911Y-100584101D01*
X131157617Y-100592394D01*
X131167663Y-100586482D01*
X132205288Y-99548857D01*
X132211564Y-99537363D01*
X132582220Y-99537363D01*
X132582349Y-99539169D01*
X132586531Y-99545676D01*
X133625904Y-100585049D01*
X133639224Y-100592322D01*
X133648773Y-100585641D01*
X133719546Y-100502776D01*
X133725256Y-100494917D01*
X133854464Y-100284068D01*
X133858879Y-100275404D01*
X133953514Y-100046935D01*
X133956515Y-100037699D01*
X134014247Y-99797230D01*
X134015765Y-99787645D01*
X134035168Y-99541104D01*
X134035168Y-99531396D01*
X134015765Y-99284855D01*
X134014247Y-99275270D01*
X133956515Y-99034801D01*
X133953514Y-99025565D01*
X133858879Y-98797096D01*
X133854464Y-98788432D01*
X133725256Y-98577583D01*
X133719546Y-98569724D01*
X133650089Y-98488399D01*
X133637383Y-98480106D01*
X133627337Y-98486018D01*
X132589712Y-99523643D01*
X132582220Y-99537363D01*
X132211564Y-99537363D01*
X132212780Y-99535137D01*
X132212651Y-99533331D01*
X132208469Y-99526824D01*
X131169096Y-98487451D01*
X131155776Y-98480178D01*
X131146227Y-98486859D01*
X131075454Y-98569724D01*
X131069744Y-98577583D01*
X130940536Y-98788432D01*
X130936121Y-98797096D01*
X130841486Y-99025565D01*
X130838485Y-99034801D01*
X130780753Y-99275270D01*
X130779235Y-99284855D01*
X130759832Y-99531396D01*
X130759832Y-99541104D01*
X130158598Y-99541104D01*
X130174210Y-99435859D01*
X130176584Y-99423925D01*
X130254414Y-99113207D01*
X130257947Y-99101561D01*
X130273373Y-99058450D01*
X130308176Y-98961181D01*
X130365857Y-98799975D01*
X130370513Y-98788733D01*
X130507472Y-98499158D01*
X130513209Y-98488426D01*
X130628325Y-98296367D01*
X131341356Y-98296367D01*
X131347268Y-98306413D01*
X132384893Y-99344038D01*
X132398613Y-99351530D01*
X132400419Y-99351401D01*
X132406926Y-99347219D01*
X133446299Y-98307846D01*
X133453572Y-98294526D01*
X133446891Y-98284977D01*
X133364026Y-98214204D01*
X133356167Y-98208494D01*
X133145318Y-98079286D01*
X133136654Y-98074871D01*
X132908185Y-97980236D01*
X132898949Y-97977235D01*
X132658480Y-97919503D01*
X132648895Y-97917985D01*
X132402354Y-97898582D01*
X132392646Y-97898582D01*
X132146105Y-97917985D01*
X132136520Y-97919503D01*
X131896051Y-97977235D01*
X131886815Y-97980236D01*
X131658346Y-98074871D01*
X131649682Y-98079286D01*
X131438833Y-98208494D01*
X131430974Y-98214204D01*
X131349649Y-98283661D01*
X131341356Y-98296367D01*
X130628325Y-98296367D01*
X130677880Y-98213689D01*
X130684640Y-98203571D01*
X130875460Y-97946280D01*
X130883180Y-97936874D01*
X131071896Y-97728658D01*
X131089323Y-97712770D01*
X131092863Y-97710112D01*
X131092869Y-97710107D01*
X131096120Y-97707666D01*
X131100685Y-97703195D01*
X131100919Y-97703016D01*
X131101103Y-97702786D01*
X131105669Y-97698315D01*
X131106983Y-97696639D01*
X131107848Y-97696103D01*
X131107589Y-97695866D01*
X131280713Y-97506935D01*
X131378848Y-97399840D01*
X131625157Y-97078844D01*
X131677775Y-96996250D01*
X137108949Y-96996250D01*
X137109331Y-97001104D01*
X137123487Y-97180970D01*
X137129122Y-97252576D01*
X137130257Y-97257303D01*
X137130258Y-97257310D01*
X137169427Y-97420459D01*
X137189145Y-97502590D01*
X137191009Y-97507090D01*
X137285580Y-97735404D01*
X137287540Y-97740137D01*
X137421884Y-97959366D01*
X137588869Y-98154881D01*
X137784384Y-98321866D01*
X138003613Y-98456210D01*
X138008113Y-98458074D01*
X138008117Y-98458076D01*
X138213952Y-98543335D01*
X138241160Y-98554605D01*
X138245896Y-98555742D01*
X138486440Y-98613492D01*
X138486447Y-98613493D01*
X138491174Y-98614628D01*
X138496024Y-98615010D01*
X138496026Y-98615010D01*
X138742646Y-98634419D01*
X138747500Y-98634801D01*
X138752354Y-98634419D01*
X138998974Y-98615010D01*
X138998976Y-98615010D01*
X139003826Y-98614628D01*
X139008553Y-98613493D01*
X139008560Y-98613492D01*
X139249104Y-98555742D01*
X139253840Y-98554605D01*
X139281048Y-98543335D01*
X139486883Y-98458076D01*
X139486887Y-98458074D01*
X139491387Y-98456210D01*
X139710616Y-98321866D01*
X139906131Y-98154881D01*
X140073116Y-97959366D01*
X140207460Y-97740137D01*
X140209421Y-97735404D01*
X140303991Y-97507090D01*
X140305855Y-97502590D01*
X140325573Y-97420459D01*
X140364742Y-97257310D01*
X140364743Y-97257303D01*
X140365878Y-97252576D01*
X140371514Y-97180970D01*
X140385669Y-97001104D01*
X140386051Y-96996250D01*
X140375212Y-96858528D01*
X140366260Y-96744776D01*
X140366260Y-96744774D01*
X140365878Y-96739924D01*
X140364743Y-96735197D01*
X140364742Y-96735190D01*
X140306992Y-96494646D01*
X140305855Y-96489910D01*
X140294585Y-96462702D01*
X140209326Y-96256867D01*
X140209324Y-96256863D01*
X140207460Y-96252363D01*
X140073116Y-96033134D01*
X140069947Y-96029424D01*
X140069741Y-96029140D01*
X140046260Y-95963335D01*
X140062084Y-95895280D01*
X140112189Y-95846584D01*
X140159574Y-95832697D01*
X140246215Y-95825345D01*
X140251448Y-95824901D01*
X140478706Y-95765917D01*
X140692778Y-95669484D01*
X140887541Y-95538362D01*
X141057427Y-95376299D01*
X141197578Y-95187929D01*
X141227739Y-95128607D01*
X141301611Y-94983312D01*
X141301613Y-94983308D01*
X141303987Y-94978638D01*
X141340782Y-94860137D01*
X141372055Y-94759423D01*
X141372056Y-94759417D01*
X141373611Y-94754410D01*
X141376436Y-94733095D01*
X141403772Y-94526858D01*
X141403772Y-94526854D01*
X141404461Y-94521657D01*
X141397052Y-94324326D01*
X141395849Y-94292278D01*
X141395849Y-94292277D01*
X141395652Y-94287034D01*
X141389658Y-94258463D01*
X141348517Y-94062391D01*
X141348517Y-94062390D01*
X141347438Y-94057249D01*
X141261198Y-93838873D01*
X141139396Y-93638150D01*
X141047783Y-93532575D01*
X140988958Y-93464785D01*
X140988954Y-93464781D01*
X140985515Y-93460818D01*
X140803956Y-93311949D01*
X140759094Y-93286412D01*
X140604468Y-93198393D01*
X140604463Y-93198391D01*
X140599910Y-93195799D01*
X140379211Y-93115689D01*
X140148170Y-93073910D01*
X140123571Y-93072750D01*
X139958550Y-93072750D01*
X139955934Y-93072972D01*
X139955933Y-93072972D01*
X139944879Y-93073910D01*
X139783552Y-93087599D01*
X139556294Y-93146583D01*
X139551502Y-93148742D01*
X139551501Y-93148742D01*
X139513855Y-93165700D01*
X139342222Y-93243016D01*
X139147459Y-93374138D01*
X138977573Y-93536201D01*
X138837422Y-93724571D01*
X138835043Y-93729249D01*
X138835043Y-93729250D01*
X138776824Y-93843759D01*
X138731013Y-93933862D01*
X138729459Y-93938867D01*
X138662945Y-94153077D01*
X138662944Y-94153083D01*
X138661389Y-94158090D01*
X138660699Y-94163294D01*
X138660699Y-94163295D01*
X138643250Y-94294946D01*
X138630539Y-94390843D01*
X138630736Y-94396085D01*
X138638760Y-94609793D01*
X138639348Y-94625466D01*
X138687562Y-94855251D01*
X138718069Y-94932500D01*
X138747268Y-95006437D01*
X138773802Y-95073627D01*
X138776526Y-95078116D01*
X138832664Y-95170628D01*
X138850614Y-95238152D01*
X138829208Y-95304662D01*
X138775242Y-95349041D01*
X138736385Y-95358574D01*
X138608560Y-95368634D01*
X138496026Y-95377490D01*
X138496024Y-95377490D01*
X138491174Y-95377872D01*
X138486447Y-95379007D01*
X138486440Y-95379008D01*
X138268159Y-95431413D01*
X138241160Y-95437895D01*
X138236660Y-95439759D01*
X138008117Y-95534424D01*
X138008113Y-95534426D01*
X138003613Y-95536290D01*
X137784384Y-95670634D01*
X137588869Y-95837619D01*
X137421884Y-96033134D01*
X137287540Y-96252363D01*
X137285676Y-96256863D01*
X137285674Y-96256867D01*
X137200415Y-96462702D01*
X137189145Y-96489910D01*
X137188008Y-96494646D01*
X137130258Y-96735190D01*
X137130257Y-96735197D01*
X137129122Y-96739924D01*
X137128740Y-96744774D01*
X137128740Y-96744776D01*
X137119788Y-96858528D01*
X137108949Y-96996250D01*
X131677775Y-96996250D01*
X131808253Y-96791440D01*
X131841100Y-96739881D01*
X131841102Y-96739877D01*
X131842551Y-96737603D01*
X131887441Y-96651371D01*
X132028122Y-96381124D01*
X132028123Y-96381122D01*
X132029377Y-96378713D01*
X132184213Y-96004906D01*
X132305881Y-95619026D01*
X132362162Y-95365159D01*
X132395890Y-95303969D01*
X132457346Y-95270727D01*
X132527017Y-95275988D01*
X132582784Y-95318081D01*
X132598515Y-95346349D01*
X132605963Y-95365159D01*
X132668784Y-95523827D01*
X132670663Y-95527244D01*
X132670663Y-95527245D01*
X132818592Y-95796328D01*
X132818596Y-95796334D01*
X132820476Y-95799754D01*
X132822774Y-95802916D01*
X132822774Y-95802917D01*
X132987134Y-96029140D01*
X133005555Y-96054494D01*
X133221102Y-96284028D01*
X133224107Y-96286514D01*
X133360341Y-96399216D01*
X133463718Y-96484737D01*
X133729576Y-96653456D01*
X133889615Y-96728764D01*
X134007429Y-96784203D01*
X134014484Y-96787523D01*
X134018189Y-96788727D01*
X134018192Y-96788728D01*
X134310238Y-96883620D01*
X134310245Y-96883622D01*
X134313948Y-96884825D01*
X134623246Y-96943827D01*
X134627138Y-96944072D01*
X134627139Y-96944072D01*
X134856890Y-96958527D01*
X134856906Y-96958527D01*
X134858853Y-96958650D01*
X135016147Y-96958650D01*
X135018094Y-96958527D01*
X135018110Y-96958527D01*
X135247861Y-96944072D01*
X135247862Y-96944072D01*
X135251754Y-96943827D01*
X135561052Y-96884825D01*
X135564755Y-96883622D01*
X135564762Y-96883620D01*
X135856808Y-96788728D01*
X135856811Y-96788727D01*
X135860516Y-96787523D01*
X135867572Y-96784203D01*
X135985385Y-96728764D01*
X136145424Y-96653456D01*
X136411282Y-96484737D01*
X136514660Y-96399216D01*
X136650893Y-96286514D01*
X136653898Y-96284028D01*
X136869445Y-96054494D01*
X136887866Y-96029140D01*
X137052226Y-95802917D01*
X137052226Y-95802916D01*
X137054524Y-95799754D01*
X137056404Y-95796334D01*
X137056408Y-95796328D01*
X137204337Y-95527245D01*
X137204337Y-95527244D01*
X137206216Y-95523827D01*
X137322130Y-95231063D01*
X137326468Y-95214170D01*
X137384951Y-94986390D01*
X137400436Y-94926080D01*
X137422123Y-94754410D01*
X137439412Y-94617554D01*
X137439412Y-94617548D01*
X137439900Y-94613688D01*
X137439900Y-94298812D01*
X137438625Y-94288714D01*
X137400924Y-93990284D01*
X137400436Y-93986420D01*
X137361400Y-93834384D01*
X137323101Y-93685217D01*
X137323099Y-93685210D01*
X137322130Y-93681437D01*
X137206216Y-93388673D01*
X137126437Y-93243555D01*
X137056408Y-93116172D01*
X137056404Y-93116166D01*
X137054524Y-93112746D01*
X136990772Y-93024998D01*
X136871738Y-92861162D01*
X136869445Y-92858006D01*
X136653898Y-92628472D01*
X136411282Y-92427763D01*
X136145424Y-92259044D01*
X135911253Y-92148852D01*
X135864042Y-92126636D01*
X135864039Y-92126635D01*
X135860516Y-92124977D01*
X135856811Y-92123773D01*
X135856808Y-92123772D01*
X135564762Y-92028880D01*
X135564755Y-92028878D01*
X135561052Y-92027675D01*
X135251754Y-91968673D01*
X135247862Y-91968428D01*
X135247861Y-91968428D01*
X135018110Y-91953973D01*
X135018094Y-91953973D01*
X135016147Y-91953850D01*
X134858853Y-91953850D01*
X134856906Y-91953973D01*
X134856890Y-91953973D01*
X134627139Y-91968428D01*
X134627138Y-91968428D01*
X134623246Y-91968673D01*
X134313948Y-92027675D01*
X134310245Y-92028878D01*
X134310238Y-92028880D01*
X134018192Y-92123772D01*
X134018189Y-92123773D01*
X134014484Y-92124977D01*
X134010961Y-92126635D01*
X134010958Y-92126636D01*
X133963747Y-92148852D01*
X133729576Y-92259044D01*
X133463718Y-92427763D01*
X133221102Y-92628472D01*
X133005555Y-92858006D01*
X133003262Y-92861162D01*
X132884229Y-93024998D01*
X132820476Y-93112746D01*
X132818596Y-93116166D01*
X132818592Y-93116172D01*
X132692162Y-93346149D01*
X132642616Y-93395413D01*
X132574301Y-93410070D01*
X132508906Y-93385467D01*
X132467195Y-93329414D01*
X132459500Y-93286412D01*
X132459500Y-92928458D01*
X132460737Y-92910986D01*
X132463441Y-92891987D01*
X132464013Y-92887968D01*
X132464153Y-92874604D01*
X132462145Y-92858006D01*
X132462110Y-92857715D01*
X132461361Y-92836738D01*
X132470431Y-92652107D01*
X132475413Y-92550705D01*
X132476605Y-92538600D01*
X132488858Y-92456000D01*
X132518319Y-92257386D01*
X132523292Y-92223860D01*
X132525666Y-92211924D01*
X132602981Y-91903265D01*
X132606514Y-91891620D01*
X132625102Y-91839672D01*
X132713706Y-91592041D01*
X132718362Y-91580799D01*
X132854410Y-91293149D01*
X132860147Y-91282417D01*
X133023727Y-91009501D01*
X133030487Y-90999384D01*
X133069381Y-90946941D01*
X133113552Y-90887383D01*
X133169297Y-90845263D01*
X133213149Y-90837250D01*
X134668134Y-90837250D01*
X134730316Y-90830495D01*
X134737593Y-90827767D01*
X134737597Y-90827766D01*
X134815818Y-90798442D01*
X134866705Y-90779365D01*
X134983261Y-90692011D01*
X135070615Y-90575455D01*
X135079206Y-90552537D01*
X135121171Y-90496674D01*
X135186676Y-90472367D01*
X135254924Y-90487334D01*
X135274517Y-90500657D01*
X135366633Y-90577133D01*
X135371028Y-90579701D01*
X135371032Y-90579704D01*
X135569662Y-90695774D01*
X135569666Y-90695776D01*
X135574059Y-90698343D01*
X135798497Y-90784047D01*
X135902025Y-90805110D01*
X136028934Y-90830930D01*
X136028936Y-90830930D01*
X136033919Y-90831944D01*
X136189069Y-90837633D01*
X136268923Y-90840562D01*
X136268926Y-90840562D01*
X136274002Y-90840748D01*
X136512300Y-90810221D01*
X136517170Y-90808760D01*
X136737543Y-90742645D01*
X136737545Y-90742644D01*
X136742412Y-90741184D01*
X136746975Y-90738948D01*
X136746979Y-90738947D01*
X136864242Y-90681500D01*
X136958158Y-90635491D01*
X137026139Y-90587001D01*
X137149602Y-90498935D01*
X137153745Y-90495980D01*
X137323920Y-90326398D01*
X137464113Y-90131299D01*
X137556568Y-89944231D01*
X137568302Y-89920490D01*
X137568303Y-89920488D01*
X137570559Y-89915923D01*
X137640399Y-89686054D01*
X137671757Y-89447864D01*
X137673507Y-89376250D01*
X137653822Y-89136813D01*
X137597624Y-88913082D01*
X137600383Y-88843268D01*
X137640450Y-88786027D01*
X137705102Y-88759535D01*
X137773814Y-88772202D01*
X137806032Y-88798903D01*
X137807511Y-88797455D01*
X137812738Y-88802793D01*
X137817290Y-88808725D01*
X137823124Y-88813399D01*
X137844810Y-88830773D01*
X137854960Y-88839865D01*
X137922538Y-88907443D01*
X137934018Y-88920672D01*
X137947978Y-88939265D01*
X137957329Y-88948813D01*
X137959866Y-88950801D01*
X137960173Y-88951297D01*
X137960308Y-88951148D01*
X138219785Y-89186325D01*
X138219791Y-89186330D01*
X138222043Y-89188371D01*
X138224484Y-89190182D01*
X138224486Y-89190183D01*
X138506356Y-89399233D01*
X138506365Y-89399239D01*
X138508792Y-89401039D01*
X138815006Y-89584576D01*
X139137734Y-89737215D01*
X139473870Y-89857486D01*
X139476817Y-89858224D01*
X139476823Y-89858226D01*
X139817225Y-89943492D01*
X139817229Y-89943493D01*
X139820176Y-89944231D01*
X140173316Y-89996615D01*
X140502365Y-90012779D01*
X140509494Y-90013461D01*
X140512501Y-90013690D01*
X140516527Y-90014263D01*
X140520591Y-90014306D01*
X140520597Y-90014306D01*
X140523004Y-90014331D01*
X140529891Y-90014403D01*
X140537676Y-90013461D01*
X140560920Y-90010648D01*
X140575817Y-90009750D01*
X141014177Y-90009750D01*
X141081216Y-90029435D01*
X141126971Y-90082239D01*
X141137498Y-90120788D01*
X141155958Y-90296428D01*
X141157966Y-90302607D01*
X141212965Y-90471878D01*
X141212967Y-90471883D01*
X141214973Y-90478056D01*
X141218220Y-90483681D01*
X141218221Y-90483682D01*
X141228023Y-90500660D01*
X141310460Y-90643444D01*
X141314806Y-90648271D01*
X141314807Y-90648272D01*
X141359891Y-90698343D01*
X141438247Y-90785366D01*
X141592748Y-90897618D01*
X141767212Y-90975294D01*
X141773574Y-90976646D01*
X141773573Y-90976646D01*
X141947650Y-91013648D01*
X141947655Y-91013648D01*
X141954013Y-91015000D01*
X142144987Y-91015000D01*
X142151345Y-91013648D01*
X142151350Y-91013648D01*
X142325432Y-90976645D01*
X142331788Y-90975294D01*
X142355534Y-90964722D01*
X142375888Y-90957707D01*
X142406863Y-90949963D01*
X142412175Y-90948758D01*
X142442084Y-90942665D01*
X142448023Y-90941606D01*
X142474902Y-90937486D01*
X142480793Y-90936727D01*
X142510653Y-90933605D01*
X142515746Y-90933179D01*
X142544567Y-90931362D01*
X142550646Y-90930979D01*
X142550649Y-90930979D01*
X142551854Y-90930903D01*
X142553913Y-90930773D01*
X142557714Y-90930592D01*
X142608059Y-90928979D01*
X142610435Y-90928926D01*
X142643365Y-90928523D01*
X142644511Y-90928509D01*
X142646026Y-90928500D01*
X146300387Y-90928500D01*
X146302753Y-90928523D01*
X146304350Y-90928553D01*
X146359007Y-90929597D01*
X146362113Y-90929696D01*
X146398517Y-90931324D01*
X146409410Y-90931812D01*
X146414180Y-90932118D01*
X146445902Y-90934774D01*
X146452358Y-90935487D01*
X146471157Y-90938063D01*
X146478989Y-90939393D01*
X146489862Y-90941600D01*
X146498197Y-90943594D01*
X146502878Y-90944886D01*
X146507831Y-90946254D01*
X146515663Y-90948699D01*
X146523434Y-90951411D01*
X146529745Y-90953613D01*
X146545109Y-90960654D01*
X146545748Y-90961118D01*
X146720212Y-91038794D01*
X146726574Y-91040146D01*
X146726573Y-91040146D01*
X146900650Y-91077148D01*
X146900655Y-91077148D01*
X146907013Y-91078500D01*
X147097987Y-91078500D01*
X147104345Y-91077148D01*
X147104350Y-91077148D01*
X147278427Y-91040146D01*
X147278426Y-91040146D01*
X147284788Y-91038794D01*
X147418774Y-90979140D01*
X147453314Y-90963762D01*
X147453316Y-90963761D01*
X147459252Y-90961118D01*
X147459892Y-90960653D01*
X147475259Y-90953611D01*
X147475443Y-90953547D01*
X147489337Y-90948699D01*
X147497168Y-90946254D01*
X147502121Y-90944886D01*
X147506802Y-90943594D01*
X147515137Y-90941600D01*
X147526010Y-90939393D01*
X147533842Y-90938063D01*
X147552641Y-90935487D01*
X147559097Y-90934774D01*
X147590819Y-90932118D01*
X147595589Y-90931812D01*
X147606482Y-90931324D01*
X147642886Y-90929696D01*
X147645992Y-90929597D01*
X147700649Y-90928553D01*
X147702246Y-90928523D01*
X147704612Y-90928500D01*
X149160117Y-90928500D01*
X149175656Y-90929478D01*
X149205318Y-90933225D01*
X149228386Y-90930963D01*
X149248585Y-90930637D01*
X149391851Y-90940028D01*
X149407921Y-90942143D01*
X149572815Y-90974942D01*
X149588480Y-90979140D01*
X149747688Y-91033184D01*
X149762659Y-91039385D01*
X149841976Y-91078500D01*
X149913447Y-91113746D01*
X149927494Y-91121856D01*
X150067282Y-91215259D01*
X150080148Y-91225132D01*
X150158717Y-91294034D01*
X150175659Y-91308892D01*
X150189293Y-91323577D01*
X150189523Y-91323380D01*
X150192065Y-91326346D01*
X150194406Y-91329452D01*
X150201371Y-91336615D01*
X150201783Y-91337146D01*
X150202302Y-91337573D01*
X150203965Y-91339283D01*
X150203966Y-91339285D01*
X150206230Y-91341612D01*
X150209265Y-91344733D01*
X150222073Y-91354957D01*
X150227984Y-91359987D01*
X150386725Y-91503862D01*
X150423179Y-91563469D01*
X150421620Y-91633321D01*
X150382544Y-91691241D01*
X150376338Y-91696058D01*
X150264747Y-91777134D01*
X150136960Y-91919056D01*
X150107892Y-91969403D01*
X150049196Y-92071068D01*
X150041473Y-92084444D01*
X150039467Y-92090617D01*
X150039465Y-92090622D01*
X150004569Y-92198023D01*
X149982458Y-92266072D01*
X149962496Y-92456000D01*
X149982458Y-92645928D01*
X149984466Y-92652107D01*
X150039465Y-92821378D01*
X150039467Y-92821383D01*
X150041473Y-92827556D01*
X150044719Y-92833178D01*
X150044722Y-92833185D01*
X150085636Y-92904049D01*
X150088228Y-92908773D01*
X150101677Y-92934604D01*
X150107874Y-92946141D01*
X150108167Y-92946670D01*
X150108324Y-92946946D01*
X150108356Y-92947002D01*
X150112361Y-92954016D01*
X150114682Y-92958081D01*
X150149612Y-93017468D01*
X150149721Y-93017649D01*
X150149782Y-93017752D01*
X150154139Y-93024998D01*
X150154641Y-93025833D01*
X150154766Y-93026036D01*
X150154773Y-93026048D01*
X150154821Y-93026126D01*
X150158125Y-93031430D01*
X150158147Y-93031466D01*
X150191304Y-93083969D01*
X150191364Y-93084064D01*
X150191439Y-93084183D01*
X150191570Y-93084391D01*
X150215736Y-93122634D01*
X150218232Y-93126760D01*
X150223470Y-93135810D01*
X150239209Y-93182681D01*
X150240199Y-93190673D01*
X150241059Y-93201439D01*
X150242419Y-93239077D01*
X150242500Y-93243555D01*
X150242500Y-93551635D01*
X150222815Y-93618674D01*
X150170011Y-93664429D01*
X150100853Y-93674373D01*
X150037297Y-93645348D01*
X150024845Y-93632905D01*
X149878958Y-93464785D01*
X149878954Y-93464781D01*
X149875515Y-93460818D01*
X149693956Y-93311949D01*
X149649094Y-93286412D01*
X149494468Y-93198393D01*
X149494463Y-93198391D01*
X149489910Y-93195799D01*
X149269211Y-93115689D01*
X149038170Y-93073910D01*
X149013571Y-93072750D01*
X148848550Y-93072750D01*
X148845934Y-93072972D01*
X148845933Y-93072972D01*
X148834879Y-93073910D01*
X148673552Y-93087599D01*
X148446294Y-93146583D01*
X148441502Y-93148742D01*
X148441501Y-93148742D01*
X148403855Y-93165700D01*
X148232222Y-93243016D01*
X148037459Y-93374138D01*
X147867573Y-93536201D01*
X147727422Y-93724571D01*
X147725043Y-93729249D01*
X147725043Y-93729250D01*
X147666824Y-93843759D01*
X147621013Y-93933862D01*
X147619459Y-93938867D01*
X147552945Y-94153077D01*
X147552944Y-94153083D01*
X147551389Y-94158090D01*
X147550699Y-94163295D01*
X147550699Y-94163297D01*
X147542914Y-94222033D01*
X147514592Y-94285905D01*
X147456234Y-94324326D01*
X147386369Y-94325096D01*
X147327840Y-94288714D01*
X147300601Y-94258463D01*
X147300600Y-94258462D01*
X147296253Y-94253634D01*
X147141752Y-94141382D01*
X146967288Y-94063706D01*
X146913924Y-94052363D01*
X146786850Y-94025352D01*
X146786845Y-94025352D01*
X146780487Y-94024000D01*
X146589513Y-94024000D01*
X146583155Y-94025352D01*
X146583150Y-94025352D01*
X146456076Y-94052363D01*
X146402712Y-94063706D01*
X146228248Y-94141382D01*
X146073747Y-94253634D01*
X146069400Y-94258462D01*
X145954887Y-94385642D01*
X145945960Y-94395556D01*
X145942712Y-94401182D01*
X145870153Y-94526858D01*
X145850473Y-94560944D01*
X145848467Y-94567117D01*
X145848465Y-94567122D01*
X145833335Y-94613688D01*
X145791458Y-94742572D01*
X145771496Y-94932500D01*
X145791458Y-95122428D01*
X145793466Y-95128607D01*
X145848465Y-95297878D01*
X145848467Y-95297883D01*
X145850473Y-95304056D01*
X145853720Y-95309680D01*
X145853721Y-95309682D01*
X145884542Y-95363065D01*
X145888548Y-95370590D01*
X145894769Y-95383311D01*
X145897130Y-95388430D01*
X145907387Y-95412070D01*
X145910113Y-95418903D01*
X145914926Y-95432096D01*
X145917598Y-95440300D01*
X145919831Y-95448065D01*
X145921995Y-95456758D01*
X145923942Y-95466004D01*
X145925371Y-95474125D01*
X145927858Y-95491673D01*
X145928626Y-95498414D01*
X145931290Y-95529287D01*
X145931618Y-95534256D01*
X145933627Y-95577990D01*
X145933769Y-95581092D01*
X145933876Y-95584367D01*
X145934980Y-95641058D01*
X145935004Y-95643472D01*
X145935004Y-98470499D01*
X145915319Y-98537538D01*
X145862515Y-98583293D01*
X145811004Y-98594499D01*
X141853933Y-98594499D01*
X141836676Y-98593292D01*
X141817096Y-98590540D01*
X141817091Y-98590540D01*
X141813237Y-98589998D01*
X141791924Y-98589700D01*
X141789845Y-98589933D01*
X141788586Y-98589630D01*
X141788602Y-98590073D01*
X141282992Y-98608130D01*
X141280789Y-98608367D01*
X141280787Y-98608367D01*
X141043129Y-98633918D01*
X140776654Y-98662567D01*
X140774505Y-98662955D01*
X140774496Y-98662956D01*
X140277672Y-98752593D01*
X140277663Y-98752595D01*
X140275490Y-98752987D01*
X140273336Y-98753537D01*
X140273335Y-98753537D01*
X139846545Y-98862469D01*
X139782052Y-98878930D01*
X139298857Y-99039753D01*
X138828366Y-99234637D01*
X138826391Y-99235626D01*
X138826388Y-99235627D01*
X138374967Y-99461591D01*
X138374959Y-99461596D01*
X138372976Y-99462588D01*
X138227578Y-99548857D01*
X137936913Y-99721317D01*
X137936907Y-99721321D01*
X137935009Y-99722447D01*
X137516695Y-100012887D01*
X137514967Y-100014279D01*
X137514965Y-100014281D01*
X137121874Y-100331053D01*
X137121867Y-100331059D01*
X137120167Y-100332429D01*
X136833061Y-100599735D01*
X136772788Y-100655851D01*
X136768532Y-100659417D01*
X136768621Y-100659521D01*
X136765651Y-100662067D01*
X136762547Y-100664406D01*
X136747266Y-100679266D01*
X136744842Y-100682302D01*
X136744836Y-100682309D01*
X136741296Y-100686744D01*
X136722887Y-100704646D01*
X136723169Y-100704975D01*
X136720216Y-100707506D01*
X136717099Y-100709855D01*
X136701817Y-100724715D01*
X136699387Y-100727760D01*
X136696764Y-100730652D01*
X136696744Y-100730634D01*
X136695267Y-100732347D01*
X136366713Y-101085238D01*
X136365328Y-101086957D01*
X136365326Y-101086959D01*
X136358633Y-101095265D01*
X136057874Y-101468483D01*
X135777163Y-101872784D01*
X135776037Y-101874682D01*
X135776033Y-101874688D01*
X135727725Y-101956107D01*
X135526009Y-102296080D01*
X135525017Y-102298063D01*
X135525012Y-102298071D01*
X135397725Y-102552360D01*
X135305694Y-102736215D01*
X135117338Y-103190946D01*
X134961902Y-103657955D01*
X134961354Y-103660102D01*
X134856761Y-104069897D01*
X134840179Y-104134863D01*
X134839787Y-104137036D01*
X134839785Y-104137045D01*
X134753643Y-104614503D01*
X134752788Y-104619240D01*
X134715641Y-104964767D01*
X134707491Y-105040571D01*
X134691589Y-105089314D01*
X134610973Y-105228944D01*
X134608967Y-105235117D01*
X134608965Y-105235122D01*
X134599315Y-105264822D01*
X134551958Y-105410572D01*
X134531996Y-105600500D01*
X134551958Y-105790428D01*
X134563099Y-105824716D01*
X134608965Y-105965878D01*
X134608967Y-105965883D01*
X134610973Y-105972056D01*
X134614220Y-105977681D01*
X134614221Y-105977682D01*
X134658717Y-106054750D01*
X134706460Y-106137444D01*
X134834247Y-106279366D01*
X134988748Y-106391618D01*
X135163212Y-106469294D01*
X135169574Y-106470646D01*
X135169573Y-106470646D01*
X135343650Y-106507648D01*
X135343655Y-106507648D01*
X135350013Y-106509000D01*
X135540987Y-106509000D01*
X135547345Y-106507648D01*
X135547350Y-106507648D01*
X135721427Y-106470646D01*
X135721426Y-106470646D01*
X135727788Y-106469294D01*
X135902252Y-106391618D01*
X136056753Y-106279366D01*
X136184540Y-106137444D01*
X136232284Y-106054750D01*
X136276779Y-105977682D01*
X136276780Y-105977681D01*
X136280027Y-105972056D01*
X136282033Y-105965883D01*
X136282035Y-105965878D01*
X136327901Y-105824716D01*
X136339042Y-105790428D01*
X136359004Y-105600500D01*
X136339042Y-105410572D01*
X136291685Y-105264822D01*
X136282035Y-105235122D01*
X136282033Y-105235117D01*
X136280027Y-105228944D01*
X136246358Y-105170628D01*
X136229886Y-105102730D01*
X136230606Y-105094055D01*
X136233853Y-105066622D01*
X136269587Y-104764711D01*
X136271108Y-104755105D01*
X136271761Y-104751826D01*
X136315549Y-104531687D01*
X136351521Y-104350845D01*
X136353793Y-104341378D01*
X136465679Y-103944656D01*
X136468688Y-103935395D01*
X136478477Y-103908861D01*
X136611359Y-103548671D01*
X136615081Y-103539685D01*
X136622082Y-103524500D01*
X136787653Y-103165348D01*
X136792072Y-103156677D01*
X136839264Y-103072411D01*
X136993471Y-102797054D01*
X136998557Y-102788754D01*
X137196629Y-102492317D01*
X137227562Y-102446023D01*
X137233278Y-102438156D01*
X137242833Y-102426035D01*
X137299797Y-102385576D01*
X137369592Y-102382337D01*
X137430058Y-102417346D01*
X137461998Y-102479488D01*
X137463531Y-102515766D01*
X137452996Y-102616000D01*
X137472958Y-102805928D01*
X137474966Y-102812107D01*
X137529965Y-102981378D01*
X137529967Y-102981383D01*
X137531973Y-102987556D01*
X137627460Y-103152944D01*
X137631806Y-103157771D01*
X137631807Y-103157772D01*
X137664077Y-103193611D01*
X137755247Y-103294866D01*
X137909748Y-103407118D01*
X138084212Y-103484794D01*
X138090574Y-103486146D01*
X138090573Y-103486146D01*
X138264650Y-103523148D01*
X138264655Y-103523148D01*
X138271013Y-103524500D01*
X138461987Y-103524500D01*
X138468345Y-103523148D01*
X138468350Y-103523148D01*
X138642427Y-103486146D01*
X138642426Y-103486146D01*
X138648788Y-103484794D01*
X138823252Y-103407118D01*
X138977753Y-103294866D01*
X139068923Y-103193611D01*
X139101193Y-103157772D01*
X139101194Y-103157771D01*
X139105540Y-103152944D01*
X139201027Y-102987556D01*
X139203033Y-102981383D01*
X139203035Y-102981378D01*
X139258034Y-102812107D01*
X139260042Y-102805928D01*
X139280004Y-102616000D01*
X139260042Y-102426072D01*
X139209986Y-102272016D01*
X139203035Y-102250622D01*
X139203033Y-102250617D01*
X139201027Y-102244444D01*
X139125523Y-102113667D01*
X139109050Y-102045768D01*
X139115490Y-102011810D01*
X139124208Y-101986127D01*
X139130416Y-101971141D01*
X139219614Y-101790267D01*
X139227724Y-101776221D01*
X139339763Y-101608542D01*
X139349637Y-101595673D01*
X139461497Y-101468122D01*
X139479233Y-101451510D01*
X139480576Y-101450479D01*
X139480579Y-101450476D01*
X139486511Y-101445924D01*
X139491186Y-101440088D01*
X139496523Y-101434862D01*
X139496787Y-101435131D01*
X139500742Y-101431257D01*
X139500220Y-101430724D01*
X139505560Y-101425495D01*
X139511492Y-101420943D01*
X139523898Y-101405457D01*
X139538040Y-101390533D01*
X139672336Y-101270519D01*
X139683208Y-101261850D01*
X139851837Y-101142201D01*
X139863611Y-101134802D01*
X140044598Y-101034774D01*
X140057126Y-101028741D01*
X140248162Y-100949611D01*
X140261287Y-100945018D01*
X140459991Y-100887772D01*
X140473548Y-100884678D01*
X140677403Y-100850042D01*
X140691221Y-100848485D01*
X140863749Y-100838796D01*
X140886886Y-100839662D01*
X140889567Y-100840015D01*
X140897947Y-100841118D01*
X140905375Y-100840298D01*
X140905377Y-100840298D01*
X140932992Y-100837249D01*
X140946599Y-100836500D01*
X143130710Y-100836500D01*
X143197749Y-100856185D01*
X143243504Y-100908989D01*
X143253448Y-100978147D01*
X143224423Y-101041703D01*
X143202467Y-101061629D01*
X143090876Y-101140806D01*
X143088283Y-101143123D01*
X143088282Y-101143124D01*
X143075409Y-101154628D01*
X142931375Y-101283345D01*
X142930436Y-101282295D01*
X142929323Y-101283723D01*
X142929848Y-101284248D01*
X142927976Y-101286120D01*
X142926002Y-101287987D01*
X142925624Y-101288472D01*
X142925508Y-101288588D01*
X142923266Y-101290591D01*
X142923161Y-101290673D01*
X142922923Y-101290898D01*
X142893900Y-101316834D01*
X142885733Y-101323529D01*
X142879516Y-101328197D01*
X142869968Y-101337548D01*
X142867465Y-101340741D01*
X142867459Y-101340747D01*
X142850682Y-101362144D01*
X142840781Y-101373315D01*
X142796913Y-101417182D01*
X142783685Y-101428661D01*
X142765092Y-101442621D01*
X142755544Y-101451972D01*
X142753040Y-101455165D01*
X142752895Y-101455327D01*
X142748060Y-101461100D01*
X142627798Y-101595673D01*
X142558802Y-101672880D01*
X142440278Y-101839925D01*
X142395417Y-101903151D01*
X142387638Y-101914114D01*
X142385961Y-101917149D01*
X142385960Y-101917150D01*
X142296478Y-102079056D01*
X142244560Y-102172994D01*
X142131367Y-102446267D01*
X142049482Y-102730495D01*
X141999936Y-103022104D01*
X141999742Y-103025566D01*
X141999741Y-103025571D01*
X141992317Y-103157772D01*
X141987942Y-103235677D01*
X141986540Y-103235598D01*
X141986762Y-103237397D01*
X141987500Y-103237397D01*
X141987500Y-103240061D01*
X141987424Y-103242763D01*
X141987500Y-103243378D01*
X141987500Y-103243542D01*
X141987332Y-103246533D01*
X141987315Y-103246668D01*
X141987305Y-103247014D01*
X141984614Y-103294927D01*
X141984167Y-103299694D01*
X141984295Y-103300010D01*
X141982882Y-103310744D01*
X141983442Y-103315813D01*
X141983351Y-103317427D01*
X141983620Y-103317427D01*
X141983982Y-103320707D01*
X141983982Y-103320710D01*
X141986751Y-103345788D01*
X141987500Y-103359395D01*
X141987500Y-106735901D01*
X141967815Y-106802940D01*
X141915011Y-106848695D01*
X141845853Y-106858639D01*
X141791745Y-106837030D01*
X141754437Y-106810558D01*
X141649218Y-106735901D01*
X141594436Y-106697031D01*
X141594433Y-106697029D01*
X141591593Y-106695014D01*
X141477798Y-106632122D01*
X141339394Y-106555629D01*
X141339389Y-106555627D01*
X141336350Y-106553947D01*
X141066917Y-106442344D01*
X140994198Y-106421394D01*
X140936377Y-106385214D01*
X140819253Y-106255134D01*
X140664752Y-106142882D01*
X140490288Y-106065206D01*
X140460161Y-106058802D01*
X140309850Y-106026852D01*
X140309845Y-106026852D01*
X140303487Y-106025500D01*
X140112513Y-106025500D01*
X140106155Y-106026852D01*
X140106150Y-106026852D01*
X139955839Y-106058802D01*
X139925712Y-106065206D01*
X139751248Y-106142882D01*
X139596747Y-106255134D01*
X139468960Y-106397056D01*
X139465712Y-106402682D01*
X139377408Y-106555629D01*
X139373473Y-106562444D01*
X139371467Y-106568617D01*
X139371465Y-106568622D01*
X139334402Y-106682692D01*
X139314458Y-106744072D01*
X139294496Y-106934000D01*
X139314458Y-107123928D01*
X139316466Y-107130107D01*
X139371465Y-107299378D01*
X139371467Y-107299383D01*
X139373473Y-107305556D01*
X139376720Y-107311181D01*
X139376721Y-107311182D01*
X139387570Y-107329973D01*
X139468960Y-107470944D01*
X139596747Y-107612866D01*
X139751248Y-107725118D01*
X139925712Y-107802794D01*
X139932074Y-107804146D01*
X139932073Y-107804146D01*
X140106150Y-107841148D01*
X140106155Y-107841148D01*
X140112513Y-107842500D01*
X140303487Y-107842500D01*
X140309845Y-107841148D01*
X140309850Y-107841148D01*
X140483927Y-107804146D01*
X140483926Y-107804146D01*
X140490288Y-107802794D01*
X140664752Y-107725118D01*
X140673030Y-107719104D01*
X140675072Y-107718375D01*
X140675635Y-107718050D01*
X140675694Y-107718153D01*
X140738835Y-107695625D01*
X140793362Y-107704860D01*
X140802570Y-107708675D01*
X140819896Y-107717503D01*
X140981133Y-107816309D01*
X140996874Y-107827746D01*
X141140671Y-107950560D01*
X141154430Y-107964319D01*
X141277244Y-108108116D01*
X141288674Y-108123846D01*
X141387492Y-108285104D01*
X141396317Y-108302425D01*
X141468688Y-108477144D01*
X141474697Y-108495637D01*
X141513035Y-108655324D01*
X141518844Y-108679521D01*
X141521887Y-108698734D01*
X141534411Y-108857862D01*
X141533910Y-108876966D01*
X141533848Y-108882894D01*
X141532872Y-108890306D01*
X141533692Y-108897734D01*
X141533692Y-108897736D01*
X141536741Y-108925351D01*
X141537490Y-108938958D01*
X141537490Y-112572874D01*
X141536429Y-112589059D01*
X141532872Y-112616077D01*
X141533692Y-112623504D01*
X141533692Y-112623510D01*
X141535049Y-112635800D01*
X141535603Y-112656359D01*
X141531387Y-112731437D01*
X141522546Y-112888873D01*
X141521678Y-112904324D01*
X141498266Y-112970154D01*
X141442979Y-113012876D01*
X141373372Y-113018926D01*
X141311544Y-112986384D01*
X141282541Y-112942918D01*
X141261198Y-112888873D01*
X141139396Y-112688150D01*
X141046416Y-112581000D01*
X140988958Y-112514785D01*
X140988954Y-112514781D01*
X140985515Y-112510818D01*
X140803956Y-112361949D01*
X140799394Y-112359352D01*
X140604468Y-112248393D01*
X140604463Y-112248391D01*
X140599910Y-112245799D01*
X140379211Y-112165689D01*
X140148170Y-112123910D01*
X140123571Y-112122750D01*
X139958550Y-112122750D01*
X139955934Y-112122972D01*
X139955933Y-112122972D01*
X139944879Y-112123910D01*
X139783552Y-112137599D01*
X139556294Y-112196583D01*
X139342222Y-112293016D01*
X139147459Y-112424138D01*
X138977573Y-112586201D01*
X138837422Y-112774571D01*
X138835043Y-112779249D01*
X138835043Y-112779250D01*
X138737983Y-112970154D01*
X138731013Y-112983862D01*
X138729459Y-112988867D01*
X138662945Y-113203077D01*
X138662944Y-113203083D01*
X138661389Y-113208090D01*
X138660699Y-113213294D01*
X138660699Y-113213295D01*
X138643250Y-113344946D01*
X138630539Y-113440843D01*
X138630736Y-113446085D01*
X138638760Y-113659793D01*
X138639348Y-113675466D01*
X138687562Y-113905251D01*
X138730682Y-114014439D01*
X138765489Y-114102576D01*
X138773802Y-114123627D01*
X138776526Y-114128116D01*
X138832664Y-114220628D01*
X138850614Y-114288152D01*
X138829208Y-114354662D01*
X138775242Y-114399041D01*
X138736385Y-114408574D01*
X138608560Y-114418634D01*
X138496026Y-114427490D01*
X138496024Y-114427490D01*
X138491174Y-114427872D01*
X138486447Y-114429007D01*
X138486440Y-114429008D01*
X138251220Y-114485480D01*
X138241160Y-114487895D01*
X138236660Y-114489759D01*
X138008117Y-114584424D01*
X138008113Y-114584426D01*
X138003613Y-114586290D01*
X137784384Y-114720634D01*
X137588869Y-114887619D01*
X137421884Y-115083134D01*
X137287540Y-115302363D01*
X137285676Y-115306863D01*
X137285674Y-115306867D01*
X137217471Y-115471524D01*
X137189145Y-115539910D01*
X137188008Y-115544646D01*
X137130258Y-115785190D01*
X137130257Y-115785197D01*
X137129122Y-115789924D01*
X137128740Y-115794774D01*
X137128740Y-115794776D01*
X137116744Y-115947202D01*
X137108949Y-116046250D01*
X137109331Y-116051104D01*
X137123487Y-116230970D01*
X137129122Y-116302576D01*
X137130257Y-116307303D01*
X137130258Y-116307310D01*
X137173540Y-116487590D01*
X137189145Y-116552590D01*
X137191009Y-116557090D01*
X137285580Y-116785404D01*
X137287540Y-116790137D01*
X137421884Y-117009366D01*
X137588869Y-117204881D01*
X137784384Y-117371866D01*
X138003613Y-117506210D01*
X138008113Y-117508074D01*
X138008117Y-117508076D01*
X138152676Y-117567954D01*
X138241160Y-117604605D01*
X138245896Y-117605742D01*
X138486440Y-117663492D01*
X138486447Y-117663493D01*
X138491174Y-117664628D01*
X138496024Y-117665010D01*
X138496026Y-117665010D01*
X138742646Y-117684419D01*
X138747500Y-117684801D01*
X138752354Y-117684419D01*
X138998974Y-117665010D01*
X138998976Y-117665010D01*
X139003826Y-117664628D01*
X139008553Y-117663493D01*
X139008560Y-117663492D01*
X139249104Y-117605742D01*
X139253840Y-117604605D01*
X139342324Y-117567954D01*
X139486883Y-117508076D01*
X139486887Y-117508074D01*
X139491387Y-117506210D01*
X139710616Y-117371866D01*
X139906131Y-117204881D01*
X140073116Y-117009366D01*
X140207460Y-116790137D01*
X140209421Y-116785404D01*
X140303991Y-116557090D01*
X140305855Y-116552590D01*
X140323334Y-116479783D01*
X140340680Y-116407534D01*
X140375471Y-116346942D01*
X140411168Y-116323047D01*
X140555160Y-116259469D01*
X140555171Y-116259463D01*
X140557788Y-116258308D01*
X140560288Y-116256915D01*
X140560295Y-116256912D01*
X140883011Y-116077160D01*
X140883010Y-116077160D01*
X140885512Y-116075767D01*
X140930227Y-116045137D01*
X141192636Y-115865383D01*
X141192637Y-115865382D01*
X141194995Y-115863767D01*
X141483596Y-115624115D01*
X141748855Y-115358856D01*
X141768104Y-115335675D01*
X141826076Y-115296676D01*
X141895930Y-115295210D01*
X141955488Y-115331742D01*
X141985840Y-115394675D01*
X141987500Y-115414894D01*
X141987500Y-115734944D01*
X141987419Y-115739422D01*
X141986059Y-115777060D01*
X141985199Y-115787826D01*
X141984209Y-115795818D01*
X141968470Y-115842689D01*
X141963221Y-115851758D01*
X141960728Y-115855879D01*
X141936440Y-115894314D01*
X141936270Y-115894206D01*
X141936193Y-115894325D01*
X141936365Y-115894433D01*
X141903163Y-115947006D01*
X141899518Y-115952866D01*
X141899325Y-115953181D01*
X141894612Y-115961031D01*
X141859682Y-116020418D01*
X141859531Y-116020683D01*
X141853356Y-116031497D01*
X141853325Y-116031552D01*
X141853167Y-116031829D01*
X141852874Y-116032358D01*
X141852676Y-116032727D01*
X141846845Y-116043582D01*
X141846807Y-116043655D01*
X141846676Y-116043898D01*
X141833235Y-116069715D01*
X141833232Y-116069720D01*
X141830644Y-116074437D01*
X141786473Y-116150944D01*
X141784467Y-116157117D01*
X141784465Y-116157122D01*
X141760471Y-116230970D01*
X141727458Y-116332572D01*
X141707496Y-116522500D01*
X141727458Y-116712428D01*
X141732291Y-116727301D01*
X141784465Y-116887878D01*
X141784467Y-116887883D01*
X141786473Y-116894056D01*
X141881960Y-117059444D01*
X142009747Y-117201366D01*
X142164248Y-117313618D01*
X142338712Y-117391294D01*
X142345074Y-117392646D01*
X142345073Y-117392646D01*
X142519150Y-117429648D01*
X142519155Y-117429648D01*
X142525513Y-117431000D01*
X142716487Y-117431000D01*
X142722845Y-117429648D01*
X142722850Y-117429648D01*
X142896927Y-117392646D01*
X142896926Y-117392646D01*
X142903288Y-117391294D01*
X143077752Y-117313618D01*
X143232253Y-117201366D01*
X143360040Y-117059444D01*
X143455527Y-116894056D01*
X143457533Y-116887883D01*
X143457535Y-116887878D01*
X143509709Y-116727301D01*
X143514542Y-116712428D01*
X143534504Y-116522500D01*
X143514542Y-116332572D01*
X143481529Y-116230970D01*
X143457535Y-116157122D01*
X143457533Y-116157117D01*
X143455527Y-116150944D01*
X143411360Y-116074445D01*
X143408765Y-116069715D01*
X143395519Y-116044273D01*
X143395476Y-116044191D01*
X143395322Y-116043896D01*
X143389125Y-116032358D01*
X143388832Y-116031829D01*
X143388673Y-116031551D01*
X143388643Y-116031497D01*
X143382468Y-116020683D01*
X143382317Y-116020418D01*
X143347387Y-115961031D01*
X143342674Y-115953181D01*
X143342481Y-115952866D01*
X143338836Y-115947006D01*
X143305634Y-115894433D01*
X143305700Y-115894391D01*
X143305639Y-115894264D01*
X143305559Y-115894314D01*
X143287277Y-115865383D01*
X143281271Y-115855879D01*
X143278778Y-115851758D01*
X143273529Y-115842689D01*
X143257790Y-115795818D01*
X143256800Y-115787826D01*
X143255940Y-115777058D01*
X143254581Y-115739433D01*
X143254500Y-115734957D01*
X143254500Y-103371281D01*
X143255737Y-103353809D01*
X143258441Y-103334810D01*
X143259013Y-103330791D01*
X143259153Y-103317427D01*
X143258666Y-103313401D01*
X143258665Y-103313388D01*
X143257524Y-103303965D01*
X143256891Y-103280952D01*
X143259116Y-103247014D01*
X143265661Y-103147165D01*
X143267777Y-103131092D01*
X143299478Y-102971722D01*
X143303675Y-102956055D01*
X143355913Y-102802169D01*
X143362109Y-102787211D01*
X143433984Y-102641464D01*
X143442094Y-102627418D01*
X143532365Y-102492317D01*
X143542239Y-102479448D01*
X143596701Y-102417346D01*
X143628272Y-102381347D01*
X143646010Y-102364734D01*
X143653278Y-102359157D01*
X143657953Y-102353322D01*
X143657958Y-102353317D01*
X143675328Y-102331636D01*
X143684419Y-102321486D01*
X143733889Y-102272016D01*
X143746083Y-102261322D01*
X143761769Y-102249286D01*
X143761771Y-102249284D01*
X143767702Y-102244733D01*
X143778961Y-102230679D01*
X143793969Y-102214989D01*
X143897442Y-102124246D01*
X143910309Y-102114372D01*
X143915917Y-102110625D01*
X144045432Y-102024085D01*
X144059449Y-102015992D01*
X144205202Y-101944115D01*
X144220180Y-101937912D01*
X144374053Y-101885678D01*
X144389719Y-101881480D01*
X144549094Y-101849779D01*
X144565150Y-101847665D01*
X144695371Y-101839129D01*
X144719657Y-101839925D01*
X144728741Y-101841121D01*
X144736169Y-101840301D01*
X144736171Y-101840301D01*
X144763786Y-101837252D01*
X144777393Y-101836503D01*
X145106802Y-101836503D01*
X145124274Y-101837740D01*
X145139626Y-101839925D01*
X145147292Y-101841016D01*
X145151346Y-101841058D01*
X145151353Y-101841059D01*
X145154098Y-101841087D01*
X145160656Y-101841156D01*
X145164687Y-101840668D01*
X145164692Y-101840668D01*
X145177227Y-101839151D01*
X145177897Y-101839070D01*
X145183062Y-101838554D01*
X145349363Y-101825466D01*
X145349365Y-101825466D01*
X145354215Y-101825084D01*
X145358943Y-101823949D01*
X145358949Y-101823948D01*
X145538272Y-101780896D01*
X145543008Y-101779759D01*
X145722387Y-101705457D01*
X145746215Y-101690855D01*
X145813661Y-101672611D01*
X145880263Y-101693728D01*
X145924876Y-101747500D01*
X145935004Y-101796583D01*
X145935004Y-103956000D01*
X145915319Y-104023039D01*
X145862515Y-104068794D01*
X145811004Y-104080000D01*
X145545666Y-104080000D01*
X145543300Y-104079977D01*
X145541695Y-104079946D01*
X145486990Y-104078902D01*
X145483883Y-104078803D01*
X145436580Y-104076687D01*
X145431787Y-104076379D01*
X145429195Y-104076162D01*
X145428317Y-104076088D01*
X145428304Y-104076086D01*
X145400113Y-104073725D01*
X145393630Y-104073010D01*
X145374836Y-104070435D01*
X145367006Y-104069105D01*
X145362051Y-104068099D01*
X145356139Y-104066899D01*
X145347809Y-104064906D01*
X145338172Y-104062245D01*
X145330327Y-104059796D01*
X145316260Y-104054888D01*
X145300889Y-104047845D01*
X145300252Y-104047382D01*
X145125788Y-103969706D01*
X145092103Y-103962546D01*
X144945350Y-103931352D01*
X144945345Y-103931352D01*
X144938987Y-103930000D01*
X144748013Y-103930000D01*
X144741655Y-103931352D01*
X144741650Y-103931352D01*
X144594897Y-103962546D01*
X144561212Y-103969706D01*
X144386748Y-104047382D01*
X144232247Y-104159634D01*
X144104460Y-104301556D01*
X144008973Y-104466944D01*
X144006967Y-104473117D01*
X144006965Y-104473122D01*
X143981809Y-104550544D01*
X143949958Y-104648572D01*
X143929996Y-104838500D01*
X143949958Y-105028428D01*
X143953904Y-105040571D01*
X144006965Y-105203878D01*
X144006967Y-105203883D01*
X144008973Y-105210056D01*
X144104460Y-105375444D01*
X144232247Y-105517366D01*
X144386748Y-105629618D01*
X144392682Y-105632260D01*
X144408187Y-105639163D01*
X144561212Y-105707294D01*
X144567574Y-105708646D01*
X144567573Y-105708646D01*
X144741650Y-105745648D01*
X144741655Y-105745648D01*
X144748013Y-105747000D01*
X144938987Y-105747000D01*
X144945345Y-105745648D01*
X144945350Y-105745648D01*
X145119427Y-105708646D01*
X145119426Y-105708646D01*
X145125788Y-105707294D01*
X145213020Y-105668456D01*
X145294314Y-105632262D01*
X145294316Y-105632261D01*
X145300252Y-105629618D01*
X145300892Y-105629153D01*
X145316259Y-105622111D01*
X145316443Y-105622047D01*
X145330337Y-105617199D01*
X145338168Y-105614754D01*
X145343121Y-105613386D01*
X145347802Y-105612094D01*
X145356137Y-105610100D01*
X145367010Y-105607893D01*
X145374842Y-105606563D01*
X145393641Y-105603987D01*
X145400097Y-105603274D01*
X145431819Y-105600618D01*
X145436589Y-105600312D01*
X145447482Y-105599824D01*
X145483886Y-105598196D01*
X145486992Y-105598097D01*
X145541649Y-105597053D01*
X145543246Y-105597023D01*
X145545612Y-105597000D01*
X145811004Y-105597000D01*
X145878043Y-105616685D01*
X145923798Y-105669489D01*
X145935004Y-105721000D01*
X145935004Y-106689405D01*
X145915319Y-106756444D01*
X145902882Y-106772679D01*
X145788079Y-106899344D01*
X145786271Y-106901782D01*
X145786270Y-106901783D01*
X145776933Y-106914372D01*
X145626625Y-107117039D01*
X145487287Y-107349512D01*
X145371405Y-107594522D01*
X145280097Y-107849712D01*
X145279359Y-107852659D01*
X145279357Y-107852665D01*
X145222545Y-108079475D01*
X145214242Y-108112622D01*
X145174473Y-108380721D01*
X145168828Y-108495641D01*
X145166180Y-108549535D01*
X145165590Y-108555411D01*
X145165192Y-108557037D01*
X145164500Y-108568191D01*
X145164500Y-108580676D01*
X145164351Y-108586760D01*
X145163154Y-108611129D01*
X145162326Y-108620580D01*
X145159775Y-108640770D01*
X145160452Y-108647672D01*
X145163908Y-108682920D01*
X145164500Y-108695021D01*
X145164500Y-114042333D01*
X145164477Y-114044699D01*
X145163685Y-114086209D01*
X145163403Y-114100974D01*
X145163303Y-114104112D01*
X145162649Y-114118741D01*
X145161188Y-114151386D01*
X145160880Y-114156186D01*
X145158227Y-114187877D01*
X145157510Y-114194373D01*
X145154933Y-114213173D01*
X145153608Y-114220978D01*
X145151397Y-114231876D01*
X145149403Y-114240204D01*
X145147230Y-114248073D01*
X145146745Y-114249829D01*
X145144302Y-114257655D01*
X145139050Y-114272710D01*
X145136566Y-114279233D01*
X145132621Y-114288775D01*
X145126046Y-114304677D01*
X145123936Y-114309489D01*
X145121444Y-114314857D01*
X145116363Y-114324638D01*
X145091721Y-114367317D01*
X145091719Y-114367321D01*
X145088473Y-114372944D01*
X145086467Y-114379117D01*
X145086465Y-114379122D01*
X145051492Y-114486758D01*
X145029458Y-114554572D01*
X145009496Y-114744500D01*
X145029458Y-114934428D01*
X145045926Y-114985112D01*
X145086465Y-115109878D01*
X145086467Y-115109883D01*
X145088473Y-115116056D01*
X145183960Y-115281444D01*
X145188306Y-115286271D01*
X145188307Y-115286272D01*
X145206851Y-115306867D01*
X145311747Y-115423366D01*
X145466248Y-115535618D01*
X145640712Y-115613294D01*
X145647074Y-115614646D01*
X145647073Y-115614646D01*
X145821150Y-115651648D01*
X145821155Y-115651648D01*
X145827513Y-115653000D01*
X146018487Y-115653000D01*
X146024845Y-115651648D01*
X146024850Y-115651648D01*
X146198927Y-115614646D01*
X146198926Y-115614646D01*
X146205288Y-115613294D01*
X146379752Y-115535618D01*
X146534253Y-115423366D01*
X146639149Y-115306867D01*
X146657693Y-115286272D01*
X146657694Y-115286271D01*
X146662040Y-115281444D01*
X146757527Y-115116056D01*
X146759533Y-115109883D01*
X146759535Y-115109878D01*
X146800074Y-114985112D01*
X146816542Y-114934428D01*
X146836504Y-114744500D01*
X146816542Y-114554572D01*
X146794508Y-114486758D01*
X146759535Y-114379122D01*
X146759533Y-114379117D01*
X146757527Y-114372944D01*
X146729625Y-114324617D01*
X146724547Y-114314840D01*
X146722064Y-114309492D01*
X146719947Y-114304665D01*
X146709427Y-114279219D01*
X146706962Y-114272746D01*
X146701694Y-114257649D01*
X146699254Y-114249829D01*
X146698769Y-114248073D01*
X146696596Y-114240204D01*
X146694602Y-114231876D01*
X146692391Y-114220978D01*
X146691066Y-114213173D01*
X146688489Y-114194373D01*
X146687772Y-114187877D01*
X146685119Y-114156186D01*
X146684811Y-114151386D01*
X146683350Y-114118741D01*
X146682696Y-114104112D01*
X146682596Y-114100974D01*
X146682315Y-114086209D01*
X146681522Y-114044699D01*
X146681500Y-114042387D01*
X146681500Y-108713436D01*
X146682707Y-108696179D01*
X146685459Y-108676599D01*
X146685459Y-108676594D01*
X146686001Y-108672740D01*
X146686299Y-108651427D01*
X146684798Y-108638046D01*
X146684407Y-108614496D01*
X146687069Y-108580676D01*
X146696021Y-108466937D01*
X146699064Y-108447724D01*
X146699755Y-108444848D01*
X146739986Y-108277272D01*
X146745999Y-108258767D01*
X146813082Y-108096813D01*
X146821916Y-108079475D01*
X146913513Y-107930004D01*
X146924935Y-107914281D01*
X147017591Y-107805795D01*
X147031366Y-107792654D01*
X147032956Y-107791108D01*
X147033025Y-107791071D01*
X147035872Y-107788356D01*
X147040931Y-107784431D01*
X147042288Y-107786180D01*
X147094739Y-107758479D01*
X147119410Y-107756000D01*
X148014887Y-107756000D01*
X148017253Y-107756023D01*
X148018850Y-107756053D01*
X148073507Y-107757097D01*
X148076613Y-107757196D01*
X148113017Y-107758824D01*
X148123910Y-107759312D01*
X148128680Y-107759618D01*
X148160402Y-107762274D01*
X148166858Y-107762987D01*
X148185657Y-107765563D01*
X148193489Y-107766893D01*
X148204362Y-107769100D01*
X148212697Y-107771094D01*
X148217378Y-107772386D01*
X148222331Y-107773754D01*
X148230163Y-107776199D01*
X148237934Y-107778911D01*
X148244245Y-107781113D01*
X148259609Y-107788154D01*
X148260248Y-107788618D01*
X148434712Y-107866294D01*
X148441074Y-107867646D01*
X148441073Y-107867646D01*
X148615150Y-107904648D01*
X148615155Y-107904648D01*
X148621513Y-107906000D01*
X148812487Y-107906000D01*
X148818845Y-107904648D01*
X148818850Y-107904648D01*
X148992927Y-107867646D01*
X148992926Y-107867646D01*
X148999288Y-107866294D01*
X149173752Y-107788618D01*
X149328253Y-107676366D01*
X149456040Y-107534444D01*
X149503783Y-107451750D01*
X149548279Y-107374682D01*
X149548280Y-107374681D01*
X149551527Y-107369056D01*
X149553533Y-107362883D01*
X149553535Y-107362878D01*
X149594983Y-107235313D01*
X149610542Y-107187428D01*
X149630504Y-106997500D01*
X149610542Y-106807572D01*
X149587689Y-106737238D01*
X149553535Y-106632122D01*
X149553533Y-106632117D01*
X149551527Y-106625944D01*
X149456040Y-106460556D01*
X149440839Y-106443673D01*
X149332600Y-106323462D01*
X149328253Y-106318634D01*
X149173752Y-106206382D01*
X148999288Y-106128706D01*
X148934807Y-106115000D01*
X148818850Y-106090352D01*
X148818845Y-106090352D01*
X148812487Y-106089000D01*
X148621513Y-106089000D01*
X148615155Y-106090352D01*
X148615150Y-106090352D01*
X148499193Y-106115000D01*
X148434712Y-106128706D01*
X148260248Y-106206382D01*
X148259611Y-106206845D01*
X148244247Y-106213885D01*
X148230176Y-106218795D01*
X148222327Y-106221245D01*
X148212690Y-106223906D01*
X148204360Y-106225899D01*
X148198448Y-106227099D01*
X148193493Y-106228105D01*
X148185663Y-106229435D01*
X148166869Y-106232010D01*
X148160386Y-106232725D01*
X148132195Y-106235086D01*
X148132182Y-106235088D01*
X148131304Y-106235162D01*
X148128712Y-106235379D01*
X148123919Y-106235687D01*
X148076616Y-106237803D01*
X148073509Y-106237902D01*
X148018804Y-106238946D01*
X148017199Y-106238977D01*
X148014833Y-106239000D01*
X147576004Y-106239000D01*
X147508965Y-106219315D01*
X147463210Y-106166511D01*
X147452004Y-106115000D01*
X147452004Y-104913918D01*
X147453414Y-104895269D01*
X147455618Y-104880779D01*
X147456702Y-104873655D01*
X147452412Y-104820908D01*
X147452004Y-104810856D01*
X147452004Y-99393500D01*
X147452495Y-99382476D01*
X147452677Y-99380433D01*
X147454144Y-99373381D01*
X147452049Y-99295938D01*
X147452004Y-99292585D01*
X147452004Y-95633676D01*
X147452019Y-95631717D01*
X147452261Y-95616391D01*
X147452868Y-95577979D01*
X147452946Y-95575155D01*
X147454904Y-95524553D01*
X147455153Y-95520139D01*
X147457771Y-95484982D01*
X147458376Y-95478892D01*
X147459477Y-95470036D01*
X147461127Y-95456772D01*
X147462281Y-95449348D01*
X147464872Y-95435468D01*
X147466656Y-95427408D01*
X147469792Y-95415184D01*
X147472024Y-95407518D01*
X147477627Y-95390354D01*
X147479936Y-95383892D01*
X147484528Y-95372085D01*
X147489913Y-95358236D01*
X147498094Y-95341179D01*
X147516280Y-95309680D01*
X147519527Y-95304056D01*
X147535004Y-95256424D01*
X147574440Y-95198750D01*
X147638798Y-95171551D01*
X147707645Y-95183465D01*
X147758942Y-95230414D01*
X147782876Y-95269855D01*
X147785604Y-95274350D01*
X147816066Y-95309454D01*
X147936042Y-95447715D01*
X147936046Y-95447719D01*
X147939485Y-95451682D01*
X148121044Y-95600551D01*
X148125605Y-95603147D01*
X148125606Y-95603148D01*
X148320532Y-95714107D01*
X148320537Y-95714109D01*
X148325090Y-95716701D01*
X148545789Y-95796811D01*
X148776830Y-95838590D01*
X148801429Y-95839750D01*
X148966450Y-95839750D01*
X148969066Y-95839528D01*
X148969067Y-95839528D01*
X149136215Y-95825345D01*
X149141448Y-95824901D01*
X149368706Y-95765917D01*
X149582778Y-95669484D01*
X149777541Y-95538362D01*
X149947427Y-95376299D01*
X149976580Y-95337116D01*
X150036780Y-95256205D01*
X150092591Y-95214170D01*
X150162268Y-95208981D01*
X150223689Y-95242286D01*
X150258513Y-95309454D01*
X150304481Y-95580005D01*
X150386366Y-95864233D01*
X150499559Y-96137506D01*
X150642638Y-96396387D01*
X150813802Y-96637620D01*
X150816119Y-96640213D01*
X150816120Y-96640214D01*
X150956343Y-96797124D01*
X150955297Y-96798059D01*
X150956722Y-96799170D01*
X150957244Y-96798648D01*
X150959106Y-96800510D01*
X150960984Y-96802497D01*
X150961479Y-96802883D01*
X150961574Y-96802978D01*
X150963601Y-96805247D01*
X150963680Y-96805348D01*
X150963885Y-96805565D01*
X150989839Y-96834608D01*
X150996535Y-96842776D01*
X151001193Y-96848979D01*
X151010544Y-96858528D01*
X151035147Y-96877819D01*
X151046308Y-96887712D01*
X151883301Y-97724705D01*
X151916786Y-97786028D01*
X151911802Y-97855720D01*
X151869930Y-97911653D01*
X151804466Y-97936070D01*
X151766673Y-97932960D01*
X151708560Y-97919008D01*
X151708553Y-97919007D01*
X151703826Y-97917872D01*
X151698976Y-97917490D01*
X151698974Y-97917490D01*
X151452354Y-97898081D01*
X151447500Y-97897699D01*
X151442646Y-97898081D01*
X151196026Y-97917490D01*
X151196024Y-97917490D01*
X151191174Y-97917872D01*
X151186447Y-97919007D01*
X151186440Y-97919008D01*
X150951220Y-97975480D01*
X150941160Y-97977895D01*
X150936660Y-97979759D01*
X150708117Y-98074424D01*
X150708113Y-98074426D01*
X150703613Y-98076290D01*
X150484384Y-98210634D01*
X150288869Y-98377619D01*
X150121884Y-98573134D01*
X149987540Y-98792363D01*
X149985676Y-98796863D01*
X149985674Y-98796867D01*
X149909844Y-98979939D01*
X149889145Y-99029910D01*
X149888008Y-99034646D01*
X149830258Y-99275190D01*
X149830257Y-99275197D01*
X149829122Y-99279924D01*
X149828740Y-99284774D01*
X149828740Y-99284776D01*
X149817789Y-99423925D01*
X149808949Y-99536250D01*
X149809331Y-99541104D01*
X149825985Y-99752711D01*
X149829122Y-99792576D01*
X149830257Y-99797303D01*
X149830258Y-99797310D01*
X149857458Y-99910604D01*
X149889145Y-100042590D01*
X149891009Y-100047090D01*
X149985580Y-100275404D01*
X149987540Y-100280137D01*
X150121884Y-100499366D01*
X150288869Y-100694881D01*
X150484384Y-100861866D01*
X150703613Y-100996210D01*
X150708113Y-100998074D01*
X150708117Y-100998076D01*
X150813443Y-101041703D01*
X150941160Y-101094605D01*
X150945896Y-101095742D01*
X151186440Y-101153492D01*
X151186447Y-101153493D01*
X151191174Y-101154628D01*
X151196024Y-101155010D01*
X151196026Y-101155010D01*
X151442646Y-101174419D01*
X151447500Y-101174801D01*
X151452354Y-101174419D01*
X151698974Y-101155010D01*
X151698976Y-101155010D01*
X151703826Y-101154628D01*
X151708553Y-101153493D01*
X151708560Y-101153492D01*
X151949104Y-101095742D01*
X151953840Y-101094605D01*
X152081557Y-101041703D01*
X152186883Y-100998076D01*
X152186887Y-100998074D01*
X152191387Y-100996210D01*
X152410616Y-100861866D01*
X152606131Y-100694881D01*
X152773116Y-100499366D01*
X152907460Y-100280137D01*
X152909421Y-100275404D01*
X153003991Y-100047090D01*
X153005855Y-100042590D01*
X153037542Y-99910604D01*
X153064742Y-99797310D01*
X153064743Y-99797303D01*
X153065878Y-99792576D01*
X153069016Y-99752711D01*
X153085669Y-99541104D01*
X153086051Y-99536250D01*
X153077211Y-99423925D01*
X153066260Y-99284776D01*
X153066260Y-99284774D01*
X153065878Y-99279924D01*
X153064743Y-99275197D01*
X153064742Y-99275190D01*
X153050790Y-99217078D01*
X153054281Y-99147296D01*
X153094944Y-99090478D01*
X153159871Y-99064665D01*
X153228446Y-99078051D01*
X153259045Y-99100450D01*
X153362987Y-99204392D01*
X153373682Y-99216587D01*
X153390270Y-99238205D01*
X153404324Y-99249464D01*
X153420013Y-99264471D01*
X153432820Y-99279074D01*
X153510757Y-99367945D01*
X153520630Y-99380811D01*
X153610918Y-99515935D01*
X153619011Y-99529952D01*
X153690885Y-99675699D01*
X153697091Y-99690683D01*
X153749325Y-99844556D01*
X153753523Y-99860224D01*
X153785223Y-100019593D01*
X153787338Y-100035653D01*
X153795874Y-100165874D01*
X153795078Y-100190160D01*
X153793882Y-100199244D01*
X153794702Y-100206672D01*
X153794702Y-100206674D01*
X153797751Y-100234289D01*
X153798500Y-100247896D01*
X153798500Y-104531687D01*
X153797439Y-104547872D01*
X153793882Y-104574890D01*
X153794702Y-104582317D01*
X153795858Y-104592783D01*
X153796341Y-104614499D01*
X153793136Y-104663404D01*
X153787340Y-104751826D01*
X153785223Y-104767907D01*
X153753522Y-104927278D01*
X153749327Y-104942939D01*
X153697087Y-105096831D01*
X153690891Y-105111789D01*
X153627373Y-105240589D01*
X153619016Y-105257536D01*
X153610906Y-105271582D01*
X153520635Y-105406683D01*
X153510761Y-105419552D01*
X153424981Y-105517366D01*
X153424731Y-105517651D01*
X153406990Y-105534266D01*
X153399722Y-105539843D01*
X153395045Y-105545681D01*
X153377680Y-105567356D01*
X153368588Y-105577507D01*
X152600517Y-106345578D01*
X152587296Y-106357051D01*
X152568699Y-106371014D01*
X152559151Y-106380365D01*
X152548389Y-106394090D01*
X152544062Y-106399307D01*
X152418776Y-106542168D01*
X152299812Y-106720211D01*
X152218266Y-106885570D01*
X152213076Y-106896094D01*
X152165771Y-106947513D01*
X152101864Y-106965250D01*
X151716866Y-106965250D01*
X151713535Y-106965612D01*
X151713514Y-106965613D01*
X151710386Y-106965953D01*
X151641614Y-106953621D01*
X151590426Y-106906065D01*
X151573000Y-106842678D01*
X151573000Y-105836603D01*
X151574237Y-105819131D01*
X151576941Y-105800132D01*
X151577513Y-105796113D01*
X151577653Y-105782749D01*
X151576797Y-105775672D01*
X151575995Y-105765647D01*
X151574150Y-105718680D01*
X151562005Y-105409564D01*
X151561554Y-105405748D01*
X151537660Y-105203878D01*
X151518108Y-105038681D01*
X151514784Y-105021967D01*
X151445724Y-104674779D01*
X151445248Y-104672385D01*
X151442716Y-104663404D01*
X151344537Y-104315292D01*
X151344535Y-104315286D01*
X151343872Y-104312935D01*
X151214607Y-103962546D01*
X151200227Y-103931352D01*
X151059267Y-103625586D01*
X151059267Y-103625585D01*
X151058250Y-103623380D01*
X150934999Y-103403300D01*
X150876954Y-103299653D01*
X150876950Y-103299646D01*
X150875763Y-103297527D01*
X150668273Y-102986997D01*
X150437058Y-102693703D01*
X150205963Y-102443706D01*
X150197858Y-102433986D01*
X150196037Y-102431561D01*
X150196036Y-102431560D01*
X150193593Y-102428306D01*
X150189119Y-102423737D01*
X150188943Y-102423508D01*
X150188718Y-102423328D01*
X150184242Y-102418757D01*
X150181059Y-102416261D01*
X150181051Y-102416254D01*
X150172062Y-102409206D01*
X150156114Y-102394253D01*
X149989918Y-102208279D01*
X149981249Y-102197407D01*
X149819393Y-101969293D01*
X149811994Y-101957519D01*
X149676685Y-101712696D01*
X149670652Y-101700168D01*
X149563609Y-101441744D01*
X149559016Y-101428619D01*
X149555721Y-101417182D01*
X149481576Y-101159818D01*
X149478488Y-101146286D01*
X149448475Y-100969642D01*
X149431632Y-100870511D01*
X149430075Y-100856693D01*
X149416296Y-100611343D01*
X149417162Y-100588206D01*
X149417642Y-100584558D01*
X149418618Y-100577145D01*
X149414749Y-100542100D01*
X149414000Y-100528493D01*
X149414000Y-99022043D01*
X149414081Y-99017570D01*
X149415439Y-98979944D01*
X149415440Y-98979939D01*
X149415440Y-98979934D01*
X149416299Y-98969173D01*
X149417292Y-98961163D01*
X149433029Y-98914310D01*
X149438267Y-98905260D01*
X149440763Y-98901134D01*
X149465061Y-98862683D01*
X149465275Y-98862818D01*
X149465350Y-98862702D01*
X149465134Y-98862566D01*
X149498174Y-98810249D01*
X149498336Y-98809993D01*
X149501981Y-98804133D01*
X149502174Y-98803818D01*
X149506347Y-98796867D01*
X149506778Y-98796150D01*
X149506802Y-98796110D01*
X149506887Y-98795968D01*
X149541817Y-98736581D01*
X149544138Y-98732516D01*
X149548143Y-98725502D01*
X149548174Y-98725446D01*
X149548332Y-98725170D01*
X149548625Y-98724641D01*
X149554820Y-98713106D01*
X149568257Y-98687300D01*
X149570847Y-98682580D01*
X149611777Y-98611687D01*
X149611780Y-98611679D01*
X149615027Y-98606056D01*
X149617033Y-98599883D01*
X149617035Y-98599878D01*
X149655951Y-98480106D01*
X149674042Y-98424428D01*
X149694004Y-98234500D01*
X149674042Y-98044572D01*
X149639049Y-97936874D01*
X149617035Y-97869122D01*
X149617033Y-97869117D01*
X149615027Y-97862944D01*
X149519540Y-97697556D01*
X149391753Y-97555634D01*
X149237252Y-97443382D01*
X149062788Y-97365706D01*
X149032661Y-97359302D01*
X148882350Y-97327352D01*
X148882345Y-97327352D01*
X148875987Y-97326000D01*
X148685013Y-97326000D01*
X148678655Y-97327352D01*
X148678650Y-97327352D01*
X148528339Y-97359302D01*
X148498212Y-97365706D01*
X148323748Y-97443382D01*
X148169247Y-97555634D01*
X148041460Y-97697556D01*
X147945973Y-97862944D01*
X147943967Y-97869117D01*
X147943965Y-97869122D01*
X147921951Y-97936874D01*
X147886958Y-98044572D01*
X147866996Y-98234500D01*
X147886958Y-98424428D01*
X147905049Y-98480106D01*
X147943965Y-98599878D01*
X147943967Y-98599883D01*
X147945973Y-98606056D01*
X147949219Y-98611678D01*
X147949222Y-98611685D01*
X147990136Y-98682549D01*
X147992728Y-98687273D01*
X148006177Y-98713104D01*
X148012374Y-98724641D01*
X148012667Y-98725170D01*
X148012824Y-98725446D01*
X148012856Y-98725502D01*
X148016861Y-98732516D01*
X148019182Y-98736581D01*
X148019335Y-98736841D01*
X148049857Y-98788733D01*
X148054112Y-98795968D01*
X148054221Y-98796149D01*
X148054282Y-98796252D01*
X148056406Y-98799784D01*
X148059141Y-98804333D01*
X148059266Y-98804536D01*
X148059273Y-98804548D01*
X148059321Y-98804626D01*
X148062625Y-98809930D01*
X148062647Y-98809966D01*
X148095804Y-98862469D01*
X148095864Y-98862564D01*
X148095939Y-98862683D01*
X148096070Y-98862891D01*
X148120236Y-98901134D01*
X148122732Y-98905260D01*
X148127970Y-98914310D01*
X148143709Y-98961181D01*
X148144699Y-98969173D01*
X148145559Y-98979939D01*
X148146919Y-99017577D01*
X148147000Y-99022055D01*
X148147000Y-100516608D01*
X148145763Y-100534080D01*
X148142487Y-100557098D01*
X148142347Y-100570462D01*
X148142835Y-100574493D01*
X148142835Y-100574495D01*
X148143263Y-100578033D01*
X148144043Y-100587522D01*
X148158098Y-100909432D01*
X148174156Y-101031406D01*
X148192985Y-101174419D01*
X148202385Y-101245822D01*
X148202968Y-101248452D01*
X148202970Y-101248463D01*
X148241208Y-101420943D01*
X148275821Y-101577071D01*
X148377848Y-101900660D01*
X148413250Y-101986127D01*
X148490653Y-102172994D01*
X148507690Y-102214126D01*
X148508944Y-102216535D01*
X148508945Y-102216537D01*
X148616688Y-102423508D01*
X148664358Y-102515082D01*
X148665812Y-102517365D01*
X148665813Y-102517366D01*
X148837449Y-102786779D01*
X148846660Y-102801238D01*
X148848310Y-102803388D01*
X149044619Y-103059223D01*
X149053208Y-103070417D01*
X149259748Y-103295817D01*
X149267474Y-103305122D01*
X149272407Y-103311693D01*
X149276878Y-103316258D01*
X149277057Y-103316492D01*
X149277287Y-103316676D01*
X149281758Y-103321242D01*
X149284948Y-103323743D01*
X149284951Y-103323746D01*
X149295148Y-103331741D01*
X149310514Y-103346048D01*
X149510677Y-103566895D01*
X149518397Y-103576301D01*
X149714921Y-103841282D01*
X149721679Y-103851396D01*
X149806477Y-103992873D01*
X149891273Y-104134347D01*
X149897010Y-104145079D01*
X150038062Y-104443309D01*
X150042718Y-104454551D01*
X150074410Y-104543123D01*
X150153700Y-104764721D01*
X150153853Y-104765150D01*
X150157385Y-104776793D01*
X150229529Y-105064810D01*
X150237543Y-105096803D01*
X150239916Y-105108735D01*
X150285648Y-105417033D01*
X150288321Y-105435055D01*
X150289513Y-105447160D01*
X150300764Y-105676159D01*
X150303957Y-105741162D01*
X150303045Y-105763431D01*
X150301382Y-105776064D01*
X150302202Y-105783492D01*
X150302202Y-105783494D01*
X150305251Y-105811109D01*
X150306000Y-105824716D01*
X150306000Y-112700608D01*
X150286315Y-112767647D01*
X150233511Y-112813402D01*
X150164353Y-112823346D01*
X150100797Y-112794321D01*
X150075991Y-112764936D01*
X150032121Y-112692641D01*
X150029396Y-112688150D01*
X149936416Y-112581000D01*
X149878958Y-112514785D01*
X149878954Y-112514781D01*
X149875515Y-112510818D01*
X149693956Y-112361949D01*
X149689394Y-112359352D01*
X149494468Y-112248393D01*
X149494463Y-112248391D01*
X149489910Y-112245799D01*
X149269211Y-112165689D01*
X149038170Y-112123910D01*
X149013571Y-112122750D01*
X148848550Y-112122750D01*
X148845934Y-112122972D01*
X148845933Y-112122972D01*
X148834879Y-112123910D01*
X148673552Y-112137599D01*
X148446294Y-112196583D01*
X148232222Y-112293016D01*
X148037459Y-112424138D01*
X147867573Y-112586201D01*
X147727422Y-112774571D01*
X147725043Y-112779249D01*
X147725043Y-112779250D01*
X147627983Y-112970154D01*
X147621013Y-112983862D01*
X147619459Y-112988867D01*
X147552945Y-113203077D01*
X147552944Y-113203083D01*
X147551389Y-113208090D01*
X147550699Y-113213294D01*
X147550699Y-113213295D01*
X147533250Y-113344946D01*
X147520539Y-113440843D01*
X147520736Y-113446085D01*
X147528760Y-113659793D01*
X147529348Y-113675466D01*
X147577562Y-113905251D01*
X147620682Y-114014439D01*
X147655489Y-114102576D01*
X147663802Y-114123627D01*
X147785604Y-114324350D01*
X147827772Y-114372944D01*
X147936042Y-114497715D01*
X147936046Y-114497719D01*
X147939485Y-114501682D01*
X148121044Y-114650551D01*
X148125605Y-114653147D01*
X148125606Y-114653148D01*
X148320532Y-114764107D01*
X148320537Y-114764109D01*
X148325090Y-114766701D01*
X148545789Y-114846811D01*
X148776830Y-114888590D01*
X148801429Y-114889750D01*
X148966450Y-114889750D01*
X148969066Y-114889528D01*
X148969067Y-114889528D01*
X149136215Y-114875345D01*
X149141448Y-114874901D01*
X149368706Y-114815917D01*
X149582778Y-114719484D01*
X149777541Y-114588362D01*
X149947427Y-114426299D01*
X150084944Y-114241469D01*
X150140753Y-114199435D01*
X150210430Y-114194246D01*
X150271851Y-114227551D01*
X150305516Y-114288775D01*
X150308398Y-114312772D01*
X150312222Y-114487235D01*
X150313645Y-114552163D01*
X150313735Y-114553530D01*
X150344007Y-115013377D01*
X150344260Y-115017221D01*
X150389355Y-115427183D01*
X150390913Y-115441351D01*
X150391650Y-115456133D01*
X150391537Y-115467499D01*
X150393150Y-115480766D01*
X150394160Y-115484690D01*
X150394162Y-115484701D01*
X150400941Y-115511040D01*
X150403784Y-115525690D01*
X150457725Y-115933620D01*
X150520392Y-116407534D01*
X150524107Y-116435632D01*
X150524810Y-116442357D01*
X150538548Y-116620696D01*
X150540088Y-116640694D01*
X150540263Y-116657099D01*
X150533021Y-116787377D01*
X150530459Y-116806479D01*
X150511281Y-116895967D01*
X150505711Y-116914645D01*
X150485696Y-116966482D01*
X150475862Y-116991950D01*
X150469210Y-117006358D01*
X150420153Y-117096895D01*
X150415416Y-117104905D01*
X150402572Y-117124871D01*
X150351234Y-117204677D01*
X150351229Y-117204684D01*
X150339056Y-117223608D01*
X150338038Y-117225166D01*
X150242635Y-117368697D01*
X150242112Y-117369484D01*
X150236693Y-117377812D01*
X150236451Y-117378192D01*
X150236291Y-117378449D01*
X150231553Y-117386046D01*
X150231509Y-117386118D01*
X150231364Y-117386350D01*
X150192666Y-117449731D01*
X150138530Y-117538399D01*
X150131330Y-117550191D01*
X150121414Y-117567161D01*
X150120971Y-117567954D01*
X150111655Y-117585420D01*
X150111404Y-117585913D01*
X150111385Y-117585950D01*
X150015561Y-117774368D01*
X150015194Y-117775090D01*
X150004271Y-117797963D01*
X150003796Y-117799025D01*
X149994086Y-117822265D01*
X149993835Y-117822911D01*
X149993823Y-117822940D01*
X149967113Y-117891602D01*
X149966110Y-117894099D01*
X149889145Y-118079910D01*
X149888008Y-118084646D01*
X149830258Y-118325190D01*
X149830257Y-118325197D01*
X149829122Y-118329924D01*
X149828740Y-118334774D01*
X149828740Y-118334776D01*
X149809941Y-118573643D01*
X149808949Y-118586250D01*
X149809331Y-118591104D01*
X149823487Y-118770970D01*
X149829122Y-118842576D01*
X149830257Y-118847303D01*
X149830258Y-118847310D01*
X149886730Y-119082530D01*
X149889145Y-119092590D01*
X149891009Y-119097090D01*
X149985580Y-119325404D01*
X149987540Y-119330137D01*
X150121884Y-119549366D01*
X150288869Y-119744881D01*
X150484384Y-119911866D01*
X150703613Y-120046210D01*
X150708113Y-120048074D01*
X150708117Y-120048076D01*
X150815304Y-120092474D01*
X150941160Y-120144605D01*
X150945896Y-120145742D01*
X151186440Y-120203492D01*
X151186447Y-120203493D01*
X151191174Y-120204628D01*
X151196024Y-120205010D01*
X151196026Y-120205010D01*
X151442646Y-120224419D01*
X151447500Y-120224801D01*
X151452354Y-120224419D01*
X151698974Y-120205010D01*
X151698976Y-120205010D01*
X151703826Y-120204628D01*
X151708553Y-120203493D01*
X151708560Y-120203492D01*
X151949104Y-120145742D01*
X151953840Y-120144605D01*
X152079696Y-120092474D01*
X152186883Y-120048076D01*
X152186887Y-120048074D01*
X152191387Y-120046210D01*
X152410616Y-119911866D01*
X152606131Y-119744881D01*
X152773116Y-119549366D01*
X152907460Y-119330137D01*
X152909421Y-119325404D01*
X153003991Y-119097090D01*
X153005855Y-119092590D01*
X153008270Y-119082530D01*
X153064742Y-118847310D01*
X153064743Y-118847303D01*
X153065878Y-118842576D01*
X153071514Y-118770970D01*
X153085669Y-118591104D01*
X153086051Y-118586250D01*
X153085059Y-118573643D01*
X153066260Y-118334776D01*
X153066260Y-118334774D01*
X153065878Y-118329924D01*
X153064743Y-118325197D01*
X153064742Y-118325190D01*
X153006992Y-118084646D01*
X153005855Y-118079910D01*
X152928370Y-117892844D01*
X152909326Y-117846867D01*
X152909324Y-117846863D01*
X152907460Y-117842363D01*
X152773116Y-117623134D01*
X152713528Y-117553366D01*
X152707918Y-117546290D01*
X152652853Y-117471386D01*
X152652826Y-117471350D01*
X152652384Y-117470749D01*
X152636802Y-117450630D01*
X152636069Y-117449731D01*
X152619742Y-117430687D01*
X152491145Y-117287974D01*
X156741428Y-117287974D01*
X156748109Y-117297523D01*
X156830974Y-117368296D01*
X156838833Y-117374006D01*
X157049682Y-117503214D01*
X157058346Y-117507629D01*
X157286815Y-117602264D01*
X157296051Y-117605265D01*
X157536520Y-117662997D01*
X157546105Y-117664515D01*
X157792646Y-117683918D01*
X157802354Y-117683918D01*
X158048895Y-117664515D01*
X158058480Y-117662997D01*
X158298949Y-117605265D01*
X158308185Y-117602264D01*
X158536654Y-117507629D01*
X158545318Y-117503214D01*
X158756167Y-117374006D01*
X158764026Y-117368296D01*
X158845351Y-117298839D01*
X158853644Y-117286133D01*
X158847732Y-117276087D01*
X157810107Y-116238462D01*
X157796387Y-116230970D01*
X157794581Y-116231099D01*
X157788074Y-116235281D01*
X156748701Y-117274654D01*
X156741428Y-117287974D01*
X152491145Y-117287974D01*
X152489486Y-117286133D01*
X152477717Y-117273072D01*
X152477703Y-117273056D01*
X152477295Y-117272604D01*
X152463926Y-117258330D01*
X152463304Y-117257691D01*
X152449150Y-117243708D01*
X152333775Y-117134113D01*
X152333773Y-117134111D01*
X152310078Y-117111603D01*
X152310049Y-117111576D01*
X152309965Y-117111496D01*
X152303165Y-117105154D01*
X152302833Y-117104850D01*
X152295207Y-117098008D01*
X152165079Y-116983592D01*
X152163693Y-116982354D01*
X152059082Y-116887557D01*
X152052426Y-116881054D01*
X151981532Y-116806391D01*
X151971361Y-116794205D01*
X151922435Y-116727301D01*
X151912205Y-116710717D01*
X151870428Y-116629295D01*
X151862989Y-116611514D01*
X151859081Y-116599661D01*
X151841117Y-116545170D01*
X151841115Y-116545165D01*
X151822133Y-116487590D01*
X151818038Y-116471702D01*
X151782525Y-116283038D01*
X151782525Y-116283036D01*
X151781243Y-116276227D01*
X151780172Y-116269538D01*
X151778687Y-116258308D01*
X151751288Y-116051104D01*
X156159832Y-116051104D01*
X156179235Y-116297645D01*
X156180753Y-116307230D01*
X156238485Y-116547699D01*
X156241486Y-116556935D01*
X156336121Y-116785404D01*
X156340536Y-116794068D01*
X156469744Y-117004917D01*
X156475454Y-117012776D01*
X156544911Y-117094101D01*
X156557617Y-117102394D01*
X156567663Y-117096482D01*
X157605288Y-116058857D01*
X157612780Y-116045137D01*
X157612651Y-116043331D01*
X157608469Y-116036824D01*
X156569096Y-114997451D01*
X156555776Y-114990178D01*
X156546227Y-114996859D01*
X156475454Y-115079724D01*
X156469744Y-115087583D01*
X156340536Y-115298432D01*
X156336121Y-115307096D01*
X156241486Y-115535565D01*
X156238485Y-115544801D01*
X156180753Y-115785270D01*
X156179235Y-115794855D01*
X156159832Y-116041396D01*
X156159832Y-116051104D01*
X151751288Y-116051104D01*
X151660369Y-115363522D01*
X151659299Y-115347341D01*
X151659291Y-115331742D01*
X151659284Y-115320086D01*
X151652578Y-115292852D01*
X151649726Y-115276771D01*
X151609249Y-114908778D01*
X151608774Y-114903367D01*
X151605854Y-114859014D01*
X151621092Y-114790826D01*
X151670776Y-114741701D01*
X151739132Y-114727236D01*
X151804457Y-114752023D01*
X151838247Y-114791130D01*
X151870476Y-114849754D01*
X151872774Y-114852916D01*
X151872774Y-114852917D01*
X151968819Y-114985112D01*
X152055555Y-115104494D01*
X152271102Y-115334028D01*
X152274107Y-115336514D01*
X152510168Y-115531800D01*
X152513718Y-115534737D01*
X152779576Y-115703456D01*
X152935989Y-115777058D01*
X153051640Y-115831479D01*
X153064484Y-115837523D01*
X153068189Y-115838727D01*
X153068192Y-115838728D01*
X153360238Y-115933620D01*
X153360245Y-115933622D01*
X153363948Y-115934825D01*
X153673246Y-115993827D01*
X153677138Y-115994072D01*
X153677139Y-115994072D01*
X153906890Y-116008527D01*
X153906906Y-116008527D01*
X153908853Y-116008650D01*
X154066147Y-116008650D01*
X154068094Y-116008527D01*
X154068110Y-116008527D01*
X154297861Y-115994072D01*
X154297862Y-115994072D01*
X154301754Y-115993827D01*
X154611052Y-115934825D01*
X154614755Y-115933622D01*
X154614762Y-115933620D01*
X154906808Y-115838728D01*
X154906811Y-115838727D01*
X154910516Y-115837523D01*
X154923361Y-115831479D01*
X155039011Y-115777058D01*
X155195424Y-115703456D01*
X155461282Y-115534737D01*
X155464833Y-115531800D01*
X155700893Y-115336514D01*
X155703898Y-115334028D01*
X155919445Y-115104494D01*
X156006181Y-114985112D01*
X156102226Y-114852917D01*
X156102226Y-114852916D01*
X156104524Y-114849754D01*
X156106404Y-114846334D01*
X156106408Y-114846328D01*
X156128377Y-114806367D01*
X156741356Y-114806367D01*
X156747268Y-114816413D01*
X159025904Y-117095049D01*
X159039224Y-117102322D01*
X159048773Y-117095641D01*
X159119546Y-117012776D01*
X159125256Y-117004917D01*
X159254464Y-116794068D01*
X159258879Y-116785404D01*
X159353514Y-116556935D01*
X159356515Y-116547699D01*
X159414247Y-116307230D01*
X159415765Y-116297645D01*
X159435168Y-116051104D01*
X159435168Y-116041396D01*
X159415765Y-115794855D01*
X159414247Y-115785270D01*
X159356515Y-115544801D01*
X159353514Y-115535565D01*
X159258879Y-115307096D01*
X159254464Y-115298432D01*
X159125258Y-115087586D01*
X159119154Y-115079184D01*
X159095677Y-115013377D01*
X159111505Y-114945324D01*
X159161612Y-114896630D01*
X159208990Y-114882746D01*
X159301448Y-114874901D01*
X159528706Y-114815917D01*
X159742778Y-114719484D01*
X159937541Y-114588362D01*
X160107427Y-114426299D01*
X160247578Y-114237929D01*
X160250665Y-114231858D01*
X160351611Y-114033312D01*
X160351613Y-114033308D01*
X160353987Y-114028638D01*
X160390782Y-113910137D01*
X160422055Y-113809423D01*
X160422056Y-113809417D01*
X160423611Y-113804410D01*
X160424301Y-113799205D01*
X160453772Y-113576858D01*
X160453772Y-113576854D01*
X160454461Y-113571657D01*
X160449002Y-113426256D01*
X160445849Y-113342278D01*
X160445849Y-113342277D01*
X160445652Y-113337034D01*
X160397438Y-113107249D01*
X160313127Y-112893756D01*
X160313126Y-112893755D01*
X160311198Y-112888873D01*
X160189396Y-112688150D01*
X160096416Y-112581000D01*
X160038958Y-112514785D01*
X160038954Y-112514781D01*
X160035515Y-112510818D01*
X159853956Y-112361949D01*
X159849394Y-112359352D01*
X159654468Y-112248393D01*
X159654463Y-112248391D01*
X159649910Y-112245799D01*
X159429211Y-112165689D01*
X159198170Y-112123910D01*
X159173571Y-112122750D01*
X159008550Y-112122750D01*
X159005934Y-112122972D01*
X159005933Y-112122972D01*
X158994879Y-112123910D01*
X158833552Y-112137599D01*
X158606294Y-112196583D01*
X158392222Y-112293016D01*
X158197459Y-112424138D01*
X158027573Y-112586201D01*
X157887422Y-112774571D01*
X157885043Y-112779249D01*
X157885043Y-112779250D01*
X157787983Y-112970154D01*
X157781013Y-112983862D01*
X157779459Y-112988867D01*
X157712945Y-113203077D01*
X157712944Y-113203083D01*
X157711389Y-113208090D01*
X157710699Y-113213294D01*
X157710699Y-113213295D01*
X157693250Y-113344946D01*
X157680539Y-113440843D01*
X157680736Y-113446085D01*
X157688760Y-113659793D01*
X157689348Y-113675466D01*
X157737562Y-113905251D01*
X157780682Y-114014439D01*
X157815489Y-114102576D01*
X157823802Y-114123627D01*
X157826526Y-114128116D01*
X157882954Y-114221106D01*
X157900904Y-114288631D01*
X157879498Y-114355140D01*
X157825532Y-114399519D01*
X157786674Y-114409052D01*
X157546105Y-114427985D01*
X157536520Y-114429503D01*
X157296051Y-114487235D01*
X157286815Y-114490236D01*
X157058346Y-114584871D01*
X157049682Y-114589286D01*
X156838833Y-114718494D01*
X156830974Y-114724204D01*
X156749649Y-114793661D01*
X156741356Y-114806367D01*
X156128377Y-114806367D01*
X156254337Y-114577245D01*
X156254337Y-114577244D01*
X156256216Y-114573827D01*
X156372130Y-114281063D01*
X156378141Y-114257655D01*
X156433425Y-114042333D01*
X156450436Y-113976080D01*
X156472123Y-113804410D01*
X156489412Y-113667554D01*
X156489412Y-113667548D01*
X156489900Y-113663688D01*
X156489900Y-113348812D01*
X156472781Y-113213295D01*
X156450924Y-113040284D01*
X156450436Y-113036420D01*
X156388276Y-112794321D01*
X156373101Y-112735217D01*
X156373099Y-112735210D01*
X156372130Y-112731437D01*
X156256216Y-112438673D01*
X156204479Y-112344563D01*
X156106408Y-112166172D01*
X156106404Y-112166166D01*
X156104524Y-112162746D01*
X155919445Y-111908006D01*
X155703898Y-111678472D01*
X155461282Y-111477763D01*
X155195424Y-111309044D01*
X154910516Y-111174977D01*
X154906811Y-111173773D01*
X154906808Y-111173772D01*
X154614762Y-111078880D01*
X154614755Y-111078878D01*
X154611052Y-111077675D01*
X154301754Y-111018673D01*
X154297862Y-111018428D01*
X154297861Y-111018428D01*
X154068110Y-111003973D01*
X154068094Y-111003973D01*
X154066147Y-111003850D01*
X153908853Y-111003850D01*
X153906906Y-111003973D01*
X153906890Y-111003973D01*
X153677139Y-111018428D01*
X153677138Y-111018428D01*
X153673246Y-111018673D01*
X153363948Y-111077675D01*
X153360245Y-111078878D01*
X153360238Y-111078880D01*
X153068192Y-111173772D01*
X153068189Y-111173773D01*
X153064484Y-111174977D01*
X152779576Y-111309044D01*
X152513718Y-111477763D01*
X152271102Y-111678472D01*
X152055555Y-111908006D01*
X151870476Y-112162746D01*
X151814863Y-112263906D01*
X151805662Y-112280643D01*
X151756116Y-112329907D01*
X151687801Y-112344563D01*
X151622406Y-112319959D01*
X151580695Y-112263906D01*
X151573000Y-112220905D01*
X151573000Y-110009822D01*
X151592685Y-109942783D01*
X151645489Y-109897028D01*
X151710386Y-109886547D01*
X151713514Y-109886887D01*
X151713535Y-109886888D01*
X151716866Y-109887250D01*
X153718134Y-109887250D01*
X153780316Y-109880495D01*
X153787593Y-109877767D01*
X153787597Y-109877766D01*
X153865818Y-109848442D01*
X153916705Y-109829365D01*
X154033261Y-109742011D01*
X154120615Y-109625455D01*
X154129206Y-109602537D01*
X154171171Y-109546674D01*
X154236676Y-109522367D01*
X154304924Y-109537334D01*
X154324517Y-109550657D01*
X154416633Y-109627133D01*
X154421028Y-109629701D01*
X154421032Y-109629704D01*
X154619662Y-109745774D01*
X154619666Y-109745776D01*
X154624059Y-109748343D01*
X154848497Y-109834047D01*
X154926285Y-109849873D01*
X155078934Y-109880930D01*
X155078936Y-109880930D01*
X155083919Y-109881944D01*
X155239069Y-109887633D01*
X155318923Y-109890562D01*
X155318926Y-109890562D01*
X155324002Y-109890748D01*
X155562300Y-109860221D01*
X155646163Y-109835061D01*
X155787543Y-109792645D01*
X155787545Y-109792644D01*
X155792412Y-109791184D01*
X155796975Y-109788948D01*
X155796979Y-109788947D01*
X155907208Y-109734946D01*
X156008158Y-109685491D01*
X156086369Y-109629704D01*
X156199602Y-109548935D01*
X156203745Y-109545980D01*
X156373920Y-109376398D01*
X156514113Y-109181299D01*
X156620559Y-108965923D01*
X156690399Y-108736054D01*
X156721757Y-108497864D01*
X156723507Y-108426250D01*
X156709567Y-108256685D01*
X156704239Y-108191885D01*
X156703822Y-108186813D01*
X156652926Y-107984190D01*
X156646532Y-107958733D01*
X156646530Y-107958728D01*
X156645294Y-107953806D01*
X156549497Y-107733487D01*
X156419002Y-107531773D01*
X156322407Y-107425616D01*
X156260746Y-107357851D01*
X156260742Y-107357847D01*
X156257314Y-107354080D01*
X156068776Y-107205182D01*
X155932778Y-107130107D01*
X155862905Y-107091535D01*
X155862902Y-107091534D01*
X155858450Y-107089076D01*
X155631985Y-107008880D01*
X155531832Y-106991040D01*
X155400473Y-106967641D01*
X155400468Y-106967641D01*
X155395463Y-106966749D01*
X155302483Y-106965613D01*
X155160327Y-106963876D01*
X155160325Y-106963876D01*
X155155237Y-106963814D01*
X155150208Y-106964584D01*
X155150202Y-106964584D01*
X155036497Y-106981984D01*
X154917756Y-107000154D01*
X154689399Y-107074792D01*
X154684885Y-107077142D01*
X154480815Y-107183374D01*
X154480809Y-107183378D01*
X154476300Y-107185725D01*
X154472230Y-107188781D01*
X154319082Y-107303768D01*
X154253653Y-107328278D01*
X154185359Y-107313524D01*
X154135883Y-107264189D01*
X154128521Y-107248135D01*
X154120615Y-107227045D01*
X154033261Y-107110489D01*
X154002422Y-107087376D01*
X153916705Y-107023135D01*
X153918767Y-107020383D01*
X153881090Y-106982655D01*
X153866285Y-106914372D01*
X153890747Y-106848925D01*
X153902282Y-106835622D01*
X154256086Y-106481818D01*
X154269307Y-106470345D01*
X154287908Y-106456379D01*
X154297456Y-106447028D01*
X154299960Y-106443835D01*
X154300105Y-106443673D01*
X154304940Y-106437900D01*
X154491880Y-106228714D01*
X154491881Y-106228713D01*
X154494198Y-106226120D01*
X154665362Y-105984886D01*
X154776406Y-105783967D01*
X154806758Y-105729050D01*
X154806760Y-105729045D01*
X154808440Y-105726006D01*
X154921633Y-105452733D01*
X155003518Y-105168505D01*
X155053064Y-104876896D01*
X155053650Y-104866472D01*
X155065058Y-104663325D01*
X155066457Y-104663404D01*
X155066235Y-104661603D01*
X155065500Y-104661603D01*
X155065500Y-104658933D01*
X155065575Y-104656258D01*
X155065500Y-104655651D01*
X155065500Y-104655452D01*
X155065666Y-104652493D01*
X155065685Y-104652344D01*
X155065695Y-104651982D01*
X155067411Y-104621417D01*
X155067876Y-104613150D01*
X155068918Y-104602629D01*
X155069441Y-104598955D01*
X155070013Y-104594937D01*
X155070153Y-104581573D01*
X155066398Y-104550543D01*
X155065500Y-104535647D01*
X155065500Y-100259781D01*
X155066737Y-100242309D01*
X155069441Y-100223310D01*
X155070013Y-100219291D01*
X155070153Y-100205927D01*
X155069666Y-100201898D01*
X155069655Y-100201704D01*
X155068989Y-100194172D01*
X155066211Y-100144694D01*
X155060088Y-100035674D01*
X155053259Y-99914071D01*
X155053258Y-99914066D01*
X155053064Y-99910604D01*
X155003518Y-99618995D01*
X154921633Y-99334766D01*
X154808439Y-99061494D01*
X154796424Y-99039753D01*
X154667039Y-98805649D01*
X154667038Y-98805648D01*
X154665361Y-98802613D01*
X154661447Y-98797096D01*
X154583532Y-98687285D01*
X154494197Y-98561379D01*
X154489160Y-98555742D01*
X154351658Y-98401878D01*
X154352708Y-98400939D01*
X154351280Y-98399826D01*
X154350755Y-98400351D01*
X154348884Y-98398480D01*
X154347016Y-98396505D01*
X154346531Y-98396127D01*
X154346416Y-98396012D01*
X154344411Y-98393768D01*
X154344330Y-98393664D01*
X154344105Y-98393426D01*
X154318174Y-98364409D01*
X154311476Y-98356238D01*
X154309245Y-98353267D01*
X154309243Y-98353265D01*
X154306806Y-98350019D01*
X154297455Y-98340471D01*
X154272852Y-98321180D01*
X154261691Y-98311287D01*
X154188378Y-98237974D01*
X156741428Y-98237974D01*
X156748109Y-98247523D01*
X156830974Y-98318296D01*
X156838833Y-98324006D01*
X157049682Y-98453214D01*
X157058346Y-98457629D01*
X157286815Y-98552264D01*
X157296051Y-98555265D01*
X157536520Y-98612997D01*
X157546105Y-98614515D01*
X157792646Y-98633918D01*
X157802354Y-98633918D01*
X158048895Y-98614515D01*
X158058480Y-98612997D01*
X158298949Y-98555265D01*
X158308185Y-98552264D01*
X158536654Y-98457629D01*
X158545318Y-98453214D01*
X158756167Y-98324006D01*
X158764026Y-98318296D01*
X158845351Y-98248839D01*
X158853644Y-98236133D01*
X158847732Y-98226087D01*
X157810107Y-97188462D01*
X157796387Y-97180970D01*
X157794581Y-97181099D01*
X157788074Y-97185281D01*
X156748701Y-98224654D01*
X156741428Y-98237974D01*
X154188378Y-98237974D01*
X152951508Y-97001104D01*
X156159832Y-97001104D01*
X156179235Y-97247645D01*
X156180753Y-97257230D01*
X156238485Y-97497699D01*
X156241486Y-97506935D01*
X156336121Y-97735404D01*
X156340536Y-97744068D01*
X156469744Y-97954917D01*
X156475454Y-97962776D01*
X156544911Y-98044101D01*
X156557617Y-98052394D01*
X156567663Y-98046482D01*
X157605288Y-97008857D01*
X157612780Y-96995137D01*
X157612651Y-96993331D01*
X157608469Y-96986824D01*
X156569096Y-95947451D01*
X156555776Y-95940178D01*
X156546227Y-95946859D01*
X156475454Y-96029724D01*
X156469744Y-96037583D01*
X156340536Y-96248432D01*
X156336121Y-96257096D01*
X156241486Y-96485565D01*
X156238485Y-96494801D01*
X156180753Y-96735270D01*
X156179235Y-96744855D01*
X156159832Y-96991396D01*
X156159832Y-97001104D01*
X152951508Y-97001104D01*
X152945971Y-96995567D01*
X152912487Y-96934245D01*
X152917471Y-96864553D01*
X152959343Y-96808620D01*
X153024807Y-96784203D01*
X153071971Y-96789956D01*
X153360238Y-96883620D01*
X153360245Y-96883622D01*
X153363948Y-96884825D01*
X153673246Y-96943827D01*
X153677138Y-96944072D01*
X153677139Y-96944072D01*
X153906890Y-96958527D01*
X153906906Y-96958527D01*
X153908853Y-96958650D01*
X154066147Y-96958650D01*
X154068094Y-96958527D01*
X154068110Y-96958527D01*
X154297861Y-96944072D01*
X154297862Y-96944072D01*
X154301754Y-96943827D01*
X154611052Y-96884825D01*
X154614755Y-96883622D01*
X154614762Y-96883620D01*
X154906808Y-96788728D01*
X154906811Y-96788727D01*
X154910516Y-96787523D01*
X154917572Y-96784203D01*
X155035385Y-96728764D01*
X155195424Y-96653456D01*
X155461282Y-96484737D01*
X155564660Y-96399216D01*
X155700893Y-96286514D01*
X155703898Y-96284028D01*
X155919445Y-96054494D01*
X155937866Y-96029140D01*
X156102226Y-95802917D01*
X156102226Y-95802916D01*
X156104524Y-95799754D01*
X156106404Y-95796334D01*
X156106408Y-95796328D01*
X156128377Y-95756367D01*
X156741356Y-95756367D01*
X156747268Y-95766413D01*
X159025904Y-98045049D01*
X159039224Y-98052322D01*
X159048773Y-98045641D01*
X159119546Y-97962776D01*
X159125256Y-97954917D01*
X159254464Y-97744068D01*
X159258879Y-97735404D01*
X159353514Y-97506935D01*
X159356515Y-97497699D01*
X159414247Y-97257230D01*
X159415765Y-97247645D01*
X159435168Y-97001104D01*
X159435168Y-96991396D01*
X159415765Y-96744855D01*
X159414247Y-96735270D01*
X159356515Y-96494801D01*
X159353514Y-96485565D01*
X159258879Y-96257096D01*
X159254464Y-96248432D01*
X159125258Y-96037586D01*
X159119154Y-96029184D01*
X159095677Y-95963377D01*
X159111505Y-95895324D01*
X159161612Y-95846630D01*
X159208990Y-95832746D01*
X159301448Y-95824901D01*
X159528706Y-95765917D01*
X159742778Y-95669484D01*
X159937541Y-95538362D01*
X160107427Y-95376299D01*
X160247578Y-95187929D01*
X160277739Y-95128607D01*
X160351611Y-94983312D01*
X160351613Y-94983308D01*
X160353987Y-94978638D01*
X160390782Y-94860137D01*
X160422055Y-94759423D01*
X160422056Y-94759417D01*
X160423611Y-94754410D01*
X160426436Y-94733095D01*
X160453772Y-94526858D01*
X160453772Y-94526854D01*
X160454461Y-94521657D01*
X160447052Y-94324326D01*
X160445849Y-94292278D01*
X160445849Y-94292277D01*
X160445652Y-94287034D01*
X160439658Y-94258463D01*
X160398517Y-94062391D01*
X160398517Y-94062390D01*
X160397438Y-94057249D01*
X160311198Y-93838873D01*
X160189396Y-93638150D01*
X160097783Y-93532575D01*
X160038958Y-93464785D01*
X160038954Y-93464781D01*
X160035515Y-93460818D01*
X159853956Y-93311949D01*
X159809094Y-93286412D01*
X159654468Y-93198393D01*
X159654463Y-93198391D01*
X159649910Y-93195799D01*
X159429211Y-93115689D01*
X159198170Y-93073910D01*
X159173571Y-93072750D01*
X159008550Y-93072750D01*
X159005934Y-93072972D01*
X159005933Y-93072972D01*
X158994879Y-93073910D01*
X158833552Y-93087599D01*
X158606294Y-93146583D01*
X158601502Y-93148742D01*
X158601501Y-93148742D01*
X158563855Y-93165700D01*
X158392222Y-93243016D01*
X158197459Y-93374138D01*
X158027573Y-93536201D01*
X157887422Y-93724571D01*
X157885043Y-93729249D01*
X157885043Y-93729250D01*
X157826824Y-93843759D01*
X157781013Y-93933862D01*
X157779459Y-93938867D01*
X157712945Y-94153077D01*
X157712944Y-94153083D01*
X157711389Y-94158090D01*
X157710699Y-94163294D01*
X157710699Y-94163295D01*
X157693250Y-94294946D01*
X157680539Y-94390843D01*
X157680736Y-94396085D01*
X157688760Y-94609793D01*
X157689348Y-94625466D01*
X157737562Y-94855251D01*
X157768069Y-94932500D01*
X157797268Y-95006437D01*
X157823802Y-95073627D01*
X157826526Y-95078116D01*
X157882954Y-95171106D01*
X157900904Y-95238631D01*
X157879498Y-95305140D01*
X157825532Y-95349519D01*
X157786674Y-95359052D01*
X157546105Y-95377985D01*
X157536520Y-95379503D01*
X157296051Y-95437235D01*
X157286815Y-95440236D01*
X157058346Y-95534871D01*
X157049682Y-95539286D01*
X156838833Y-95668494D01*
X156830974Y-95674204D01*
X156749649Y-95743661D01*
X156741356Y-95756367D01*
X156128377Y-95756367D01*
X156254337Y-95527245D01*
X156254337Y-95527244D01*
X156256216Y-95523827D01*
X156372130Y-95231063D01*
X156376468Y-95214170D01*
X156434951Y-94986390D01*
X156450436Y-94926080D01*
X156472123Y-94754410D01*
X156489412Y-94617554D01*
X156489412Y-94617548D01*
X156489900Y-94613688D01*
X156489900Y-94298812D01*
X156488625Y-94288714D01*
X156450924Y-93990284D01*
X156450436Y-93986420D01*
X156411400Y-93834384D01*
X156373101Y-93685217D01*
X156373099Y-93685210D01*
X156372130Y-93681437D01*
X156256216Y-93388673D01*
X156176437Y-93243555D01*
X156106408Y-93116172D01*
X156106404Y-93116166D01*
X156104524Y-93112746D01*
X156040772Y-93024998D01*
X155921738Y-92861162D01*
X155919445Y-92858006D01*
X155703898Y-92628472D01*
X155461282Y-92427763D01*
X155458010Y-92425686D01*
X155458001Y-92425680D01*
X155453644Y-92422916D01*
X155407585Y-92370377D01*
X155397242Y-92301277D01*
X155425900Y-92237555D01*
X155484459Y-92199442D01*
X155515211Y-92194311D01*
X155619768Y-92190203D01*
X155688782Y-92187491D01*
X155691210Y-92187204D01*
X155691218Y-92187203D01*
X155848315Y-92168609D01*
X156060114Y-92143541D01*
X156062494Y-92143068D01*
X156062504Y-92143066D01*
X156357214Y-92084444D01*
X156426853Y-92070592D01*
X156429190Y-92069933D01*
X156429202Y-92069930D01*
X156679372Y-91999374D01*
X156786738Y-91969094D01*
X156828059Y-91953850D01*
X157135287Y-91840507D01*
X157135290Y-91840506D01*
X157137550Y-91839672D01*
X157340504Y-91746109D01*
X157474938Y-91684134D01*
X157474944Y-91684131D01*
X157477126Y-91683125D01*
X157803373Y-91500418D01*
X157805380Y-91499077D01*
X157805393Y-91499069D01*
X158112249Y-91294034D01*
X158114280Y-91292677D01*
X158116186Y-91291175D01*
X158116199Y-91291165D01*
X158406023Y-91062686D01*
X158406030Y-91062680D01*
X158407929Y-91061183D01*
X158409712Y-91059535D01*
X158409720Y-91059528D01*
X158650167Y-90837261D01*
X158659709Y-90829289D01*
X158664912Y-90825368D01*
X158664917Y-90825364D01*
X158668026Y-90823021D01*
X158683307Y-90808161D01*
X158705842Y-90779932D01*
X158715069Y-90769612D01*
X161647373Y-87837308D01*
X161649010Y-87835701D01*
X161689609Y-87796623D01*
X161691902Y-87794472D01*
X161726806Y-87762559D01*
X161730417Y-87759384D01*
X161744754Y-87747262D01*
X161744756Y-87747260D01*
X161754672Y-87738876D01*
X161759770Y-87734791D01*
X161774902Y-87723307D01*
X161781367Y-87718718D01*
X161790604Y-87712597D01*
X161797910Y-87708113D01*
X161806611Y-87703178D01*
X161813890Y-87699363D01*
X161820266Y-87696286D01*
X161820388Y-87696226D01*
X161820407Y-87696217D01*
X161828246Y-87692433D01*
X161834609Y-87689580D01*
X161846562Y-87684620D01*
X161868303Y-87677861D01*
X161883437Y-87674644D01*
X161889788Y-87673294D01*
X162064252Y-87595618D01*
X162218753Y-87483366D01*
X162273250Y-87422841D01*
X162332737Y-87386192D01*
X162402594Y-87387523D01*
X162460642Y-87426409D01*
X162488452Y-87490506D01*
X162489400Y-87505813D01*
X162489399Y-104023039D01*
X162489399Y-120478127D01*
X162487923Y-120497202D01*
X162484213Y-120521031D01*
X162486231Y-120536461D01*
X162486961Y-120561381D01*
X162474846Y-120730789D01*
X162472329Y-120748297D01*
X162454709Y-120829294D01*
X162430849Y-120938976D01*
X162425865Y-120955952D01*
X162357668Y-121138794D01*
X162350318Y-121154887D01*
X162256799Y-121326155D01*
X162247234Y-121341038D01*
X162130293Y-121497254D01*
X162118707Y-121510625D01*
X161980723Y-121648609D01*
X161967352Y-121660195D01*
X161811136Y-121777136D01*
X161796253Y-121786701D01*
X161624985Y-121880220D01*
X161608892Y-121887570D01*
X161426050Y-121955767D01*
X161409073Y-121960751D01*
X161218395Y-122002231D01*
X161200892Y-122004747D01*
X161038544Y-122016358D01*
X161019299Y-122015558D01*
X161012398Y-122015474D01*
X161003669Y-122014115D01*
X160972016Y-122018254D01*
X160955940Y-122019301D01*
X146139310Y-122019301D01*
X146072271Y-121999616D01*
X146026516Y-121946812D01*
X146016572Y-121877654D01*
X146045597Y-121814098D01*
X146078716Y-121787115D01*
X146246713Y-121693032D01*
X146413946Y-121553946D01*
X146553032Y-121386713D01*
X146597234Y-121307785D01*
X146656532Y-121201902D01*
X146656535Y-121201896D01*
X146659313Y-121196935D01*
X146673587Y-121154887D01*
X146727401Y-120996353D01*
X146729230Y-120990966D01*
X146760441Y-120775705D01*
X146762070Y-120713500D01*
X146742167Y-120496900D01*
X146683126Y-120287555D01*
X146680614Y-120282461D01*
X146680612Y-120282456D01*
X146613192Y-120145742D01*
X146586923Y-120092474D01*
X146456780Y-119918191D01*
X146452610Y-119914336D01*
X146452607Y-119914333D01*
X146301232Y-119774404D01*
X146301230Y-119774403D01*
X146297056Y-119770544D01*
X146262941Y-119749019D01*
X146117911Y-119657512D01*
X146117910Y-119657511D01*
X146113099Y-119654476D01*
X146107824Y-119652371D01*
X146107819Y-119652369D01*
X145916348Y-119575981D01*
X145916349Y-119575981D01*
X145911072Y-119573876D01*
X145697739Y-119531441D01*
X145692052Y-119531367D01*
X145692047Y-119531366D01*
X145485934Y-119528668D01*
X145485929Y-119528668D01*
X145480246Y-119528594D01*
X145265875Y-119565430D01*
X145260542Y-119567398D01*
X145260540Y-119567398D01*
X145067138Y-119638747D01*
X145067135Y-119638748D01*
X145061807Y-119640714D01*
X144874876Y-119751927D01*
X144870604Y-119755673D01*
X144870599Y-119755677D01*
X144851091Y-119772786D01*
X144787709Y-119802189D01*
X144718493Y-119792657D01*
X144670106Y-119753923D01*
X144616701Y-119682664D01*
X144604335Y-119670298D01*
X144502032Y-119593626D01*
X144486690Y-119585227D01*
X144365985Y-119539976D01*
X144350982Y-119536409D01*
X144299927Y-119530863D01*
X144293229Y-119530500D01*
X143718330Y-119530500D01*
X143703331Y-119534904D01*
X143702144Y-119536274D01*
X143700500Y-119543832D01*
X143700500Y-120716500D01*
X143680815Y-120783539D01*
X143628011Y-120829294D01*
X143576500Y-120840500D01*
X142408331Y-120840500D01*
X142393332Y-120844904D01*
X142392145Y-120846274D01*
X142390501Y-120853832D01*
X142390501Y-121433226D01*
X142390864Y-121439931D01*
X142396408Y-121490977D01*
X142399978Y-121505988D01*
X142445227Y-121626690D01*
X142453626Y-121642032D01*
X142530298Y-121744335D01*
X142542664Y-121756701D01*
X142595201Y-121796075D01*
X142637042Y-121852031D01*
X142641988Y-121921726D01*
X142608469Y-121983031D01*
X142547127Y-122016482D01*
X142520836Y-122019301D01*
X127946575Y-122019301D01*
X127927500Y-122017825D01*
X127903671Y-122014115D01*
X127888236Y-122016133D01*
X127863321Y-122016863D01*
X127783625Y-122011164D01*
X127693908Y-122004747D01*
X127676405Y-122002231D01*
X127485727Y-121960751D01*
X127468750Y-121955767D01*
X127285908Y-121887570D01*
X127269815Y-121880220D01*
X127098547Y-121786701D01*
X127083664Y-121777136D01*
X126927448Y-121660195D01*
X126914077Y-121648609D01*
X126776093Y-121510625D01*
X126764507Y-121497254D01*
X126647566Y-121341038D01*
X126638001Y-121326155D01*
X126544482Y-121154887D01*
X126537132Y-121138794D01*
X126468935Y-120955952D01*
X126463951Y-120938976D01*
X126440091Y-120829294D01*
X126422471Y-120748297D01*
X126419954Y-120730789D01*
X126416493Y-120682387D01*
X126408360Y-120568670D01*
X142390500Y-120568670D01*
X142394904Y-120583669D01*
X142396274Y-120584856D01*
X142403832Y-120586500D01*
X143428670Y-120586500D01*
X143443669Y-120582096D01*
X143444856Y-120580726D01*
X143446500Y-120573168D01*
X143446500Y-119548331D01*
X143442096Y-119533332D01*
X143440726Y-119532145D01*
X143433168Y-119530501D01*
X142853774Y-119530501D01*
X142847069Y-119530864D01*
X142796023Y-119536408D01*
X142781012Y-119539978D01*
X142660310Y-119585227D01*
X142644968Y-119593626D01*
X142542665Y-119670298D01*
X142530298Y-119682665D01*
X142453626Y-119784968D01*
X142445227Y-119800310D01*
X142399976Y-119921015D01*
X142396409Y-119936018D01*
X142390863Y-119987073D01*
X142390500Y-119993771D01*
X142390500Y-120568670D01*
X126408360Y-120568670D01*
X126408344Y-120568446D01*
X126409144Y-120549201D01*
X126409228Y-120542300D01*
X126410587Y-120533571D01*
X126406448Y-120501918D01*
X126405401Y-120485842D01*
X126405401Y-119827974D01*
X131341428Y-119827974D01*
X131348109Y-119837523D01*
X131430974Y-119908296D01*
X131438833Y-119914006D01*
X131649682Y-120043214D01*
X131658346Y-120047629D01*
X131886815Y-120142264D01*
X131896051Y-120145265D01*
X132136520Y-120202997D01*
X132146105Y-120204515D01*
X132392646Y-120223918D01*
X132402354Y-120223918D01*
X132648895Y-120204515D01*
X132658480Y-120202997D01*
X132898949Y-120145265D01*
X132908185Y-120142264D01*
X133136654Y-120047629D01*
X133145318Y-120043214D01*
X133356167Y-119914006D01*
X133364026Y-119908296D01*
X133445351Y-119838839D01*
X133453644Y-119826133D01*
X133447732Y-119816087D01*
X132410107Y-118778462D01*
X132396387Y-118770970D01*
X132394581Y-118771099D01*
X132388074Y-118775281D01*
X131348701Y-119814654D01*
X131341428Y-119827974D01*
X126405401Y-119827974D01*
X126405401Y-118591104D01*
X130759832Y-118591104D01*
X130779235Y-118837645D01*
X130780753Y-118847230D01*
X130838485Y-119087699D01*
X130841486Y-119096935D01*
X130936121Y-119325404D01*
X130940536Y-119334068D01*
X131069744Y-119544917D01*
X131075454Y-119552776D01*
X131144911Y-119634101D01*
X131157617Y-119642394D01*
X131167663Y-119636482D01*
X132205288Y-118598857D01*
X132211564Y-118587363D01*
X132582220Y-118587363D01*
X132582349Y-118589169D01*
X132586531Y-118595676D01*
X133625904Y-119635049D01*
X133639224Y-119642322D01*
X133648773Y-119635641D01*
X133719546Y-119552776D01*
X133725256Y-119544917D01*
X133854464Y-119334068D01*
X133858879Y-119325404D01*
X133953514Y-119096935D01*
X133956515Y-119087699D01*
X134014247Y-118847230D01*
X134015765Y-118837645D01*
X134035168Y-118591104D01*
X134035168Y-118581396D01*
X134015765Y-118334855D01*
X134014247Y-118325270D01*
X133956515Y-118084801D01*
X133953514Y-118075565D01*
X133858879Y-117847096D01*
X133854464Y-117838432D01*
X133725256Y-117627583D01*
X133719546Y-117619724D01*
X133650089Y-117538399D01*
X133637383Y-117530106D01*
X133627337Y-117536018D01*
X132589712Y-118573643D01*
X132582220Y-118587363D01*
X132211564Y-118587363D01*
X132212780Y-118585137D01*
X132212651Y-118583331D01*
X132208469Y-118576824D01*
X131169096Y-117537451D01*
X131155776Y-117530178D01*
X131146227Y-117536859D01*
X131075454Y-117619724D01*
X131069744Y-117627583D01*
X130940536Y-117838432D01*
X130936121Y-117847096D01*
X130841486Y-118075565D01*
X130838485Y-118084801D01*
X130780753Y-118325270D01*
X130779235Y-118334855D01*
X130759832Y-118581396D01*
X130759832Y-118591104D01*
X126405401Y-118591104D01*
X126405401Y-117346367D01*
X131341356Y-117346367D01*
X131347268Y-117356413D01*
X132384893Y-118394038D01*
X132398613Y-118401530D01*
X132400419Y-118401401D01*
X132406926Y-118397219D01*
X133446299Y-117357846D01*
X133453572Y-117344526D01*
X133446891Y-117334977D01*
X133364026Y-117264204D01*
X133356167Y-117258494D01*
X133145318Y-117129286D01*
X133136654Y-117124871D01*
X132908185Y-117030236D01*
X132898949Y-117027235D01*
X132658480Y-116969503D01*
X132648895Y-116967985D01*
X132402354Y-116948582D01*
X132392646Y-116948582D01*
X132146105Y-116967985D01*
X132136520Y-116969503D01*
X131896051Y-117027235D01*
X131886815Y-117030236D01*
X131658346Y-117124871D01*
X131649682Y-117129286D01*
X131438833Y-117258494D01*
X131430974Y-117264204D01*
X131349649Y-117333661D01*
X131341356Y-117346367D01*
X126405401Y-117346367D01*
X126405401Y-113440843D01*
X128470539Y-113440843D01*
X128470736Y-113446085D01*
X128478760Y-113659793D01*
X128479348Y-113675466D01*
X128527562Y-113905251D01*
X128570682Y-114014439D01*
X128605489Y-114102576D01*
X128613802Y-114123627D01*
X128735604Y-114324350D01*
X128777772Y-114372944D01*
X128886042Y-114497715D01*
X128886046Y-114497719D01*
X128889485Y-114501682D01*
X129071044Y-114650551D01*
X129075605Y-114653147D01*
X129075606Y-114653148D01*
X129270532Y-114764107D01*
X129270537Y-114764109D01*
X129275090Y-114766701D01*
X129495789Y-114846811D01*
X129726830Y-114888590D01*
X129751429Y-114889750D01*
X129916450Y-114889750D01*
X129919066Y-114889528D01*
X129919067Y-114889528D01*
X130086215Y-114875345D01*
X130091448Y-114874901D01*
X130318706Y-114815917D01*
X130532778Y-114719484D01*
X130727541Y-114588362D01*
X130897427Y-114426299D01*
X131037578Y-114237929D01*
X131040665Y-114231858D01*
X131141611Y-114033312D01*
X131141613Y-114033308D01*
X131143987Y-114028638D01*
X131180782Y-113910137D01*
X131212055Y-113809423D01*
X131212056Y-113809417D01*
X131213611Y-113804410D01*
X131214301Y-113799205D01*
X131232263Y-113663688D01*
X132435100Y-113663688D01*
X132435588Y-113667548D01*
X132435588Y-113667554D01*
X132452877Y-113804410D01*
X132474564Y-113976080D01*
X132491575Y-114042333D01*
X132546860Y-114257655D01*
X132552870Y-114281063D01*
X132668784Y-114573827D01*
X132670663Y-114577244D01*
X132670663Y-114577245D01*
X132818592Y-114846328D01*
X132818596Y-114846334D01*
X132820476Y-114849754D01*
X132822774Y-114852916D01*
X132822774Y-114852917D01*
X132918819Y-114985112D01*
X133005555Y-115104494D01*
X133221102Y-115334028D01*
X133224107Y-115336514D01*
X133460168Y-115531800D01*
X133463718Y-115534737D01*
X133729576Y-115703456D01*
X133885989Y-115777058D01*
X134001640Y-115831479D01*
X134014484Y-115837523D01*
X134018189Y-115838727D01*
X134018192Y-115838728D01*
X134310238Y-115933620D01*
X134310245Y-115933622D01*
X134313948Y-115934825D01*
X134623246Y-115993827D01*
X134627138Y-115994072D01*
X134627139Y-115994072D01*
X134856890Y-116008527D01*
X134856906Y-116008527D01*
X134858853Y-116008650D01*
X135016147Y-116008650D01*
X135018094Y-116008527D01*
X135018110Y-116008527D01*
X135247861Y-115994072D01*
X135247862Y-115994072D01*
X135251754Y-115993827D01*
X135561052Y-115934825D01*
X135564755Y-115933622D01*
X135564762Y-115933620D01*
X135856808Y-115838728D01*
X135856811Y-115838727D01*
X135860516Y-115837523D01*
X135873361Y-115831479D01*
X135989011Y-115777058D01*
X136145424Y-115703456D01*
X136411282Y-115534737D01*
X136414833Y-115531800D01*
X136650893Y-115336514D01*
X136653898Y-115334028D01*
X136869445Y-115104494D01*
X136956181Y-114985112D01*
X137052226Y-114852917D01*
X137052226Y-114852916D01*
X137054524Y-114849754D01*
X137056404Y-114846334D01*
X137056408Y-114846328D01*
X137204337Y-114577245D01*
X137204337Y-114577244D01*
X137206216Y-114573827D01*
X137322130Y-114281063D01*
X137328141Y-114257655D01*
X137383425Y-114042333D01*
X137400436Y-113976080D01*
X137422123Y-113804410D01*
X137439412Y-113667554D01*
X137439412Y-113667548D01*
X137439900Y-113663688D01*
X137439900Y-113348812D01*
X137422781Y-113213295D01*
X137400924Y-113040284D01*
X137400436Y-113036420D01*
X137338276Y-112794321D01*
X137323101Y-112735217D01*
X137323099Y-112735210D01*
X137322130Y-112731437D01*
X137206216Y-112438673D01*
X137154479Y-112344563D01*
X137056408Y-112166172D01*
X137056404Y-112166166D01*
X137054524Y-112162746D01*
X136869445Y-111908006D01*
X136653898Y-111678472D01*
X136411282Y-111477763D01*
X136145424Y-111309044D01*
X135860516Y-111174977D01*
X135856811Y-111173773D01*
X135856808Y-111173772D01*
X135564762Y-111078880D01*
X135564755Y-111078878D01*
X135561052Y-111077675D01*
X135251754Y-111018673D01*
X135247862Y-111018428D01*
X135247861Y-111018428D01*
X135018110Y-111003973D01*
X135018094Y-111003973D01*
X135016147Y-111003850D01*
X134858853Y-111003850D01*
X134856906Y-111003973D01*
X134856890Y-111003973D01*
X134627139Y-111018428D01*
X134627138Y-111018428D01*
X134623246Y-111018673D01*
X134313948Y-111077675D01*
X134310245Y-111078878D01*
X134310238Y-111078880D01*
X134018192Y-111173772D01*
X134018189Y-111173773D01*
X134014484Y-111174977D01*
X133729576Y-111309044D01*
X133463718Y-111477763D01*
X133221102Y-111678472D01*
X133005555Y-111908006D01*
X132820476Y-112162746D01*
X132818596Y-112166166D01*
X132818592Y-112166172D01*
X132720521Y-112344563D01*
X132668784Y-112438673D01*
X132552870Y-112731437D01*
X132551901Y-112735210D01*
X132551899Y-112735217D01*
X132536724Y-112794321D01*
X132474564Y-113036420D01*
X132474076Y-113040284D01*
X132452220Y-113213295D01*
X132435100Y-113348812D01*
X132435100Y-113663688D01*
X131232263Y-113663688D01*
X131243772Y-113576858D01*
X131243772Y-113576854D01*
X131244461Y-113571657D01*
X131239002Y-113426256D01*
X131235849Y-113342278D01*
X131235849Y-113342277D01*
X131235652Y-113337034D01*
X131187438Y-113107249D01*
X131103127Y-112893756D01*
X131103126Y-112893755D01*
X131101198Y-112888873D01*
X130979396Y-112688150D01*
X130886416Y-112581000D01*
X130828958Y-112514785D01*
X130828954Y-112514781D01*
X130825515Y-112510818D01*
X130643956Y-112361949D01*
X130639394Y-112359352D01*
X130444468Y-112248393D01*
X130444463Y-112248391D01*
X130439910Y-112245799D01*
X130219211Y-112165689D01*
X129988170Y-112123910D01*
X129963571Y-112122750D01*
X129798550Y-112122750D01*
X129795934Y-112122972D01*
X129795933Y-112122972D01*
X129784879Y-112123910D01*
X129623552Y-112137599D01*
X129396294Y-112196583D01*
X129182222Y-112293016D01*
X128987459Y-112424138D01*
X128817573Y-112586201D01*
X128677422Y-112774571D01*
X128675043Y-112779249D01*
X128675043Y-112779250D01*
X128577983Y-112970154D01*
X128571013Y-112983862D01*
X128569459Y-112988867D01*
X128502945Y-113203077D01*
X128502944Y-113203083D01*
X128501389Y-113208090D01*
X128500699Y-113213294D01*
X128500699Y-113213295D01*
X128483250Y-113344946D01*
X128470539Y-113440843D01*
X126405401Y-113440843D01*
X126405401Y-87476475D01*
X126406877Y-87457397D01*
X126409228Y-87442299D01*
X126410587Y-87433571D01*
X126408569Y-87418136D01*
X126407839Y-87393221D01*
X126417857Y-87253137D01*
X126419955Y-87223808D01*
X126422472Y-87206300D01*
X126427956Y-87181094D01*
X126463951Y-87015626D01*
X126468935Y-86998650D01*
X126537132Y-86815808D01*
X126541991Y-86805170D01*
X139198000Y-86805170D01*
X139202404Y-86820169D01*
X139203774Y-86821356D01*
X139211332Y-86823000D01*
X140061170Y-86823000D01*
X140076169Y-86818596D01*
X140077356Y-86817226D01*
X140079000Y-86809668D01*
X140079000Y-85417179D01*
X140074791Y-85402846D01*
X140062882Y-85400816D01*
X140022240Y-85404515D01*
X140010392Y-85406775D01*
X139832390Y-85459164D01*
X139821194Y-85463688D01*
X139656758Y-85549653D01*
X139646662Y-85556259D01*
X139502053Y-85672527D01*
X139493428Y-85680974D01*
X139374158Y-85823115D01*
X139367343Y-85833068D01*
X139277948Y-85995675D01*
X139273197Y-86006760D01*
X139217090Y-86183632D01*
X139214581Y-86195439D01*
X139198387Y-86339808D01*
X139198000Y-86346734D01*
X139198000Y-86805170D01*
X126541991Y-86805170D01*
X126544482Y-86799715D01*
X126638001Y-86628447D01*
X126647566Y-86613564D01*
X126764507Y-86457348D01*
X126776093Y-86443977D01*
X126914077Y-86305993D01*
X126927448Y-86294407D01*
X127083664Y-86177466D01*
X127098547Y-86167901D01*
X127269815Y-86074382D01*
X127285908Y-86067032D01*
X127468750Y-85998835D01*
X127485726Y-85993851D01*
X127504320Y-85989806D01*
X127676405Y-85952371D01*
X127693908Y-85949855D01*
X127856256Y-85938244D01*
X127875501Y-85939044D01*
X127882402Y-85939128D01*
X127891131Y-85940487D01*
X127922784Y-85936348D01*
X127938860Y-85935301D01*
X136894359Y-85935301D01*
X136914930Y-85937019D01*
X136934861Y-85940372D01*
X136941009Y-85940447D01*
X136942613Y-85940467D01*
X136942618Y-85940467D01*
X136947400Y-85940525D01*
X136954477Y-85939512D01*
X136963941Y-85938526D01*
X137206006Y-85922660D01*
X137206011Y-85922659D01*
X137210059Y-85922394D01*
X137214038Y-85921603D01*
X137214042Y-85921602D01*
X137464232Y-85871836D01*
X137464231Y-85871836D01*
X137468224Y-85871042D01*
X137717477Y-85786432D01*
X137953554Y-85670012D01*
X138172416Y-85523774D01*
X138370317Y-85350219D01*
X138543872Y-85152318D01*
X138690111Y-84933457D01*
X138806531Y-84697380D01*
X138816386Y-84668350D01*
X138889837Y-84451970D01*
X138891142Y-84448126D01*
X138942494Y-84189962D01*
X138942759Y-84185919D01*
X138942761Y-84185904D01*
X138957468Y-83961527D01*
X138958920Y-83949069D01*
X138959676Y-83944572D01*
X138960472Y-83939842D01*
X138960625Y-83927303D01*
X138959940Y-83922514D01*
X138956652Y-83899561D01*
X138955400Y-83881982D01*
X138955400Y-83180876D01*
X138975085Y-83113837D01*
X139027889Y-83068082D01*
X139097047Y-83058138D01*
X139160603Y-83087163D01*
X139198377Y-83145941D01*
X139202808Y-83168776D01*
X139211821Y-83260698D01*
X139214167Y-83272546D01*
X139267796Y-83450170D01*
X139272395Y-83461329D01*
X139359506Y-83625164D01*
X139366186Y-83635217D01*
X139483463Y-83779013D01*
X139491959Y-83787569D01*
X139634935Y-83905849D01*
X139644944Y-83912599D01*
X139808156Y-84000848D01*
X139819286Y-84005527D01*
X139996541Y-84060396D01*
X140008365Y-84062823D01*
X140061271Y-84068384D01*
X140075689Y-84065747D01*
X140079000Y-84053620D01*
X140079000Y-84052821D01*
X140333000Y-84052821D01*
X140337209Y-84067154D01*
X140349118Y-84069184D01*
X140389760Y-84065485D01*
X140401608Y-84063225D01*
X140579610Y-84010836D01*
X140590806Y-84006312D01*
X140755242Y-83920347D01*
X140765338Y-83913741D01*
X140909947Y-83797473D01*
X140918572Y-83789026D01*
X141037842Y-83646885D01*
X141044657Y-83636932D01*
X141134052Y-83474325D01*
X141138803Y-83463240D01*
X141194910Y-83286368D01*
X141197419Y-83274561D01*
X141213613Y-83130192D01*
X141214000Y-83123266D01*
X141214000Y-83116705D01*
X147838000Y-83116705D01*
X147838296Y-83122763D01*
X147851821Y-83260698D01*
X147854167Y-83272546D01*
X147907796Y-83450170D01*
X147912395Y-83461329D01*
X147999506Y-83625164D01*
X148006186Y-83635217D01*
X148123463Y-83779013D01*
X148131959Y-83787569D01*
X148274935Y-83905849D01*
X148284944Y-83912599D01*
X148448156Y-84000848D01*
X148459286Y-84005527D01*
X148636541Y-84060396D01*
X148648365Y-84062823D01*
X148701271Y-84068384D01*
X148715689Y-84065747D01*
X148719000Y-84053620D01*
X148719000Y-82914830D01*
X148714596Y-82899831D01*
X148713226Y-82898644D01*
X148705668Y-82897000D01*
X147855830Y-82897000D01*
X147840831Y-82901404D01*
X147839644Y-82902774D01*
X147838000Y-82910332D01*
X147838000Y-83116705D01*
X141214000Y-83116705D01*
X141214000Y-82914830D01*
X141209596Y-82899831D01*
X141208226Y-82898644D01*
X141200668Y-82897000D01*
X140350830Y-82897000D01*
X140335831Y-82901404D01*
X140334644Y-82902774D01*
X140333000Y-82910332D01*
X140333000Y-84052821D01*
X140079000Y-84052821D01*
X140079000Y-82767000D01*
X140098685Y-82699961D01*
X140151489Y-82654206D01*
X140203000Y-82643000D01*
X141196170Y-82643000D01*
X141211169Y-82638596D01*
X141212356Y-82637226D01*
X141214000Y-82629668D01*
X141214000Y-82423295D01*
X141213704Y-82417237D01*
X141199587Y-82273264D01*
X141201927Y-82273035D01*
X141207268Y-82213820D01*
X141250171Y-82158673D01*
X141322626Y-82135302D01*
X144735791Y-82135301D01*
X147730493Y-82135300D01*
X147797531Y-82154985D01*
G37*
G04 #@! TD.AperFunction*
M02*
